# Tiled2Unity generated file. Do not modify by hand.
# Wavefront file for 'BibliotecaNueva_mesh_0011.obj'

# Vertices (Count = 180)
v -50 -11 0
v -51 -11 0
v -51 -10 0
v -50 -10 0
v -51 -11 0
v -52 -11 0
v -52 -10 0
v -51 -10 0
v -52 -11 0
v -53 -11 0
v -53 -10 0
v -52 -10 0
v -59 -11 0
v -60 -11 0
v -60 -10 0
v -59 -10 0
v -60 -11 0
v -61 -11 0
v -61 -10 0
v -60 -10 0
v -61 -11 0
v -62 -11 0
v -62 -10 0
v -61 -10 0
v -8 -13 0
v -9 -13 0
v -9 -12 0
v -8 -12 0
v -9 -13 0
v -10 -13 0
v -10 -12 0
v -9 -12 0
v -10 -13 0
v -11 -13 0
v -11 -12 0
v -10 -12 0
v -14 -13 0
v -15 -13 0
v -15 -12 0
v -14 -12 0
v -15 -13 0
v -16 -13 0
v -16 -12 0
v -15 -12 0
v -16 -13 0
v -17 -13 0
v -17 -12 0
v -16 -12 0
v -20 -13 0
v -21 -13 0
v -21 -12 0
v -20 -12 0
v -21 -13 0
v -22 -13 0
v -22 -12 0
v -21 -12 0
v -22 -13 0
v -23 -13 0
v -23 -12 0
v -22 -12 0
v -26 -13 0
v -27 -13 0
v -27 -12 0
v -26 -12 0
v -27 -13 0
v -28 -13 0
v -28 -12 0
v -27 -12 0
v -28 -13 0
v -29 -13 0
v -29 -12 0
v -28 -12 0
v -32 -13 0
v -33 -13 0
v -33 -12 0
v -32 -12 0
v -33 -13 0
v -34 -13 0
v -34 -12 0
v -33 -12 0
v -34 -13 0
v -35 -13 0
v -35 -12 0
v -34 -12 0
v -38 -13 0
v -39 -13 0
v -39 -12 0
v -38 -12 0
v -39 -13 0
v -40 -13 0
v -40 -12 0
v -39 -12 0
v -40 -13 0
v -41 -13 0
v -41 -12 0
v -40 -12 0
v -46 -15 0
v -47 -15 0
v -47 -14 0
v -46 -14 0
v -53 -15 0
v -54 -15 0
v -54 -14 0
v -53 -14 0
v -46 -16 0
v -47 -16 0
v -47 -15 0
v -46 -15 0
v -53 -16 0
v -54 -16 0
v -54 -15 0
v -53 -15 0
v -46 -17 0
v -47 -17 0
v -47 -16 0
v -46 -16 0
v -53 -17 0
v -54 -17 0
v -54 -16 0
v -53 -16 0
v -8 -21 0
v -9 -21 0
v -9 -20 0
v -8 -20 0
v -9 -21 0
v -10 -21 0
v -10 -20 0
v -9 -20 0
v -10 -21 0
v -11 -21 0
v -11 -20 0
v -10 -20 0
v -14 -21 0
v -15 -21 0
v -15 -20 0
v -14 -20 0
v -15 -21 0
v -16 -21 0
v -16 -20 0
v -15 -20 0
v -16 -21 0
v -17 -21 0
v -17 -20 0
v -16 -20 0
v -20 -21 0
v -21 -21 0
v -21 -20 0
v -20 -20 0
v -21 -21 0
v -22 -21 0
v -22 -20 0
v -21 -20 0
v -22 -21 0
v -23 -21 0
v -23 -20 0
v -22 -20 0
v -26 -21 0
v -27 -21 0
v -27 -20 0
v -26 -20 0
v -27 -21 0
v -28 -21 0
v -28 -20 0
v -27 -20 0
v -28 -21 0
v -29 -21 0
v -29 -20 0
v -28 -20 0
v -32 -21 0
v -33 -21 0
v -33 -20 0
v -32 -20 0
v -33 -21 0
v -34 -21 0
v -34 -20 0
v -33 -20 0
v -34 -21 0
v -35 -21 0
v -35 -20 0
v -34 -20 0

# Texture cooridinates (Count = 72)
vt 0.5938864 0.4459016
vt 0.628821 0.4459016
vt 0.628821 0.4983606
vt 0.5938864 0.4983606
vt 0.6310044 0.4459016
vt 0.6659389 0.4459016
vt 0.6659389 0.4983606
vt 0.6310044 0.4983606
vt 0.6681223 0.4459016
vt 0.7030568 0.4459016
vt 0.7030568 0.4983606
vt 0.6681223 0.4983606
vt 0.5938864 0.3344262
vt 0.628821 0.3344262
vt 0.628821 0.3868852
vt 0.5938864 0.3868852
vt 0.6310044 0.3344262
vt 0.6659389 0.3344262
vt 0.6659389 0.3868852
vt 0.6310044 0.3868852
vt 0.6681223 0.3344262
vt 0.7030568 0.3344262
vt 0.7030568 0.3868852
vt 0.6681223 0.3868852
vt 0 0.390164
vt 0.0349345 0.390164
vt 0.0349345 0.442623
vt 0 0.442623
vt 0.0371179 0.390164
vt 0.0720524 0.390164
vt 0.0720524 0.442623
vt 0.0371179 0.442623
vt 0.0742358 0.390164
vt 0.1091703 0.390164
vt 0.1091703 0.442623
vt 0.0742358 0.442623
vt 0.4454148 0.4459016
vt 0.4803493 0.4459016
vt 0.4803493 0.4983606
vt 0.4454148 0.4983606
vt 0.1855895 0.4459016
vt 0.220524 0.4459016
vt 0.220524 0.4983606
vt 0.1855895 0.4983606
vt 0.4454148 0.390164
vt 0.4803493 0.390164
vt 0.4803493 0.442623
vt 0.4454148 0.442623
vt 0.1855895 0.390164
vt 0.220524 0.390164
vt 0.220524 0.442623
vt 0.1855895 0.442623
vt 0.4454148 0.3344262
vt 0.4803493 0.3344262
vt 0.4803493 0.3868852
vt 0.4454148 0.3868852
vt 0.1855895 0.3344262
vt 0.220524 0.3344262
vt 0.220524 0.3868852
vt 0.1855895 0.3868852
vt 0.2598253 0.390164
vt 0.2947598 0.390164
vt 0.2947598 0.442623
vt 0.2598253 0.442623
vt 0.2969432 0.390164
vt 0.3318777 0.390164
vt 0.3318777 0.442623
vt 0.2969432 0.442623
vt 0.3340611 0.390164
vt 0.3689956 0.390164
vt 0.3689956 0.442623
vt 0.3340611 0.442623

# Normal
vn 0 0 -1

# Mesh description
g BibliotecaNueva_mesh_0011

# Faces
f 1/1/1 2/2/1 3/3/1 4/4/1
f 5/5/1 6/6/1 7/7/1 8/8/1
f 9/9/1 10/10/1 11/11/1 12/12/1
f 13/13/1 14/14/1 15/15/1 16/16/1
f 17/17/1 18/18/1 19/19/1 20/20/1
f 21/21/1 22/22/1 23/23/1 24/24/1
f 25/25/1 26/26/1 27/27/1 28/28/1
f 29/29/1 30/30/1 31/31/1 32/32/1
f 33/33/1 34/34/1 35/35/1 36/36/1
f 37/25/1 38/26/1 39/27/1 40/28/1
f 41/29/1 42/30/1 43/31/1 44/32/1
f 45/33/1 46/34/1 47/35/1 48/36/1
f 49/25/1 50/26/1 51/27/1 52/28/1
f 53/29/1 54/30/1 55/31/1 56/32/1
f 57/33/1 58/34/1 59/35/1 60/36/1
f 61/25/1 62/26/1 63/27/1 64/28/1
f 65/29/1 66/30/1 67/31/1 68/32/1
f 69/33/1 70/34/1 71/35/1 72/36/1
f 73/25/1 74/26/1 75/27/1 76/28/1
f 77/29/1 78/30/1 79/31/1 80/32/1
f 81/33/1 82/34/1 83/35/1 84/36/1
f 85/25/1 86/26/1 87/27/1 88/28/1
f 89/29/1 90/30/1 91/31/1 92/32/1
f 93/33/1 94/34/1 95/35/1 96/36/1
f 97/37/1 98/38/1 99/39/1 100/40/1
f 101/41/1 102/42/1 103/43/1 104/44/1
f 105/45/1 106/46/1 107/47/1 108/48/1
f 109/49/1 110/50/1 111/51/1 112/52/1
f 113/53/1 114/54/1 115/55/1 116/56/1
f 117/57/1 118/58/1 119/59/1 120/60/1
f 121/61/1 122/62/1 123/63/1 124/64/1
f 125/65/1 126/66/1 127/67/1 128/68/1
f 129/69/1 130/70/1 131/71/1 132/72/1
f 133/61/1 134/62/1 135/63/1 136/64/1
f 137/65/1 138/66/1 139/67/1 140/68/1
f 141/69/1 142/70/1 143/71/1 144/72/1
f 145/61/1 146/62/1 147/63/1 148/64/1
f 149/65/1 150/66/1 151/67/1 152/68/1
f 153/69/1 154/70/1 155/71/1 156/72/1
f 157/61/1 158/62/1 159/63/1 160/64/1
f 161/65/1 162/66/1 163/67/1 164/68/1
f 165/69/1 166/70/1 167/71/1 168/72/1
f 169/61/1 170/62/1 171/63/1 172/64/1
f 173/65/1 174/66/1 175/67/1 176/68/1
f 177/69/1 178/70/1 179/71/1 180/72/1

