# Tiled2Unity generated file. Do not modify by hand.
# Wavefront file for 'BibliotecaNueva_mesh_0004.obj'

# Vertices (Count = 304)
v -38 -5 0
v -39 -5 0
v -39 -4 0
v -38 -4 0
v -39 -5 0
v -40 -5 0
v -40 -4 0
v -39 -4 0
v -37 -9 0
v -38 -9 0
v -38 -8 0
v -37 -8 0
v -38 -9 0
v -39 -9 0
v -39 -8 0
v -38 -8 0
v -39 -9 0
v -40 -9 0
v -40 -8 0
v -39 -8 0
v -57 -20 0
v -58 -20 0
v -58 -19 0
v -57 -19 0
v -58 -20 0
v -59 -20 0
v -59 -19 0
v -58 -19 0
v -59 -20 0
v -60 -20 0
v -60 -19 0
v -59 -19 0
v -60 -20 0
v -61 -20 0
v -61 -19 0
v -60 -19 0
v -61 -20 0
v -62 -20 0
v -62 -19 0
v -61 -19 0
v -62 -20 0
v -63 -20 0
v -63 -19 0
v -62 -19 0
v -63 -20 0
v -64 -20 0
v -64 -19 0
v -63 -19 0
v -64 -20 0
v -65 -20 0
v -65 -19 0
v -64 -19 0
v -52 -21 0
v -53 -21 0
v -53 -20 0
v -52 -20 0
v -53 -21 0
v -54 -21 0
v -54 -20 0
v -53 -20 0
v -54 -21 0
v -55 -21 0
v -55 -20 0
v -54 -20 0
v -55 -21 0
v -56 -21 0
v -56 -20 0
v -55 -20 0
v -56 -21 0
v -57 -21 0
v -57 -20 0
v -56 -20 0
v -57 -21 0
v -58 -21 0
v -58 -20 0
v -57 -20 0
v -42 -22 0
v -43 -22 0
v -43 -21 0
v -42 -21 0
v -43 -22 0
v -44 -22 0
v -44 -21 0
v -43 -21 0
v -44 -22 0
v -45 -22 0
v -45 -21 0
v -44 -21 0
v -45 -22 0
v -46 -22 0
v -46 -21 0
v -45 -21 0
v -46 -22 0
v -47 -22 0
v -47 -21 0
v -46 -21 0
v -47 -22 0
v -48 -22 0
v -48 -21 0
v -47 -21 0
v -48 -22 0
v -49 -22 0
v -49 -21 0
v -48 -21 0
v -49 -22 0
v -50 -22 0
v -50 -21 0
v -49 -21 0
v -50 -22 0
v -51 -22 0
v -51 -21 0
v -50 -21 0
v -51 -22 0
v -52 -22 0
v -52 -21 0
v -51 -21 0
v -52 -22 0
v -53 -22 0
v -53 -21 0
v -52 -21 0
v -37 -23 0
v -38 -23 0
v -38 -22 0
v -37 -22 0
v -38 -23 0
v -39 -23 0
v -39 -22 0
v -38 -22 0
v -39 -23 0
v -40 -23 0
v -40 -22 0
v -39 -22 0
v -40 -23 0
v -41 -23 0
v -41 -22 0
v -40 -22 0
v -41 -23 0
v -42 -23 0
v -42 -22 0
v -41 -22 0
v -42 -23 0
v -43 -23 0
v -43 -22 0
v -42 -22 0
v -3 -24 0
v -4 -24 0
v -4 -23 0
v -3 -23 0
v -4 -24 0
v -5 -24 0
v -5 -23 0
v -4 -23 0
v -5 -24 0
v -6 -24 0
v -6 -23 0
v -5 -23 0
v -35 -24 0
v -36 -24 0
v -36 -23 0
v -35 -23 0
v -36 -24 0
v -37 -24 0
v -37 -23 0
v -36 -23 0
v -37 -24 0
v -38 -24 0
v -38 -23 0
v -37 -23 0
v -5 -25 0
v -6 -25 0
v -6 -24 0
v -5 -24 0
v -6 -25 0
v -7 -25 0
v -7 -24 0
v -6 -24 0
v -7 -25 0
v -8 -25 0
v -8 -24 0
v -7 -24 0
v -8 -25 0
v -9 -25 0
v -9 -24 0
v -8 -24 0
v -9 -25 0
v -10 -25 0
v -10 -24 0
v -9 -24 0
v -9 -26 0
v -10 -26 0
v -10 -25 0
v -9 -25 0
v -10 -26 0
v -11 -26 0
v -11 -25 0
v -10 -25 0
v -11 -26 0
v -12 -26 0
v -12 -25 0
v -11 -25 0
v -12 -26 0
v -13 -26 0
v -13 -25 0
v -12 -25 0
v -12 -27 0
v -13 -27 0
v -13 -26 0
v -12 -26 0
v -13 -27 0
v -14 -27 0
v -14 -26 0
v -13 -26 0
v -14 -27 0
v -15 -27 0
v -15 -26 0
v -14 -26 0
v -15 -27 0
v -16 -27 0
v -16 -26 0
v -15 -26 0
v -15 -28 0
v -16 -28 0
v -16 -27 0
v -15 -27 0
v -16 -28 0
v -17 -28 0
v -17 -27 0
v -16 -27 0
v -17 -28 0
v -18 -28 0
v -18 -27 0
v -17 -27 0
v -18 -28 0
v -19 -28 0
v -19 -27 0
v -18 -27 0
v -19 -28 0
v -20 -28 0
v -20 -27 0
v -19 -27 0
v -20 -28 0
v -21 -28 0
v -21 -27 0
v -20 -27 0
v -20 -29 0
v -21 -29 0
v -21 -28 0
v -20 -28 0
v -21 -29 0
v -22 -29 0
v -22 -28 0
v -21 -28 0
v -22 -29 0
v -23 -29 0
v -23 -28 0
v -22 -28 0
v -23 -29 0
v -24 -29 0
v -24 -28 0
v -23 -28 0
v -24 -29 0
v -25 -29 0
v -25 -28 0
v -24 -28 0
v -25 -29 0
v -26 -29 0
v -26 -28 0
v -25 -28 0
v -25 -30 0
v -26 -30 0
v -26 -29 0
v -25 -29 0
v -26 -30 0
v -27 -30 0
v -27 -29 0
v -26 -29 0
v -27 -30 0
v -28 -30 0
v -28 -29 0
v -27 -29 0
v -28 -30 0
v -29 -30 0
v -29 -29 0
v -28 -29 0
v -29 -30 0
v -30 -30 0
v -30 -29 0
v -29 -29 0
v -30 -30 0
v -31 -30 0
v -31 -29 0
v -30 -29 0
v -32 -30 0
v -33 -30 0
v -33 -29 0
v -32 -29 0
v -33 -30 0
v -34 -30 0
v -34 -29 0
v -33 -29 0
v -34 -30 0
v -35 -30 0
v -35 -29 0
v -34 -29 0

# Texture cooridinates (Count = 24)
vt 0.4722222 0.8947368
vt 0.4969136 0.8947368
vt 0.4969136 0.928421
vt 0.4722222 0.928421
vt 0.4459876 0.8947368
vt 0.470679 0.8947368
vt 0.470679 0.928421
vt 0.4459876 0.928421
vt 0.5509259 0.928421
vt 0.5509259 0.8947368
vt 0.5756173 0.8947368
vt 0.5756173 0.928421
vt 0.5246913 0.8947368
vt 0.5493827 0.8947368
vt 0.5493827 0.928421
vt 0.5246913 0.928421
vt 0.5231481 0.8589474
vt 0.5231481 0.8926316
vt 0.4984568 0.8926316
vt 0.4984568 0.8589474
vt 0.5493827 0.8926316
vt 0.5246913 0.8926316
vt 0.5246913 0.8589474
vt 0.5493827 0.8589474

# Normal
vn 0 0 -1

# Mesh description
g BibliotecaNueva_mesh_0004

# Faces
f 1/1/1 2/2/1 3/3/1 4/4/1
f 5/1/1 6/2/1 7/3/1 8/4/1
f 9/5/1 10/6/1 11/7/1 12/8/1
f 13/1/1 14/2/1 15/3/1 16/4/1
f 17/1/1 18/2/1 19/3/1 20/4/1
f 21/9/1 22/10/1 23/11/1 24/12/1
f 25/1/1 26/2/1 27/3/1 28/4/1
f 29/1/1 30/2/1 31/3/1 32/4/1
f 33/1/1 34/2/1 35/3/1 36/4/1
f 37/1/1 38/2/1 39/3/1 40/4/1
f 41/1/1 42/2/1 43/3/1 44/4/1
f 45/1/1 46/2/1 47/3/1 48/4/1
f 49/1/1 50/2/1 51/3/1 52/4/1
f 53/9/1 54/10/1 55/11/1 56/12/1
f 57/1/1 58/2/1 59/3/1 60/4/1
f 61/1/1 62/2/1 63/3/1 64/4/1
f 65/1/1 66/2/1 67/3/1 68/4/1
f 69/1/1 70/2/1 71/3/1 72/4/1
f 73/11/1 74/12/1 75/9/1 76/10/1
f 77/13/1 78/14/1 79/15/1 80/16/1
f 81/1/1 82/2/1 83/3/1 84/4/1
f 85/1/1 86/2/1 87/3/1 88/4/1
f 89/1/1 90/2/1 91/3/1 92/4/1
f 93/1/1 94/2/1 95/3/1 96/4/1
f 97/1/1 98/2/1 99/3/1 100/4/1
f 101/1/1 102/2/1 103/3/1 104/4/1
f 105/1/1 106/2/1 107/3/1 108/4/1
f 109/1/1 110/2/1 111/3/1 112/4/1
f 113/1/1 114/2/1 115/3/1 116/4/1
f 117/11/1 118/12/1 119/9/1 120/10/1
f 121/13/1 122/14/1 123/15/1 124/16/1
f 125/1/1 126/2/1 127/3/1 128/4/1
f 129/1/1 130/2/1 131/3/1 132/4/1
f 133/1/1 134/2/1 135/3/1 136/4/1
f 137/1/1 138/2/1 139/3/1 140/4/1
f 141/15/1 142/16/1 143/13/1 144/14/1
f 145/17/1 146/18/1 147/19/1 148/20/1
f 149/17/1 150/18/1 151/19/1 152/20/1
f 153/21/1 154/22/1 155/23/1 156/24/1
f 157/5/1 158/6/1 159/7/1 160/8/1
f 161/1/1 162/2/1 163/3/1 164/4/1
f 165/15/1 166/16/1 167/13/1 168/14/1
f 169/23/1 170/24/1 171/21/1 172/22/1
f 173/17/1 174/18/1 175/19/1 176/20/1
f 177/17/1 178/18/1 179/19/1 180/20/1
f 181/17/1 182/18/1 183/19/1 184/20/1
f 185/21/1 186/22/1 187/23/1 188/24/1
f 189/23/1 190/24/1 191/21/1 192/22/1
f 193/17/1 194/18/1 195/19/1 196/20/1
f 197/17/1 198/18/1 199/19/1 200/20/1
f 201/21/1 202/22/1 203/23/1 204/24/1
f 205/23/1 206/24/1 207/21/1 208/22/1
f 209/17/1 210/18/1 211/19/1 212/20/1
f 213/17/1 214/18/1 215/19/1 216/20/1
f 217/21/1 218/22/1 219/23/1 220/24/1
f 221/23/1 222/24/1 223/21/1 224/22/1
f 225/17/1 226/18/1 227/19/1 228/20/1
f 229/17/1 230/18/1 231/19/1 232/20/1
f 233/17/1 234/18/1 235/19/1 236/20/1
f 237/17/1 238/18/1 239/19/1 240/20/1
f 241/21/1 242/22/1 243/23/1 244/24/1
f 245/23/1 246/24/1 247/21/1 248/22/1
f 249/17/1 250/18/1 251/19/1 252/20/1
f 253/17/1 254/18/1 255/19/1 256/20/1
f 257/17/1 258/18/1 259/19/1 260/20/1
f 261/17/1 262/18/1 263/19/1 264/20/1
f 265/21/1 266/22/1 267/23/1 268/24/1
f 269/23/1 270/24/1 271/21/1 272/22/1
f 273/17/1 274/18/1 275/19/1 276/20/1
f 277/17/1 278/18/1 279/19/1 280/20/1
f 281/17/1 282/18/1 283/19/1 284/20/1
f 285/17/1 286/18/1 287/19/1 288/20/1
f 289/17/1 290/18/1 291/19/1 292/20/1
f 293/17/1 294/18/1 295/19/1 296/20/1
f 297/17/1 298/18/1 299/19/1 300/20/1
f 301/17/1 302/18/1 303/19/1 304/20/1

