# Tiled2Unity generated file. Do not modify by hand.
# Wavefront file for 'BibliotecaNueva_mesh_0014.obj'

# Vertices (Count = 60)
v -52 -10 0
v -53 -10 0
v -53 -9 0
v -52 -9 0
v -59 -10 0
v -60 -10 0
v -60 -9 0
v -59 -9 0
v -8 -12 0
v -9 -12 0
v -9 -11 0
v -8 -11 0
v -14 -12 0
v -15 -12 0
v -15 -11 0
v -14 -11 0
v -32 -12 0
v -33 -12 0
v -33 -11 0
v -32 -11 0
v -19 -13 0
v -20 -13 0
v -20 -12 0
v -19 -12 0
v -25 -13 0
v -26 -13 0
v -26 -12 0
v -25 -12 0
v -41 -13 0
v -42 -13 0
v -42 -12 0
v -41 -12 0
v -47 -15 0
v -48 -15 0
v -48 -14 0
v -47 -14 0
v -54 -17 0
v -55 -17 0
v -55 -16 0
v -54 -16 0
v -8 -20 0
v -9 -20 0
v -9 -19 0
v -8 -19 0
v -35 -20 0
v -36 -20 0
v -36 -19 0
v -35 -19 0
v -19 -21 0
v -20 -21 0
v -20 -20 0
v -19 -20 0
v -16 -22 0
v -17 -22 0
v -17 -21 0
v -16 -21 0
v -26 -22 0
v -27 -22 0
v -27 -21 0
v -26 -21 0

# Texture cooridinates (Count = 24)
vt 0.3410494 0.3578947
vt 0.3657407 0.3578947
vt 0.3657407 0.391579
vt 0.3410494 0.391579
vt 0.2361111 0.3221053
vt 0.2608025 0.3221053
vt 0.2608025 0.3557895
vt 0.2361111 0.3557895
vt 0.3672839 0.3578947
vt 0.3919753 0.3578947
vt 0.3919753 0.391579
vt 0.3672839 0.391579
vt 0.3410494 0.3936842
vt 0.3657407 0.3936842
vt 0.3657407 0.4273684
vt 0.3410494 0.4273684
vt 0.3410494 0.4294737
vt 0.3657407 0.4294737
vt 0.3657407 0.4631579
vt 0.3410494 0.4631579
vt 0.3672839 0.4294737
vt 0.3919753 0.4294737
vt 0.3919753 0.4631579
vt 0.3672839 0.4631579

# Normal
vn 0 0 -1

# Mesh description
g BibliotecaNueva_mesh_0014

# Faces
f 1/1/1 2/2/1 3/3/1 4/4/1
f 5/5/1 6/6/1 7/7/1 8/8/1
f 9/9/1 10/10/1 11/11/1 12/12/1
f 13/13/1 14/14/1 15/15/1 16/16/1
f 17/1/1 18/2/1 19/3/1 20/4/1
f 21/5/1 22/6/1 23/7/1 24/8/1
f 25/5/1 26/6/1 27/7/1 28/8/1
f 29/13/1 30/14/1 31/15/1 32/16/1
f 33/1/1 34/2/1 35/3/1 36/4/1
f 37/17/1 38/18/1 39/19/1 40/20/1
f 41/17/1 42/18/1 43/19/1 44/20/1
f 45/9/1 46/10/1 47/11/1 48/12/1
f 49/13/1 50/14/1 51/15/1 52/16/1
f 53/1/1 54/2/1 55/3/1 56/4/1
f 57/21/1 58/22/1 59/23/1 60/24/1

