# Tiled2Unity generated file. Do not modify by hand.
# Wavefront file for 'Seccion01_mesh_0004.obj'

# Vertices (Count = 76)
v 0 -1 0
v -1 -1 0
v -1 0 0
v 0 0 0
v -10 -1 0
v -11 -1 0
v -11 0 0
v -10 0 0
v -23 -1 0
v -24 -1 0
v -24 0 0
v -23 0 0
v -5 -2 0
v -6 -2 0
v -6 -1 0
v -5 -1 0
v -13 -2 0
v -14 -2 0
v -14 -1 0
v -13 -1 0
v -16 -2 0
v -17 -2 0
v -17 -1 0
v -16 -1 0
v -22 -2 0
v -23 -2 0
v -23 -1 0
v -22 -1 0
v -7 -3 0
v -8 -3 0
v -8 -2 0
v -7 -2 0
v -10 -3 0
v -11 -3 0
v -11 -2 0
v -10 -2 0
v -18 -3 0
v -19 -3 0
v -19 -2 0
v -18 -2 0
v -16 -4 0
v -17 -4 0
v -17 -3 0
v -16 -3 0
v -2 -5 0
v -3 -5 0
v -3 -4 0
v -2 -4 0
v -6 -5 0
v -7 -5 0
v -7 -4 0
v -6 -4 0
v -10 -5 0
v -11 -5 0
v -11 -4 0
v -10 -4 0
v 0 -7 0
v -1 -7 0
v -1 -6 0
v 0 -6 0
v -1 -7 0
v -2 -7 0
v -2 -6 0
v -1 -6 0
v -2 -7 0
v -3 -7 0
v -3 -6 0
v -2 -6 0
v -5 -7 0
v -6 -7 0
v -6 -6 0
v -5 -6 0
v -8 -7 0
v -9 -7 0
v -9 -6 0
v -8 -6 0

# Texture cooridinates (Count = 68)
vt 0.9659091 0.3555133
vt 0.982438 0.3555133
vt 0.982438 0.3859316
vt 0.9659091 0.3859316
vt 0.9659091 0.2908745
vt 0.982438 0.2908745
vt 0.982438 0.3212928
vt 0.9659091 0.3212928
vt 0.9834711 0.3231939
vt 1 0.3231939
vt 1 0.3536122
vt 0.9834711 0.3536122
vt 0.9834711 0.2585551
vt 1 0.2585551
vt 1 0.2889734
vt 0.9834711 0.2889734
vt 0.9483471 0.3555133
vt 0.9648761 0.3555133
vt 0.9648761 0.3859316
vt 0.9483471 0.3859316
vt 0.9483471 0.2908745
vt 0.9648761 0.2908745
vt 0.9648761 0.3212928
vt 0.9483471 0.3212928
vt 0.4741735 0.6463878
vt 0.4907025 0.6463878
vt 0.4907025 0.6768061
vt 0.4741735 0.6768061
vt 0.9307851 0.3555133
vt 0.947314 0.3555133
vt 0.947314 0.3859316
vt 0.9307851 0.3859316
vt 0.4741735 0.6140684
vt 0.4907025 0.6140684
vt 0.4907025 0.6444867
vt 0.4741735 0.6444867
vt 0.9659091 0.3231939
vt 0.982438 0.3231939
vt 0.982438 0.3536122
vt 0.9659091 0.3536122
vt 0.9483471 0.2585551
vt 0.9648761 0.2585551
vt 0.9648761 0.2889734
vt 0.9483471 0.2889734
vt 0.9483471 0.3231939
vt 0.9648761 0.3231939
vt 0.9648761 0.3536122
vt 0.9483471 0.3536122
vt 0.9307851 0.2908745
vt 0.947314 0.2908745
vt 0.947314 0.3212928
vt 0.9307851 0.3212928
vt 0.8429752 0.2262357
vt 0.8595041 0.2262357
vt 0.8595041 0.256654
vt 0.8429752 0.256654
vt 0.8605372 0.2262357
vt 0.8770661 0.2262357
vt 0.8770661 0.256654
vt 0.8605372 0.256654
vt 0.9659091 0.2585551
vt 0.982438 0.2585551
vt 0.982438 0.2889734
vt 0.9659091 0.2889734
vt 0.9307851 0.2585551
vt 0.947314 0.2585551
vt 0.947314 0.2889734
vt 0.9307851 0.2889734

# Normal
vn 0 0 -1

# Mesh description
g Seccion01_mesh_0004

# Faces
f 1/1/1 2/2/1 3/3/1 4/4/1
f 5/5/1 6/6/1 7/7/1 8/8/1
f 9/9/1 10/10/1 11/11/1 12/12/1
f 13/13/1 14/14/1 15/15/1 16/16/1
f 17/1/1 18/2/1 19/3/1 20/4/1
f 21/17/1 22/18/1 23/19/1 24/20/1
f 25/21/1 26/22/1 27/23/1 28/24/1
f 29/25/1 30/26/1 31/27/1 32/28/1
f 33/29/1 34/30/1 35/31/1 36/32/1
f 37/33/1 38/34/1 39/35/1 40/36/1
f 41/37/1 42/38/1 43/39/1 44/40/1
f 45/41/1 46/42/1 47/43/1 48/44/1
f 49/45/1 50/46/1 51/47/1 52/48/1
f 53/49/1 54/50/1 55/51/1 56/52/1
f 57/53/1 58/54/1 59/55/1 60/56/1
f 61/57/1 62/58/1 63/59/1 64/60/1
f 65/61/1 66/62/1 67/63/1 68/64/1
f 69/65/1 70/66/1 71/67/1 72/68/1
f 73/1/1 74/2/1 75/3/1 76/4/1

