# Tiled2Unity generated file. Do not modify by hand.
# Wavefront file for 'Casa_mesh_0004.obj'

# Vertices (Count = 284)
v -1 -2 0
v -2 -2 0
v -2 -1 0
v -1 -1 0
v -2 -2 0
v -3 -2 0
v -3 -1 0
v -2 -1 0
v -3 -2 0
v -4 -2 0
v -4 -1 0
v -3 -1 0
v -9 -2 0
v -10 -2 0
v -10 -1 0
v -9 -1 0
v -10 -2 0
v -11 -2 0
v -11 -1 0
v -10 -1 0
v -11 -2 0
v -12 -2 0
v -12 -1 0
v -11 -1 0
v -12 -2 0
v -13 -2 0
v -13 -1 0
v -12 -1 0
v -13 -2 0
v -14 -2 0
v -14 -1 0
v -13 -1 0
v -14 -2 0
v -15 -2 0
v -15 -1 0
v -14 -1 0
v -1 -3 0
v -2 -3 0
v -2 -2 0
v -1 -2 0
v -2 -3 0
v -3 -3 0
v -3 -2 0
v -2 -2 0
v -3 -3 0
v -4 -3 0
v -4 -2 0
v -3 -2 0
v -5 -3 0
v -6 -3 0
v -6 -2 0
v -5 -2 0
v -6 -3 0
v -7 -3 0
v -7 -2 0
v -6 -2 0
v -7 -3 0
v -8 -3 0
v -8 -2 0
v -7 -2 0
v -9 -3 0
v -10 -3 0
v -10 -2 0
v -9 -2 0
v -10 -3 0
v -11 -3 0
v -11 -2 0
v -10 -2 0
v -11 -3 0
v -12 -3 0
v -12 -2 0
v -11 -2 0
v -12 -3 0
v -13 -3 0
v -13 -2 0
v -12 -2 0
v -13 -3 0
v -14 -3 0
v -14 -2 0
v -13 -2 0
v -14 -3 0
v -15 -3 0
v -15 -2 0
v -14 -2 0
v -1 -4 0
v -2 -4 0
v -2 -3 0
v -1 -3 0
v -2 -4 0
v -3 -4 0
v -3 -3 0
v -2 -3 0
v -3 -4 0
v -4 -4 0
v -4 -3 0
v -3 -3 0
v -9 -4 0
v -10 -4 0
v -10 -3 0
v -9 -3 0
v -10 -4 0
v -11 -4 0
v -11 -3 0
v -10 -3 0
v -11 -4 0
v -12 -4 0
v -12 -3 0
v -11 -3 0
v -12 -4 0
v -13 -4 0
v -13 -3 0
v -12 -3 0
v -13 -4 0
v -14 -4 0
v -14 -3 0
v -13 -3 0
v -14 -4 0
v -15 -4 0
v -15 -3 0
v -14 -3 0
v -1 -5 0
v -2 -5 0
v -2 -4 0
v -1 -4 0
v -2 -5 0
v -3 -5 0
v -3 -4 0
v -2 -4 0
v -3 -5 0
v -4 -5 0
v -4 -4 0
v -3 -4 0
v -9 -5 0
v -10 -5 0
v -10 -4 0
v -9 -4 0
v -10 -5 0
v -11 -5 0
v -11 -4 0
v -10 -4 0
v -11 -5 0
v -12 -5 0
v -12 -4 0
v -11 -4 0
v -12 -5 0
v -13 -5 0
v -13 -4 0
v -12 -4 0
v -13 -5 0
v -14 -5 0
v -14 -4 0
v -13 -4 0
v -14 -5 0
v -15 -5 0
v -15 -4 0
v -14 -4 0
v -1 -6 0
v -2 -6 0
v -2 -5 0
v -1 -5 0
v -10 -6 0
v -11 -6 0
v -11 -5 0
v -10 -5 0
v 0 -7 0
v -1 -7 0
v -1 -6 0
v 0 -6 0
v -1 -7 0
v -2 -7 0
v -2 -6 0
v -1 -6 0
v 0 -8 0
v -1 -8 0
v -1 -7 0
v 0 -7 0
v -1 -8 0
v -2 -8 0
v -2 -7 0
v -1 -7 0
v -15 -8 0
v -16 -8 0
v -16 -7 0
v -15 -7 0
v 0 -9 0
v -1 -9 0
v -1 -8 0
v 0 -8 0
v -1 -9 0
v -2 -9 0
v -2 -8 0
v -1 -8 0
v -15 -9 0
v -16 -9 0
v -16 -8 0
v -15 -8 0
v 0 -10 0
v -1 -10 0
v -1 -9 0
v 0 -9 0
v -1 -10 0
v -2 -10 0
v -2 -9 0
v -1 -9 0
v 0 -11 0
v -1 -11 0
v -1 -10 0
v 0 -10 0
v -1 -11 0
v -2 -11 0
v -2 -10 0
v -1 -10 0
v 0 -12 0
v -1 -12 0
v -1 -11 0
v 0 -11 0
v -1 -12 0
v -2 -12 0
v -2 -11 0
v -1 -11 0
v -13 -12 0
v -14 -12 0
v -14 -11 0
v -13 -11 0
v 0 -13 0
v -1 -13 0
v -1 -12 0
v 0 -12 0
v -1 -13 0
v -2 -13 0
v -2 -12 0
v -1 -12 0
v -12 -13 0
v -13 -13 0
v -13 -12 0
v -12 -12 0
v -13 -13 0
v -14 -13 0
v -14 -12 0
v -13 -12 0
v -14 -13 0
v -15 -13 0
v -15 -12 0
v -14 -12 0
v -15 -13 0
v -16 -13 0
v -16 -12 0
v -15 -12 0
v 0 -14 0
v -1 -14 0
v -1 -13 0
v 0 -13 0
v -12 -14 0
v -13 -14 0
v -13 -13 0
v -12 -13 0
v -13 -14 0
v -14 -14 0
v -14 -13 0
v -13 -13 0
v -14 -14 0
v -15 -14 0
v -15 -13 0
v -14 -13 0
v -15 -14 0
v -16 -14 0
v -16 -13 0
v -15 -13 0
v 0 -15 0
v -1 -15 0
v -1 -14 0
v 0 -14 0
v -14 -15 0
v -15 -15 0
v -15 -14 0
v -14 -14 0
v -15 -15 0
v -16 -15 0
v -16 -14 0
v -15 -14 0
v 0 -16 0
v -1 -16 0
v -1 -15 0
v 0 -15 0

# Texture cooridinates (Count = 98)
vt 0.5 0.875
vt 0.5625 0.875
vt 0.5625 0.9375
vt 0.5 0.9375
vt 0.625 0.875
vt 0.625 0.9375
vt 0.6875 0.875
vt 0.6875 0.9375
vt 0.75 0.9375
vt 0.75 1
vt 0.6875 1
vt 0.8125 0.9375
vt 0.8125 1
vt 0.8125 0.75
vt 0.875 0.75
vt 0.875 0.8125
vt 0.8125 0.8125
vt 0.5 0.8125
vt 0.5625 0.8125
vt 0.625 0.8125
vt 0.6875 0.8125
vt 0.1875 0.9375
vt 0.25 0.9375
vt 0.25 1
vt 0.1875 1
vt 0.75 0.875
vt 0.8125 0.875
vt 0.875 0.9375
vt 0.9375 0.9375
vt 0.9375 1
vt 0.875 1
vt 1 0.9375
vt 1 1
vt 0.8125 0.6875
vt 0.875 0.6875
vt 0.5 0.75
vt 0.5625 0.75
vt 0.625 0.75
vt 0.6875 0.75
vt 0.875 0.875
vt 0.9375 0.875
vt 1 0.875
vt 0.5 0.6875
vt 0.5625 0.6875
vt 0.625 0.6875
vt 0.6875 0.6875
vt 0.75 0.8125
vt 0.9375 0.8125
vt 1 0.8125
vt 0.3125 0.0625
vt 0.375 0.0625
vt 0.375 0.125
vt 0.3125 0.125
vt 0.6875 0.5
vt 0.75 0.5
vt 0.75 0.5625
vt 0.6875 0.5625
vt 0.0625 0.0625
vt 0.125 0.0625
vt 0.125 0.125
vt 0.0625 0.125
vt 0.25 0.875
vt 0.3125 0.875
vt 0.3125 0.9375
vt 0.4375 0.3125
vt 0.5 0.3125
vt 0.5 0.375
vt 0.4375 0.375
vt 0.375 0.25
vt 0.4375 0.25
vt 0.375 0.3125
vt 0.5 0.25
vt 0.375 0.1875
vt 0.4375 0.1875
vt 0.5 0.1875
vt 0.4375 0.125
vt 0.5 0.125
vt 0.9375 0.25
vt 1 0.25
vt 1 0.3125
vt 0.9375 0.3125
vt 0 0.25
vt 0.0625 0.25
vt 0.0625 0.3125
vt 0 0.3125
vt 0.125 0.25
vt 0.125 0.3125
vt 0.875 0.1875
vt 0.9375 0.1875
vt 0.875 0.25
vt 1 0.1875
vt 0.875 0.125
vt 0.9375 0.125
vt 1 0.125
vt 0.125 0.875
vt 0.1875 0.875
vt 0.125 0.9375
vt 0.125 1

# Normal
vn 0 0 -1

# Mesh description
g Casa_mesh_0004

# Faces
f 1/1/1 2/2/1 3/3/1 4/4/1
f 5/2/1 6/5/1 7/6/1 8/3/1
f 9/5/1 10/7/1 11/8/1 12/6/1
f 13/8/1 14/9/1 15/10/1 16/11/1
f 17/9/1 18/12/1 19/13/1 20/10/1
f 21/9/1 22/12/1 23/13/1 24/10/1
f 25/9/1 26/12/1 27/13/1 28/10/1
f 29/9/1 30/12/1 31/13/1 32/10/1
f 33/14/1 34/15/1 35/16/1 36/17/1
f 37/18/1 38/19/1 39/2/1 40/1/1
f 41/19/1 42/20/1 43/5/1 44/2/1
f 45/20/1 46/21/1 47/7/1 48/5/1
f 49/22/1 50/23/1 51/24/1 52/25/1
f 53/22/1 54/23/1 55/24/1 56/25/1
f 57/22/1 58/23/1 59/24/1 60/25/1
f 61/7/1 62/26/1 63/9/1 64/8/1
f 65/26/1 66/27/1 67/12/1 68/9/1
f 69/28/1 70/29/1 71/30/1 72/31/1
f 73/29/1 74/32/1 75/33/1 76/30/1
f 77/26/1 78/27/1 79/12/1 80/9/1
f 81/34/1 82/35/1 83/15/1 84/14/1
f 85/36/1 86/37/1 87/19/1 88/18/1
f 89/37/1 90/38/1 91/20/1 92/19/1
f 93/38/1 94/39/1 95/21/1 96/20/1
f 97/7/1 98/26/1 99/9/1 100/8/1
f 101/26/1 102/27/1 103/12/1 104/9/1
f 105/40/1 106/41/1 107/29/1 108/28/1
f 109/41/1 110/42/1 111/32/1 112/29/1
f 113/26/1 114/27/1 115/12/1 116/9/1
f 117/27/1 118/40/1 119/28/1 120/12/1
f 121/43/1 122/44/1 123/37/1 124/36/1
f 125/44/1 126/45/1 127/38/1 128/37/1
f 129/45/1 130/46/1 131/39/1 132/38/1
f 133/21/1 134/47/1 135/26/1 136/7/1
f 137/47/1 138/17/1 139/27/1 140/26/1
f 141/16/1 142/48/1 143/41/1 144/40/1
f 145/48/1 146/49/1 147/42/1 148/41/1
f 149/47/1 150/17/1 151/27/1 152/26/1
f 153/17/1 154/16/1 155/40/1 156/27/1
f 157/50/1 158/51/1 159/52/1 160/53/1
f 161/50/1 162/51/1 163/52/1 164/53/1
f 165/54/1 166/55/1 167/56/1 168/57/1
f 169/58/1 170/59/1 171/60/1 172/61/1
f 173/62/1 174/63/1 175/64/1 176/23/1
f 177/62/1 178/63/1 179/64/1 180/23/1
f 181/22/1 182/23/1 183/24/1 184/25/1
f 185/22/1 186/23/1 187/24/1 188/25/1
f 189/65/1 190/66/1 191/67/1 192/68/1
f 193/22/1 194/23/1 195/24/1 196/25/1
f 197/69/1 198/70/1 199/65/1 200/71/1
f 201/70/1 202/72/1 203/66/1 204/65/1
f 205/73/1 206/74/1 207/70/1 208/69/1
f 209/74/1 210/75/1 211/72/1 212/70/1
f 213/52/1 214/76/1 215/74/1 216/73/1
f 217/76/1 218/77/1 219/75/1 220/74/1
f 221/78/1 222/79/1 223/80/1 224/81/1
f 225/82/1 226/83/1 227/84/1 228/85/1
f 229/83/1 230/86/1 231/87/1 232/84/1
f 233/88/1 234/89/1 235/78/1 236/90/1
f 237/89/1 238/91/1 239/79/1 240/78/1
f 241/88/1 242/89/1 243/78/1 244/90/1
f 245/89/1 246/91/1 247/79/1 248/78/1
f 249/58/1 250/59/1 251/60/1 252/61/1
f 253/92/1 254/93/1 255/89/1 256/88/1
f 257/93/1 258/94/1 259/91/1 260/89/1
f 261/92/1 262/93/1 263/89/1 264/88/1
f 265/93/1 266/94/1 267/91/1 268/89/1
f 269/95/1 270/96/1 271/22/1 272/97/1
f 273/92/1 274/93/1 275/89/1 276/88/1
f 277/93/1 278/94/1 279/91/1 280/89/1
f 281/97/1 282/22/1 283/25/1 284/98/1

