# Tiled2Unity generated file. Do not modify by hand.
# Wavefront file for 'Casa_mesh_0002.obj'

# Vertices (Count = 140)
v 0 -3 0
v -1 -3 0
v -1 -2 0
v 0 -2 0
v -1 -3 0
v -2 -3 0
v -2 -2 0
v -1 -2 0
v -2 -3 0
v -3 -3 0
v -3 -2 0
v -2 -2 0
v -3 -3 0
v -4 -3 0
v -4 -2 0
v -3 -2 0
v -4 -3 0
v -5 -3 0
v -5 -2 0
v -4 -2 0
v -8 -3 0
v -9 -3 0
v -9 -2 0
v -8 -2 0
v -14 -3 0
v -15 -3 0
v -15 -2 0
v -14 -2 0
v -15 -3 0
v -16 -3 0
v -16 -2 0
v -15 -2 0
v 0 -4 0
v -1 -4 0
v -1 -3 0
v 0 -3 0
v -4 -4 0
v -5 -4 0
v -5 -3 0
v -4 -3 0
v -8 -4 0
v -9 -4 0
v -9 -3 0
v -8 -3 0
v -15 -4 0
v -16 -4 0
v -16 -3 0
v -15 -3 0
v 0 -5 0
v -1 -5 0
v -1 -4 0
v 0 -4 0
v -4 -5 0
v -5 -5 0
v -5 -4 0
v -4 -4 0
v -8 -5 0
v -9 -5 0
v -9 -4 0
v -8 -4 0
v -15 -5 0
v -16 -5 0
v -16 -4 0
v -15 -4 0
v 0 -6 0
v -1 -6 0
v -1 -5 0
v 0 -5 0
v -4 -6 0
v -5 -6 0
v -5 -5 0
v -4 -5 0
v -8 -6 0
v -9 -6 0
v -9 -5 0
v -8 -5 0
v -15 -6 0
v -16 -6 0
v -16 -5 0
v -15 -5 0
v -4 -7 0
v -5 -7 0
v -5 -6 0
v -4 -6 0
v -8 -7 0
v -9 -7 0
v -9 -6 0
v -8 -6 0
v -9 -7 0
v -10 -7 0
v -10 -6 0
v -9 -6 0
v -10 -7 0
v -11 -7 0
v -11 -6 0
v -10 -6 0
v -13 -7 0
v -14 -7 0
v -14 -6 0
v -13 -6 0
v -14 -7 0
v -15 -7 0
v -15 -6 0
v -14 -6 0
v -15 -7 0
v -16 -7 0
v -16 -6 0
v -15 -6 0
v 0 -10 0
v -1 -10 0
v -1 -9 0
v 0 -9 0
v -1 -10 0
v -2 -10 0
v -2 -9 0
v -1 -9 0
v -2 -10 0
v -3 -10 0
v -3 -9 0
v -2 -9 0
v -2 -11 0
v -3 -11 0
v -3 -10 0
v -2 -10 0
v -2 -12 0
v -3 -12 0
v -3 -11 0
v -2 -11 0
v -2 -13 0
v -3 -13 0
v -3 -12 0
v -2 -12 0
v -1 -14 0
v -2 -14 0
v -2 -13 0
v -1 -13 0
v -2 -14 0
v -3 -14 0
v -3 -13 0
v -2 -13 0

# Texture cooridinates (Count = 16)
vt 0.6875 0.625
vt 0.75 0.625
vt 0.75 0.6875
vt 0.6875 0.6875
vt 0.8125 0.625
vt 0.8125 0.6875
vt 0.875 0.625
vt 0.875 0.6875
vt 0.6875 0.5625
vt 0.75 0.5625
vt 0.8125 0.5625
vt 0.875 0.5625
vt 0.8125 0.5
vt 0.875 0.5
vt 0.6875 0.5
vt 0.75 0.5

# Normal
vn 0 0 -1

# Mesh description
g Casa_mesh_0002

# Faces
f 1/1/1 2/2/1 3/3/1 4/4/1
f 5/2/1 6/5/1 7/6/1 8/3/1
f 9/2/1 10/5/1 11/6/1 12/3/1
f 13/2/1 14/5/1 15/6/1 16/3/1
f 17/5/1 18/7/1 19/8/1 20/6/1
f 21/1/1 22/2/1 23/3/1 24/4/1
f 25/2/1 26/5/1 27/6/1 28/3/1
f 29/5/1 30/7/1 31/8/1 32/6/1
f 33/9/1 34/10/1 35/2/1 36/1/1
f 37/11/1 38/12/1 39/7/1 40/5/1
f 41/9/1 42/10/1 43/2/1 44/1/1
f 45/11/1 46/12/1 47/7/1 48/5/1
f 49/9/1 50/10/1 51/2/1 52/1/1
f 53/11/1 54/12/1 55/7/1 56/5/1
f 57/9/1 58/10/1 59/2/1 60/1/1
f 61/11/1 62/12/1 63/7/1 64/5/1
f 65/9/1 66/10/1 67/2/1 68/1/1
f 69/11/1 70/12/1 71/7/1 72/5/1
f 73/9/1 74/10/1 75/2/1 76/1/1
f 77/11/1 78/12/1 79/7/1 80/5/1
f 81/13/1 82/14/1 83/12/1 84/11/1
f 85/15/1 86/16/1 87/10/1 88/9/1
f 89/16/1 90/13/1 91/11/1 92/10/1
f 93/16/1 94/13/1 95/11/1 96/10/1
f 97/16/1 98/13/1 99/11/1 100/10/1
f 101/16/1 102/13/1 103/11/1 104/10/1
f 105/13/1 106/14/1 107/12/1 108/11/1
f 109/2/1 110/5/1 111/6/1 112/3/1
f 113/2/1 114/5/1 115/6/1 116/3/1
f 117/5/1 118/7/1 119/8/1 120/6/1
f 121/11/1 122/12/1 123/7/1 124/5/1
f 125/11/1 126/12/1 127/7/1 128/5/1
f 129/11/1 130/12/1 131/7/1 132/5/1
f 133/16/1 134/13/1 135/11/1 136/10/1
f 137/13/1 138/14/1 139/12/1 140/11/1

