# Tiled2Unity generated file. Do not modify by hand.
# Wavefront file for 'BibliotecaNuevaComplete_mesh_0010.obj'

# Vertices (Count = 608)
v -4 -4 0
v -5 -4 0
v -5 -3 0
v -4 -3 0
v -5 -4 0
v -6 -4 0
v -6 -3 0
v -5 -3 0
v -6 -4 0
v -7 -4 0
v -7 -3 0
v -6 -3 0
v -7 -4 0
v -8 -4 0
v -8 -3 0
v -7 -3 0
v -8 -4 0
v -9 -4 0
v -9 -3 0
v -8 -3 0
v -9 -4 0
v -10 -4 0
v -10 -3 0
v -9 -3 0
v -10 -4 0
v -11 -4 0
v -11 -3 0
v -10 -3 0
v -11 -4 0
v -12 -4 0
v -12 -3 0
v -11 -3 0
v -12 -4 0
v -13 -4 0
v -13 -3 0
v -12 -3 0
v -29 -4 0
v -30 -4 0
v -30 -3 0
v -29 -3 0
v -30 -4 0
v -31 -4 0
v -31 -3 0
v -30 -3 0
v -31 -4 0
v -32 -4 0
v -32 -3 0
v -31 -3 0
v -32 -4 0
v -33 -4 0
v -33 -3 0
v -32 -3 0
v -33 -4 0
v -34 -4 0
v -34 -3 0
v -33 -3 0
v -34 -4 0
v -35 -4 0
v -35 -3 0
v -34 -3 0
v -35 -4 0
v -36 -4 0
v -36 -3 0
v -35 -3 0
v -36 -4 0
v -37 -4 0
v -37 -3 0
v -36 -3 0
v -37 -4 0
v -38 -4 0
v -38 -3 0
v -37 -3 0
v -4 -5 0
v -5 -5 0
v -5 -4 0
v -4 -4 0
v -5 -5 0
v -6 -5 0
v -6 -4 0
v -5 -4 0
v -6 -5 0
v -7 -5 0
v -7 -4 0
v -6 -4 0
v -7 -5 0
v -8 -5 0
v -8 -4 0
v -7 -4 0
v -8 -5 0
v -9 -5 0
v -9 -4 0
v -8 -4 0
v -9 -5 0
v -10 -5 0
v -10 -4 0
v -9 -4 0
v -10 -5 0
v -11 -5 0
v -11 -4 0
v -10 -4 0
v -11 -5 0
v -12 -5 0
v -12 -4 0
v -11 -4 0
v -12 -5 0
v -13 -5 0
v -13 -4 0
v -12 -4 0
v -29 -5 0
v -30 -5 0
v -30 -4 0
v -29 -4 0
v -30 -5 0
v -31 -5 0
v -31 -4 0
v -30 -4 0
v -31 -5 0
v -32 -5 0
v -32 -4 0
v -31 -4 0
v -32 -5 0
v -33 -5 0
v -33 -4 0
v -32 -4 0
v -33 -5 0
v -34 -5 0
v -34 -4 0
v -33 -4 0
v -34 -5 0
v -35 -5 0
v -35 -4 0
v -34 -4 0
v -35 -5 0
v -36 -5 0
v -36 -4 0
v -35 -4 0
v -36 -5 0
v -37 -5 0
v -37 -4 0
v -36 -4 0
v -37 -5 0
v -38 -5 0
v -38 -4 0
v -37 -4 0
v -4 -6 0
v -5 -6 0
v -5 -5 0
v -4 -5 0
v -37 -6 0
v -38 -6 0
v -38 -5 0
v -37 -5 0
v -4 -7 0
v -5 -7 0
v -5 -6 0
v -4 -6 0
v -37 -7 0
v -38 -7 0
v -38 -6 0
v -37 -6 0
v -4 -8 0
v -5 -8 0
v -5 -7 0
v -4 -7 0
v -37 -8 0
v -38 -8 0
v -38 -7 0
v -37 -7 0
v -4 -9 0
v -5 -9 0
v -5 -8 0
v -4 -8 0
v -37 -9 0
v -38 -9 0
v -38 -8 0
v -37 -8 0
v -4 -10 0
v -5 -10 0
v -5 -9 0
v -4 -9 0
v -37 -10 0
v -38 -10 0
v -38 -9 0
v -37 -9 0
v -4 -11 0
v -5 -11 0
v -5 -10 0
v -4 -10 0
v -37 -11 0
v -38 -11 0
v -38 -10 0
v -37 -10 0
v -4 -12 0
v -5 -12 0
v -5 -11 0
v -4 -11 0
v -37 -12 0
v -38 -12 0
v -38 -11 0
v -37 -11 0
v -4 -13 0
v -5 -13 0
v -5 -12 0
v -4 -12 0
v -37 -13 0
v -38 -13 0
v -38 -12 0
v -37 -12 0
v -4 -14 0
v -5 -14 0
v -5 -13 0
v -4 -13 0
v -9 -14 0
v -10 -14 0
v -10 -13 0
v -9 -13 0
v -10 -14 0
v -11 -14 0
v -11 -13 0
v -10 -13 0
v -11 -14 0
v -12 -14 0
v -12 -13 0
v -11 -13 0
v -12 -14 0
v -13 -14 0
v -13 -13 0
v -12 -13 0
v -19 -14 0
v -20 -14 0
v -20 -13 0
v -19 -13 0
v -20 -14 0
v -21 -14 0
v -21 -13 0
v -20 -13 0
v -21 -14 0
v -22 -14 0
v -22 -13 0
v -21 -13 0
v -22 -14 0
v -23 -14 0
v -23 -13 0
v -22 -13 0
v -29 -14 0
v -30 -14 0
v -30 -13 0
v -29 -13 0
v -30 -14 0
v -31 -14 0
v -31 -13 0
v -30 -13 0
v -31 -14 0
v -32 -14 0
v -32 -13 0
v -31 -13 0
v -32 -14 0
v -33 -14 0
v -33 -13 0
v -32 -13 0
v -37 -14 0
v -38 -14 0
v -38 -13 0
v -37 -13 0
v -4 -15 0
v -5 -15 0
v -5 -14 0
v -4 -14 0
v -9 -15 0
v -10 -15 0
v -10 -14 0
v -9 -14 0
v -10 -15 0
v -11 -15 0
v -11 -14 0
v -10 -14 0
v -11 -15 0
v -12 -15 0
v -12 -14 0
v -11 -14 0
v -12 -15 0
v -13 -15 0
v -13 -14 0
v -12 -14 0
v -19 -15 0
v -20 -15 0
v -20 -14 0
v -19 -14 0
v -20 -15 0
v -21 -15 0
v -21 -14 0
v -20 -14 0
v -21 -15 0
v -22 -15 0
v -22 -14 0
v -21 -14 0
v -22 -15 0
v -23 -15 0
v -23 -14 0
v -22 -14 0
v -29 -15 0
v -30 -15 0
v -30 -14 0
v -29 -14 0
v -30 -15 0
v -31 -15 0
v -31 -14 0
v -30 -14 0
v -31 -15 0
v -32 -15 0
v -32 -14 0
v -31 -14 0
v -32 -15 0
v -33 -15 0
v -33 -14 0
v -32 -14 0
v -37 -15 0
v -38 -15 0
v -38 -14 0
v -37 -14 0
v -4 -16 0
v -5 -16 0
v -5 -15 0
v -4 -15 0
v -9 -16 0
v -10 -16 0
v -10 -15 0
v -9 -15 0
v -10 -16 0
v -11 -16 0
v -11 -15 0
v -10 -15 0
v -11 -16 0
v -12 -16 0
v -12 -15 0
v -11 -15 0
v -12 -16 0
v -13 -16 0
v -13 -15 0
v -12 -15 0
v -19 -16 0
v -20 -16 0
v -20 -15 0
v -19 -15 0
v -20 -16 0
v -21 -16 0
v -21 -15 0
v -20 -15 0
v -21 -16 0
v -22 -16 0
v -22 -15 0
v -21 -15 0
v -22 -16 0
v -23 -16 0
v -23 -15 0
v -22 -15 0
v -29 -16 0
v -30 -16 0
v -30 -15 0
v -29 -15 0
v -30 -16 0
v -31 -16 0
v -31 -15 0
v -30 -15 0
v -31 -16 0
v -32 -16 0
v -32 -15 0
v -31 -15 0
v -32 -16 0
v -33 -16 0
v -33 -15 0
v -32 -15 0
v -37 -16 0
v -38 -16 0
v -38 -15 0
v -37 -15 0
v -4 -17 0
v -5 -17 0
v -5 -16 0
v -4 -16 0
v -37 -17 0
v -38 -17 0
v -38 -16 0
v -37 -16 0
v -4 -18 0
v -5 -18 0
v -5 -17 0
v -4 -17 0
v -37 -18 0
v -38 -18 0
v -38 -17 0
v -37 -17 0
v -4 -19 0
v -5 -19 0
v -5 -18 0
v -4 -18 0
v -37 -19 0
v -38 -19 0
v -38 -18 0
v -37 -18 0
v -4 -20 0
v -5 -20 0
v -5 -19 0
v -4 -19 0
v -37 -20 0
v -38 -20 0
v -38 -19 0
v -37 -19 0
v -4 -21 0
v -5 -21 0
v -5 -20 0
v -4 -20 0
v -37 -21 0
v -38 -21 0
v -38 -20 0
v -37 -20 0
v -4 -22 0
v -5 -22 0
v -5 -21 0
v -4 -21 0
v -37 -22 0
v -38 -22 0
v -38 -21 0
v -37 -21 0
v -4 -23 0
v -5 -23 0
v -5 -22 0
v -4 -22 0
v -37 -23 0
v -38 -23 0
v -38 -22 0
v -37 -22 0
v -4 -24 0
v -5 -24 0
v -5 -23 0
v -4 -23 0
v -37 -24 0
v -38 -24 0
v -38 -23 0
v -37 -23 0
v -4 -25 0
v -5 -25 0
v -5 -24 0
v -4 -24 0
v -6 -25 0
v -7 -25 0
v -7 -24 0
v -6 -24 0
v -7 -25 0
v -8 -25 0
v -8 -24 0
v -7 -24 0
v -8 -25 0
v -9 -25 0
v -9 -24 0
v -8 -24 0
v -33 -25 0
v -34 -25 0
v -34 -24 0
v -33 -24 0
v -34 -25 0
v -35 -25 0
v -35 -24 0
v -34 -24 0
v -35 -25 0
v -36 -25 0
v -36 -24 0
v -35 -24 0
v -37 -25 0
v -38 -25 0
v -38 -24 0
v -37 -24 0
v -4 -26 0
v -5 -26 0
v -5 -25 0
v -4 -25 0
v -5 -26 0
v -6 -26 0
v -6 -25 0
v -5 -25 0
v -6 -26 0
v -7 -26 0
v -7 -25 0
v -6 -25 0
v -7 -26 0
v -8 -26 0
v -8 -25 0
v -7 -25 0
v -8 -26 0
v -9 -26 0
v -9 -25 0
v -8 -25 0
v -9 -26 0
v -10 -26 0
v -10 -25 0
v -9 -25 0
v -10 -26 0
v -11 -26 0
v -11 -25 0
v -10 -25 0
v -11 -26 0
v -12 -26 0
v -12 -25 0
v -11 -25 0
v -12 -26 0
v -13 -26 0
v -13 -25 0
v -12 -25 0
v -13 -26 0
v -14 -26 0
v -14 -25 0
v -13 -25 0
v -14 -26 0
v -15 -26 0
v -15 -25 0
v -14 -25 0
v -15 -26 0
v -16 -26 0
v -16 -25 0
v -15 -25 0
v -16 -26 0
v -17 -26 0
v -17 -25 0
v -16 -25 0
v -17 -26 0
v -18 -26 0
v -18 -25 0
v -17 -25 0
v -18 -26 0
v -19 -26 0
v -19 -25 0
v -18 -25 0
v -19 -26 0
v -20 -26 0
v -20 -25 0
v -19 -25 0
v -20 -26 0
v -21 -26 0
v -21 -25 0
v -20 -25 0
v -21 -26 0
v -22 -26 0
v -22 -25 0
v -21 -25 0
v -22 -26 0
v -23 -26 0
v -23 -25 0
v -22 -25 0
v -23 -26 0
v -24 -26 0
v -24 -25 0
v -23 -25 0
v -24 -26 0
v -25 -26 0
v -25 -25 0
v -24 -25 0
v -25 -26 0
v -26 -26 0
v -26 -25 0
v -25 -25 0
v -26 -26 0
v -27 -26 0
v -27 -25 0
v -26 -25 0
v -27 -26 0
v -28 -26 0
v -28 -25 0
v -27 -25 0
v -28 -26 0
v -29 -26 0
v -29 -25 0
v -28 -25 0
v -29 -26 0
v -30 -26 0
v -30 -25 0
v -29 -25 0
v -30 -26 0
v -31 -26 0
v -31 -25 0
v -30 -25 0
v -31 -26 0
v -32 -26 0
v -32 -25 0
v -31 -25 0
v -32 -26 0
v -33 -26 0
v -33 -25 0
v -32 -25 0
v -33 -26 0
v -34 -26 0
v -34 -25 0
v -33 -25 0
v -34 -26 0
v -35 -26 0
v -35 -25 0
v -34 -25 0
v -35 -26 0
v -36 -26 0
v -36 -25 0
v -35 -25 0
v -36 -26 0
v -37 -26 0
v -37 -25 0
v -36 -25 0
v -37 -26 0
v -38 -26 0
v -38 -25 0
v -37 -25 0

# Texture cooridinates (Count = 16)
vt 0.3161157 0.6463878
vt 0.3326446 0.6463878
vt 0.3326446 0.6768061
vt 0.3161157 0.6768061
vt 0.2283058 0.6463878
vt 0.2448347 0.6463878
vt 0.2448347 0.6768061
vt 0.2283058 0.6768061
vt 0.2458678 0.6463878
vt 0.2623967 0.6463878
vt 0.2623967 0.6768061
vt 0.2458678 0.6768061
vt 0.2458678 0.6787072
vt 0.2623967 0.6787072
vt 0.2623967 0.7091255
vt 0.2458678 0.7091255

# Normal
vn 0 0 -1

# Mesh description
g BibliotecaNuevaComplete_mesh_0010

# Faces
f 1/1/1 2/2/1 3/3/1 4/4/1
f 5/1/1 6/2/1 7/3/1 8/4/1
f 9/1/1 10/2/1 11/3/1 12/4/1
f 13/1/1 14/2/1 15/3/1 16/4/1
f 17/1/1 18/2/1 19/3/1 20/4/1
f 21/1/1 22/2/1 23/3/1 24/4/1
f 25/1/1 26/2/1 27/3/1 28/4/1
f 29/1/1 30/2/1 31/3/1 32/4/1
f 33/1/1 34/2/1 35/3/1 36/4/1
f 37/1/1 38/2/1 39/3/1 40/4/1
f 41/1/1 42/2/1 43/3/1 44/4/1
f 45/1/1 46/2/1 47/3/1 48/4/1
f 49/1/1 50/2/1 51/3/1 52/4/1
f 53/1/1 54/2/1 55/3/1 56/4/1
f 57/1/1 58/2/1 59/3/1 60/4/1
f 61/1/1 62/2/1 63/3/1 64/4/1
f 65/1/1 66/2/1 67/3/1 68/4/1
f 69/1/1 70/2/1 71/3/1 72/4/1
f 73/1/1 74/2/1 75/3/1 76/4/1
f 77/1/1 78/2/1 79/3/1 80/4/1
f 81/1/1 82/2/1 83/3/1 84/4/1
f 85/1/1 86/2/1 87/3/1 88/4/1
f 89/1/1 90/2/1 91/3/1 92/4/1
f 93/1/1 94/2/1 95/3/1 96/4/1
f 97/1/1 98/2/1 99/3/1 100/4/1
f 101/1/1 102/2/1 103/3/1 104/4/1
f 105/1/1 106/2/1 107/3/1 108/4/1
f 109/1/1 110/2/1 111/3/1 112/4/1
f 113/1/1 114/2/1 115/3/1 116/4/1
f 117/1/1 118/2/1 119/3/1 120/4/1
f 121/1/1 122/2/1 123/3/1 124/4/1
f 125/1/1 126/2/1 127/3/1 128/4/1
f 129/1/1 130/2/1 131/3/1 132/4/1
f 133/1/1 134/2/1 135/3/1 136/4/1
f 137/1/1 138/2/1 139/3/1 140/4/1
f 141/1/1 142/2/1 143/3/1 144/4/1
f 145/1/1 146/2/1 147/3/1 148/4/1
f 149/1/1 150/2/1 151/3/1 152/4/1
f 153/1/1 154/2/1 155/3/1 156/4/1
f 157/1/1 158/2/1 159/3/1 160/4/1
f 161/1/1 162/2/1 163/3/1 164/4/1
f 165/1/1 166/2/1 167/3/1 168/4/1
f 169/1/1 170/2/1 171/3/1 172/4/1
f 173/1/1 174/2/1 175/3/1 176/4/1
f 177/1/1 178/2/1 179/3/1 180/4/1
f 181/1/1 182/2/1 183/3/1 184/4/1
f 185/1/1 186/2/1 187/3/1 188/4/1
f 189/1/1 190/2/1 191/3/1 192/4/1
f 193/1/1 194/2/1 195/3/1 196/4/1
f 197/1/1 198/2/1 199/3/1 200/4/1
f 201/1/1 202/2/1 203/3/1 204/4/1
f 205/1/1 206/2/1 207/3/1 208/4/1
f 209/1/1 210/2/1 211/3/1 212/4/1
f 213/5/1 214/6/1 215/7/1 216/8/1
f 217/5/1 218/6/1 219/7/1 220/8/1
f 221/5/1 222/6/1 223/7/1 224/8/1
f 225/5/1 226/6/1 227/7/1 228/8/1
f 229/5/1 230/6/1 231/7/1 232/8/1
f 233/5/1 234/6/1 235/7/1 236/8/1
f 237/5/1 238/6/1 239/7/1 240/8/1
f 241/5/1 242/6/1 243/7/1 244/8/1
f 245/5/1 246/6/1 247/7/1 248/8/1
f 249/5/1 250/6/1 251/7/1 252/8/1
f 253/5/1 254/6/1 255/7/1 256/8/1
f 257/5/1 258/6/1 259/7/1 260/8/1
f 261/1/1 262/2/1 263/3/1 264/4/1
f 265/1/1 266/2/1 267/3/1 268/4/1
f 269/9/1 270/10/1 271/11/1 272/12/1
f 273/9/1 274/10/1 275/11/1 276/12/1
f 277/9/1 278/10/1 279/11/1 280/12/1
f 281/9/1 282/10/1 283/11/1 284/12/1
f 285/9/1 286/10/1 287/11/1 288/12/1
f 289/9/1 290/10/1 291/11/1 292/12/1
f 293/9/1 294/10/1 295/11/1 296/12/1
f 297/9/1 298/10/1 299/11/1 300/12/1
f 301/9/1 302/10/1 303/11/1 304/12/1
f 305/9/1 306/10/1 307/11/1 308/12/1
f 309/9/1 310/10/1 311/11/1 312/12/1
f 313/9/1 314/10/1 315/11/1 316/12/1
f 317/1/1 318/2/1 319/3/1 320/4/1
f 321/1/1 322/2/1 323/3/1 324/4/1
f 325/5/1 326/6/1 327/7/1 328/8/1
f 329/5/1 330/6/1 331/7/1 332/8/1
f 333/5/1 334/6/1 335/7/1 336/8/1
f 337/5/1 338/6/1 339/7/1 340/8/1
f 341/5/1 342/6/1 343/7/1 344/8/1
f 345/5/1 346/6/1 347/7/1 348/8/1
f 349/5/1 350/6/1 351/7/1 352/8/1
f 353/5/1 354/6/1 355/7/1 356/8/1
f 357/5/1 358/6/1 359/7/1 360/8/1
f 361/5/1 362/6/1 363/7/1 364/8/1
f 365/5/1 366/6/1 367/7/1 368/8/1
f 369/5/1 370/6/1 371/7/1 372/8/1
f 373/1/1 374/2/1 375/3/1 376/4/1
f 377/1/1 378/2/1 379/3/1 380/4/1
f 381/1/1 382/2/1 383/3/1 384/4/1
f 385/1/1 386/2/1 387/3/1 388/4/1
f 389/1/1 390/2/1 391/3/1 392/4/1
f 393/1/1 394/2/1 395/3/1 396/4/1
f 397/1/1 398/2/1 399/3/1 400/4/1
f 401/1/1 402/2/1 403/3/1 404/4/1
f 405/1/1 406/2/1 407/3/1 408/4/1
f 409/1/1 410/2/1 411/3/1 412/4/1
f 413/1/1 414/2/1 415/3/1 416/4/1
f 417/1/1 418/2/1 419/3/1 420/4/1
f 421/1/1 422/2/1 423/3/1 424/4/1
f 425/1/1 426/2/1 427/3/1 428/4/1
f 429/1/1 430/2/1 431/3/1 432/4/1
f 433/1/1 434/2/1 435/3/1 436/4/1
f 437/1/1 438/2/1 439/3/1 440/4/1
f 441/1/1 442/2/1 443/3/1 444/4/1
f 445/13/1 446/14/1 447/15/1 448/16/1
f 449/13/1 450/14/1 451/15/1 452/16/1
f 453/13/1 454/14/1 455/15/1 456/16/1
f 457/13/1 458/14/1 459/15/1 460/16/1
f 461/13/1 462/14/1 463/15/1 464/16/1
f 465/13/1 466/14/1 467/15/1 468/16/1
f 469/1/1 470/2/1 471/3/1 472/4/1
f 473/1/1 474/2/1 475/3/1 476/4/1
f 477/1/1 478/2/1 479/3/1 480/4/1
f 481/1/1 482/2/1 483/3/1 484/4/1
f 485/1/1 486/2/1 487/3/1 488/4/1
f 489/1/1 490/2/1 491/3/1 492/4/1
f 493/1/1 494/2/1 495/3/1 496/4/1
f 497/1/1 498/2/1 499/3/1 500/4/1
f 501/1/1 502/2/1 503/3/1 504/4/1
f 505/1/1 506/2/1 507/3/1 508/4/1
f 509/1/1 510/2/1 511/3/1 512/4/1
f 513/1/1 514/2/1 515/3/1 516/4/1
f 517/1/1 518/2/1 519/3/1 520/4/1
f 521/1/1 522/2/1 523/3/1 524/4/1
f 525/1/1 526/2/1 527/3/1 528/4/1
f 529/1/1 530/2/1 531/3/1 532/4/1
f 533/1/1 534/2/1 535/3/1 536/4/1
f 537/1/1 538/2/1 539/3/1 540/4/1
f 541/1/1 542/2/1 543/3/1 544/4/1
f 545/1/1 546/2/1 547/3/1 548/4/1
f 549/1/1 550/2/1 551/3/1 552/4/1
f 553/1/1 554/2/1 555/3/1 556/4/1
f 557/1/1 558/2/1 559/3/1 560/4/1
f 561/1/1 562/2/1 563/3/1 564/4/1
f 565/1/1 566/2/1 567/3/1 568/4/1
f 569/1/1 570/2/1 571/3/1 572/4/1
f 573/1/1 574/2/1 575/3/1 576/4/1
f 577/1/1 578/2/1 579/3/1 580/4/1
f 581/1/1 582/2/1 583/3/1 584/4/1
f 585/1/1 586/2/1 587/3/1 588/4/1
f 589/1/1 590/2/1 591/3/1 592/4/1
f 593/1/1 594/2/1 595/3/1 596/4/1
f 597/1/1 598/2/1 599/3/1 600/4/1
f 601/1/1 602/2/1 603/3/1 604/4/1
f 605/1/1 606/2/1 607/3/1 608/4/1

