# Tiled2Unity generated file. Do not modify by hand.
# Wavefront file for 'BibliotecaNuevaComplete_mesh_0004.obj'

# Vertices (Count = 108)
v -13 -1 0
v -14 -1 0
v -14 0 0
v -13 0 0
v -28 -1 0
v -29 -1 0
v -29 0 0
v -28 0 0
v -13 -2 0
v -14 -2 0
v -14 -1 0
v -13 -1 0
v -28 -2 0
v -29 -2 0
v -29 -1 0
v -28 -1 0
v -13 -3 0
v -14 -3 0
v -14 -2 0
v -13 -2 0
v -28 -3 0
v -29 -3 0
v -29 -2 0
v -28 -2 0
v -13 -4 0
v -14 -4 0
v -14 -3 0
v -13 -3 0
v -28 -4 0
v -29 -4 0
v -29 -3 0
v -28 -3 0
v -13 -5 0
v -14 -5 0
v -14 -4 0
v -13 -4 0
v -28 -5 0
v -29 -5 0
v -29 -4 0
v -28 -4 0
v -28 -6 0
v -29 -6 0
v -29 -5 0
v -28 -5 0
v -13 -7 0
v -14 -7 0
v -14 -6 0
v -13 -6 0
v -14 -7 0
v -15 -7 0
v -15 -6 0
v -14 -6 0
v -15 -7 0
v -16 -7 0
v -16 -6 0
v -15 -6 0
v -16 -7 0
v -17 -7 0
v -17 -6 0
v -16 -6 0
v -17 -7 0
v -18 -7 0
v -18 -6 0
v -17 -6 0
v -18 -7 0
v -19 -7 0
v -19 -6 0
v -18 -6 0
v -19 -7 0
v -20 -7 0
v -20 -6 0
v -19 -6 0
v -20 -7 0
v -21 -7 0
v -21 -6 0
v -20 -6 0
v -21 -7 0
v -22 -7 0
v -22 -6 0
v -21 -6 0
v -22 -7 0
v -23 -7 0
v -23 -6 0
v -22 -6 0
v -23 -7 0
v -24 -7 0
v -24 -6 0
v -23 -6 0
v -24 -7 0
v -25 -7 0
v -25 -6 0
v -24 -6 0
v -25 -7 0
v -26 -7 0
v -26 -6 0
v -25 -6 0
v -26 -7 0
v -27 -7 0
v -27 -6 0
v -26 -6 0
v -27 -7 0
v -28 -7 0
v -28 -6 0
v -27 -6 0
v -28 -7 0
v -29 -7 0
v -29 -6 0
v -28 -6 0

# Texture cooridinates (Count = 8)
vt 0.2885802 0.03578949
vt 0.3132716 0.03578949
vt 0.3132716 0.06947368
vt 0.2885802 0.06947368
vt 0.02623457 0.03578949
vt 0.05092593 0.03578949
vt 0.05092593 0.06947368
vt 0.02623457 0.06947368

# Normal
vn 0 0 -1

# Mesh description
g BibliotecaNuevaComplete_mesh_0004

# Faces
f 1/1/1 2/2/1 3/3/1 4/4/1
f 5/1/1 6/2/1 7/3/1 8/4/1
f 9/1/1 10/2/1 11/3/1 12/4/1
f 13/1/1 14/2/1 15/3/1 16/4/1
f 17/1/1 18/2/1 19/3/1 20/4/1
f 21/1/1 22/2/1 23/3/1 24/4/1
f 25/1/1 26/2/1 27/3/1 28/4/1
f 29/1/1 30/2/1 31/3/1 32/4/1
f 33/5/1 34/6/1 35/7/1 36/8/1
f 37/5/1 38/6/1 39/7/1 40/8/1
f 41/5/1 42/6/1 43/7/1 44/8/1
f 45/5/1 46/6/1 47/7/1 48/8/1
f 49/5/1 50/6/1 51/7/1 52/8/1
f 53/5/1 54/6/1 55/7/1 56/8/1
f 57/5/1 58/6/1 59/7/1 60/8/1
f 61/5/1 62/6/1 63/7/1 64/8/1
f 65/5/1 66/6/1 67/7/1 68/8/1
f 69/5/1 70/6/1 71/7/1 72/8/1
f 73/5/1 74/6/1 75/7/1 76/8/1
f 77/5/1 78/6/1 79/7/1 80/8/1
f 81/5/1 82/6/1 83/7/1 84/8/1
f 85/5/1 86/6/1 87/7/1 88/8/1
f 89/5/1 90/6/1 91/7/1 92/8/1
f 93/5/1 94/6/1 95/7/1 96/8/1
f 97/5/1 98/6/1 99/7/1 100/8/1
f 101/5/1 102/6/1 103/7/1 104/8/1
f 105/5/1 106/6/1 107/7/1 108/8/1

