# Tiled2Unity generated file. Do not modify by hand.
# Wavefront file for 'BibliotecaNuevaComplete_mesh_0006.obj'

# Vertices (Count = 340)
v -13 -1 0
v -14 -1 0
v -14 0 0
v -13 0 0
v -28 -1 0
v -29 -1 0
v -29 0 0
v -28 0 0
v -13 -3 0
v -14 -3 0
v -14 -2 0
v -13 -2 0
v -28 -3 0
v -29 -3 0
v -29 -2 0
v -28 -2 0
v -13 -5 0
v -14 -5 0
v -14 -4 0
v -13 -4 0
v -28 -5 0
v -29 -5 0
v -29 -4 0
v -28 -4 0
v -28 -6 0
v -29 -6 0
v -29 -5 0
v -28 -5 0
v -14 -7 0
v -15 -7 0
v -15 -6 0
v -14 -6 0
v -17 -7 0
v -18 -7 0
v -18 -6 0
v -17 -6 0
v -19 -7 0
v -20 -7 0
v -20 -6 0
v -19 -6 0
v -23 -7 0
v -24 -7 0
v -24 -6 0
v -23 -6 0
v -25 -7 0
v -26 -7 0
v -26 -6 0
v -25 -6 0
v -27 -7 0
v -28 -7 0
v -28 -6 0
v -27 -6 0
v -6 -10 0
v -7 -10 0
v -7 -9 0
v -6 -9 0
v -7 -10 0
v -8 -10 0
v -8 -9 0
v -7 -9 0
v -8 -10 0
v -9 -10 0
v -9 -9 0
v -8 -9 0
v -15 -10 0
v -16 -10 0
v -16 -9 0
v -15 -9 0
v -16 -10 0
v -17 -10 0
v -17 -9 0
v -16 -9 0
v -17 -10 0
v -18 -10 0
v -18 -9 0
v -17 -9 0
v -24 -10 0
v -25 -10 0
v -25 -9 0
v -24 -9 0
v -25 -10 0
v -26 -10 0
v -26 -9 0
v -25 -9 0
v -26 -10 0
v -27 -10 0
v -27 -9 0
v -26 -9 0
v -33 -10 0
v -34 -10 0
v -34 -9 0
v -33 -9 0
v -34 -10 0
v -35 -10 0
v -35 -9 0
v -34 -9 0
v -35 -10 0
v -36 -10 0
v -36 -9 0
v -35 -9 0
v -6 -11 0
v -7 -11 0
v -7 -10 0
v -6 -10 0
v -7 -11 0
v -8 -11 0
v -8 -10 0
v -7 -10 0
v -8 -11 0
v -9 -11 0
v -9 -10 0
v -8 -10 0
v -15 -11 0
v -16 -11 0
v -16 -10 0
v -15 -10 0
v -16 -11 0
v -17 -11 0
v -17 -10 0
v -16 -10 0
v -17 -11 0
v -18 -11 0
v -18 -10 0
v -17 -10 0
v -24 -11 0
v -25 -11 0
v -25 -10 0
v -24 -10 0
v -25 -11 0
v -26 -11 0
v -26 -10 0
v -25 -10 0
v -26 -11 0
v -27 -11 0
v -27 -10 0
v -26 -10 0
v -33 -11 0
v -34 -11 0
v -34 -10 0
v -33 -10 0
v -34 -11 0
v -35 -11 0
v -35 -10 0
v -34 -10 0
v -35 -11 0
v -36 -11 0
v -36 -10 0
v -35 -10 0
v -6 -12 0
v -7 -12 0
v -7 -11 0
v -6 -11 0
v -7 -12 0
v -8 -12 0
v -8 -11 0
v -7 -11 0
v -8 -12 0
v -9 -12 0
v -9 -11 0
v -8 -11 0
v -15 -12 0
v -16 -12 0
v -16 -11 0
v -15 -11 0
v -16 -12 0
v -17 -12 0
v -17 -11 0
v -16 -11 0
v -17 -12 0
v -18 -12 0
v -18 -11 0
v -17 -11 0
v -24 -12 0
v -25 -12 0
v -25 -11 0
v -24 -11 0
v -25 -12 0
v -26 -12 0
v -26 -11 0
v -25 -11 0
v -26 -12 0
v -27 -12 0
v -27 -11 0
v -26 -11 0
v -33 -12 0
v -34 -12 0
v -34 -11 0
v -33 -11 0
v -34 -12 0
v -35 -12 0
v -35 -11 0
v -34 -11 0
v -35 -12 0
v -36 -12 0
v -36 -11 0
v -35 -11 0
v -6 -20 0
v -7 -20 0
v -7 -19 0
v -6 -19 0
v -7 -20 0
v -8 -20 0
v -8 -19 0
v -7 -19 0
v -8 -20 0
v -9 -20 0
v -9 -19 0
v -8 -19 0
v -15 -20 0
v -16 -20 0
v -16 -19 0
v -15 -19 0
v -16 -20 0
v -17 -20 0
v -17 -19 0
v -16 -19 0
v -17 -20 0
v -18 -20 0
v -18 -19 0
v -17 -19 0
v -24 -20 0
v -25 -20 0
v -25 -19 0
v -24 -19 0
v -25 -20 0
v -26 -20 0
v -26 -19 0
v -25 -19 0
v -26 -20 0
v -27 -20 0
v -27 -19 0
v -26 -19 0
v -33 -20 0
v -34 -20 0
v -34 -19 0
v -33 -19 0
v -34 -20 0
v -35 -20 0
v -35 -19 0
v -34 -19 0
v -35 -20 0
v -36 -20 0
v -36 -19 0
v -35 -19 0
v -6 -21 0
v -7 -21 0
v -7 -20 0
v -6 -20 0
v -7 -21 0
v -8 -21 0
v -8 -20 0
v -7 -20 0
v -8 -21 0
v -9 -21 0
v -9 -20 0
v -8 -20 0
v -15 -21 0
v -16 -21 0
v -16 -20 0
v -15 -20 0
v -16 -21 0
v -17 -21 0
v -17 -20 0
v -16 -20 0
v -17 -21 0
v -18 -21 0
v -18 -20 0
v -17 -20 0
v -24 -21 0
v -25 -21 0
v -25 -20 0
v -24 -20 0
v -25 -21 0
v -26 -21 0
v -26 -20 0
v -25 -20 0
v -26 -21 0
v -27 -21 0
v -27 -20 0
v -26 -20 0
v -33 -21 0
v -34 -21 0
v -34 -20 0
v -33 -20 0
v -34 -21 0
v -35 -21 0
v -35 -20 0
v -34 -20 0
v -35 -21 0
v -36 -21 0
v -36 -20 0
v -35 -20 0
v -6 -22 0
v -7 -22 0
v -7 -21 0
v -6 -21 0
v -7 -22 0
v -8 -22 0
v -8 -21 0
v -7 -21 0
v -8 -22 0
v -9 -22 0
v -9 -21 0
v -8 -21 0
v -15 -22 0
v -16 -22 0
v -16 -21 0
v -15 -21 0
v -16 -22 0
v -17 -22 0
v -17 -21 0
v -16 -21 0
v -17 -22 0
v -18 -22 0
v -18 -21 0
v -17 -21 0
v -24 -22 0
v -25 -22 0
v -25 -21 0
v -24 -21 0
v -25 -22 0
v -26 -22 0
v -26 -21 0
v -25 -21 0
v -26 -22 0
v -27 -22 0
v -27 -21 0
v -26 -21 0
v -33 -22 0
v -34 -22 0
v -34 -21 0
v -33 -21 0
v -34 -22 0
v -35 -22 0
v -35 -21 0
v -34 -21 0
v -35 -22 0
v -36 -22 0
v -36 -21 0
v -35 -21 0

# Texture cooridinates (Count = 64)
vt 0.4390496 0.6140684
vt 0.4555785 0.6140684
vt 0.4555785 0.6444867
vt 0.4390496 0.6444867
vt 0.4917355 0.6787072
vt 0.5082645 0.6787072
vt 0.5082645 0.7091255
vt 0.4917355 0.7091255
vt 0.5092975 0.6787072
vt 0.5258265 0.6787072
vt 0.5258265 0.7091255
vt 0.5092975 0.7091255
vt 0.3863636 0.6463878
vt 0.4028926 0.6463878
vt 0.4028926 0.6768061
vt 0.3863636 0.6768061
vt 0.5444215 0.6787072
vt 0.5609504 0.6787072
vt 0.5609504 0.7091255
vt 0.5444215 0.7091255
vt 0.5268595 0.6787072
vt 0.5433884 0.6787072
vt 0.5433884 0.7091255
vt 0.5268595 0.7091255
vt 0.3863636 0.6140684
vt 0.4028926 0.6140684
vt 0.4028926 0.6444867
vt 0.3863636 0.6444867
vt 0.1229339 0.6787072
vt 0.1394628 0.6787072
vt 0.1394628 0.7091255
vt 0.1229339 0.7091255
vt 0.1404959 0.6787072
vt 0.1570248 0.6787072
vt 0.1570248 0.7091255
vt 0.1404959 0.7091255
vt 0.1580579 0.6787072
vt 0.1745868 0.6787072
vt 0.1745868 0.7091255
vt 0.1580579 0.7091255
vt 0.1229339 0.6463878
vt 0.1394628 0.6463878
vt 0.1394628 0.6768061
vt 0.1229339 0.6768061
vt 0.1404959 0.6463878
vt 0.1570248 0.6463878
vt 0.1570248 0.6768061
vt 0.1404959 0.6768061
vt 0.1580579 0.6463878
vt 0.1745868 0.6463878
vt 0.1745868 0.6768061
vt 0.1580579 0.6768061
vt 0.1229339 0.6140684
vt 0.1394628 0.6140684
vt 0.1394628 0.6444867
vt 0.1229339 0.6444867
vt 0.1404959 0.6140684
vt 0.1570248 0.6140684
vt 0.1570248 0.6444867
vt 0.1404959 0.6444867
vt 0.1580579 0.6140684
vt 0.1745868 0.6140684
vt 0.1745868 0.6444867
vt 0.1580579 0.6444867

# Normal
vn 0 0 -1

# Mesh description
g BibliotecaNuevaComplete_mesh_0006

# Faces
f 1/1/1 2/2/1 3/3/1 4/4/1
f 5/1/1 6/2/1 7/3/1 8/4/1
f 9/5/1 10/6/1 11/7/1 12/8/1
f 13/5/1 14/6/1 15/7/1 16/8/1
f 17/9/1 18/10/1 19/11/1 20/12/1
f 21/9/1 22/10/1 23/11/1 24/12/1
f 25/13/1 26/14/1 27/15/1 28/16/1
f 29/17/1 30/18/1 31/19/1 32/20/1
f 33/21/1 34/22/1 35/23/1 36/24/1
f 37/25/1 38/26/1 39/27/1 40/28/1
f 41/13/1 42/14/1 43/15/1 44/16/1
f 45/21/1 46/22/1 47/23/1 48/24/1
f 49/17/1 50/18/1 51/19/1 52/20/1
f 53/29/1 54/30/1 55/31/1 56/32/1
f 57/33/1 58/34/1 59/35/1 60/36/1
f 61/37/1 62/38/1 63/39/1 64/40/1
f 65/29/1 66/30/1 67/31/1 68/32/1
f 69/33/1 70/34/1 71/35/1 72/36/1
f 73/37/1 74/38/1 75/39/1 76/40/1
f 77/29/1 78/30/1 79/31/1 80/32/1
f 81/33/1 82/34/1 83/35/1 84/36/1
f 85/37/1 86/38/1 87/39/1 88/40/1
f 89/29/1 90/30/1 91/31/1 92/32/1
f 93/33/1 94/34/1 95/35/1 96/36/1
f 97/37/1 98/38/1 99/39/1 100/40/1
f 101/41/1 102/42/1 103/43/1 104/44/1
f 105/45/1 106/46/1 107/47/1 108/48/1
f 109/49/1 110/50/1 111/51/1 112/52/1
f 113/41/1 114/42/1 115/43/1 116/44/1
f 117/45/1 118/46/1 119/47/1 120/48/1
f 121/49/1 122/50/1 123/51/1 124/52/1
f 125/41/1 126/42/1 127/43/1 128/44/1
f 129/45/1 130/46/1 131/47/1 132/48/1
f 133/49/1 134/50/1 135/51/1 136/52/1
f 137/41/1 138/42/1 139/43/1 140/44/1
f 141/45/1 142/46/1 143/47/1 144/48/1
f 145/49/1 146/50/1 147/51/1 148/52/1
f 149/53/1 150/54/1 151/55/1 152/56/1
f 153/57/1 154/58/1 155/59/1 156/60/1
f 157/61/1 158/62/1 159/63/1 160/64/1
f 161/53/1 162/54/1 163/55/1 164/56/1
f 165/57/1 166/58/1 167/59/1 168/60/1
f 169/61/1 170/62/1 171/63/1 172/64/1
f 173/53/1 174/54/1 175/55/1 176/56/1
f 177/57/1 178/58/1 179/59/1 180/60/1
f 181/61/1 182/62/1 183/63/1 184/64/1
f 185/53/1 186/54/1 187/55/1 188/56/1
f 189/57/1 190/58/1 191/59/1 192/60/1
f 193/61/1 194/62/1 195/63/1 196/64/1
f 197/29/1 198/30/1 199/31/1 200/32/1
f 201/33/1 202/34/1 203/35/1 204/36/1
f 205/37/1 206/38/1 207/39/1 208/40/1
f 209/29/1 210/30/1 211/31/1 212/32/1
f 213/33/1 214/34/1 215/35/1 216/36/1
f 217/37/1 218/38/1 219/39/1 220/40/1
f 221/29/1 222/30/1 223/31/1 224/32/1
f 225/33/1 226/34/1 227/35/1 228/36/1
f 229/37/1 230/38/1 231/39/1 232/40/1
f 233/29/1 234/30/1 235/31/1 236/32/1
f 237/33/1 238/34/1 239/35/1 240/36/1
f 241/37/1 242/38/1 243/39/1 244/40/1
f 245/41/1 246/42/1 247/43/1 248/44/1
f 249/45/1 250/46/1 251/47/1 252/48/1
f 253/49/1 254/50/1 255/51/1 256/52/1
f 257/41/1 258/42/1 259/43/1 260/44/1
f 261/45/1 262/46/1 263/47/1 264/48/1
f 265/49/1 266/50/1 267/51/1 268/52/1
f 269/41/1 270/42/1 271/43/1 272/44/1
f 273/45/1 274/46/1 275/47/1 276/48/1
f 277/49/1 278/50/1 279/51/1 280/52/1
f 281/41/1 282/42/1 283/43/1 284/44/1
f 285/45/1 286/46/1 287/47/1 288/48/1
f 289/49/1 290/50/1 291/51/1 292/52/1
f 293/53/1 294/54/1 295/55/1 296/56/1
f 297/57/1 298/58/1 299/59/1 300/60/1
f 301/61/1 302/62/1 303/63/1 304/64/1
f 305/53/1 306/54/1 307/55/1 308/56/1
f 309/57/1 310/58/1 311/59/1 312/60/1
f 313/61/1 314/62/1 315/63/1 316/64/1
f 317/53/1 318/54/1 319/55/1 320/56/1
f 321/57/1 322/58/1 323/59/1 324/60/1
f 325/61/1 326/62/1 327/63/1 328/64/1
f 329/53/1 330/54/1 331/55/1 332/56/1
f 333/57/1 334/58/1 335/59/1 336/60/1
f 337/61/1 338/62/1 339/63/1 340/64/1

