# Tiled2Unity generated file. Do not modify by hand.
# Wavefront file for 'BibliotecaNuevaComplete_mesh_0006.obj'

# Vertices (Count = 684)
v 0 -1 0
v -1 -1 0
v -1 0 0
v 0 0 0
v -1 -1 0
v -2 -1 0
v -2 0 0
v -1 0 0
v -2 -1 0
v -3 -1 0
v -3 0 0
v -2 0 0
v -3 -1 0
v -4 -1 0
v -4 0 0
v -3 0 0
v -4 -1 0
v -5 -1 0
v -5 0 0
v -4 0 0
v -5 -1 0
v -6 -1 0
v -6 0 0
v -5 0 0
v -6 -1 0
v -7 -1 0
v -7 0 0
v -6 0 0
v -7 -1 0
v -8 -1 0
v -8 0 0
v -7 0 0
v -8 -1 0
v -9 -1 0
v -9 0 0
v -8 0 0
v -9 -1 0
v -10 -1 0
v -10 0 0
v -9 0 0
v -10 -1 0
v -11 -1 0
v -11 0 0
v -10 0 0
v -11 -1 0
v -12 -1 0
v -12 0 0
v -11 0 0
v -12 -1 0
v -13 -1 0
v -13 0 0
v -12 0 0
v -13 -1 0
v -14 -1 0
v -14 0 0
v -13 0 0
v -28 -1 0
v -29 -1 0
v -29 0 0
v -28 0 0
v -29 -1 0
v -30 -1 0
v -30 0 0
v -29 0 0
v -30 -1 0
v -31 -1 0
v -31 0 0
v -30 0 0
v -31 -1 0
v -32 -1 0
v -32 0 0
v -31 0 0
v -32 -1 0
v -33 -1 0
v -33 0 0
v -32 0 0
v -33 -1 0
v -34 -1 0
v -34 0 0
v -33 0 0
v -34 -1 0
v -35 -1 0
v -35 0 0
v -34 0 0
v -35 -1 0
v -36 -1 0
v -36 0 0
v -35 0 0
v -36 -1 0
v -37 -1 0
v -37 0 0
v -36 0 0
v -37 -1 0
v -38 -1 0
v -38 0 0
v -37 0 0
v -38 -1 0
v -39 -1 0
v -39 0 0
v -38 0 0
v -39 -1 0
v -40 -1 0
v -40 0 0
v -39 0 0
v -40 -1 0
v -41 -1 0
v -41 0 0
v -40 0 0
v -41 -1 0
v -42 -1 0
v -42 0 0
v -41 0 0
v 0 -2 0
v -1 -2 0
v -1 -1 0
v 0 -1 0
v -1 -2 0
v -2 -2 0
v -2 -1 0
v -1 -1 0
v -2 -2 0
v -3 -2 0
v -3 -1 0
v -2 -1 0
v -3 -2 0
v -4 -2 0
v -4 -1 0
v -3 -1 0
v -4 -2 0
v -5 -2 0
v -5 -1 0
v -4 -1 0
v -5 -2 0
v -6 -2 0
v -6 -1 0
v -5 -1 0
v -6 -2 0
v -7 -2 0
v -7 -1 0
v -6 -1 0
v -7 -2 0
v -8 -2 0
v -8 -1 0
v -7 -1 0
v -8 -2 0
v -9 -2 0
v -9 -1 0
v -8 -1 0
v -9 -2 0
v -10 -2 0
v -10 -1 0
v -9 -1 0
v -10 -2 0
v -11 -2 0
v -11 -1 0
v -10 -1 0
v -11 -2 0
v -12 -2 0
v -12 -1 0
v -11 -1 0
v -12 -2 0
v -13 -2 0
v -13 -1 0
v -12 -1 0
v -13 -2 0
v -14 -2 0
v -14 -1 0
v -13 -1 0
v -28 -2 0
v -29 -2 0
v -29 -1 0
v -28 -1 0
v -29 -2 0
v -30 -2 0
v -30 -1 0
v -29 -1 0
v -30 -2 0
v -31 -2 0
v -31 -1 0
v -30 -1 0
v -31 -2 0
v -32 -2 0
v -32 -1 0
v -31 -1 0
v -32 -2 0
v -33 -2 0
v -33 -1 0
v -32 -1 0
v -33 -2 0
v -34 -2 0
v -34 -1 0
v -33 -1 0
v -34 -2 0
v -35 -2 0
v -35 -1 0
v -34 -1 0
v -35 -2 0
v -36 -2 0
v -36 -1 0
v -35 -1 0
v -36 -2 0
v -37 -2 0
v -37 -1 0
v -36 -1 0
v -37 -2 0
v -38 -2 0
v -38 -1 0
v -37 -1 0
v -38 -2 0
v -39 -2 0
v -39 -1 0
v -38 -1 0
v -39 -2 0
v -40 -2 0
v -40 -1 0
v -39 -1 0
v -40 -2 0
v -41 -2 0
v -41 -1 0
v -40 -1 0
v -41 -2 0
v -42 -2 0
v -42 -1 0
v -41 -1 0
v -13 -3 0
v -14 -3 0
v -14 -2 0
v -13 -2 0
v -28 -3 0
v -29 -3 0
v -29 -2 0
v -28 -2 0
v -13 -4 0
v -14 -4 0
v -14 -3 0
v -13 -3 0
v -28 -4 0
v -29 -4 0
v -29 -3 0
v -28 -3 0
v -13 -5 0
v -14 -5 0
v -14 -4 0
v -13 -4 0
v -28 -5 0
v -29 -5 0
v -29 -4 0
v -28 -4 0
v -41 -5 0
v -42 -5 0
v -42 -4 0
v -41 -4 0
v 0 -6 0
v -1 -6 0
v -1 -5 0
v 0 -5 0
v -13 -6 0
v -14 -6 0
v -14 -5 0
v -13 -5 0
v -28 -6 0
v -29 -6 0
v -29 -5 0
v -28 -5 0
v -40 -6 0
v -41 -6 0
v -41 -5 0
v -40 -5 0
v -13 -7 0
v -14 -7 0
v -14 -6 0
v -13 -6 0
v -14 -7 0
v -15 -7 0
v -15 -6 0
v -14 -6 0
v -15 -7 0
v -16 -7 0
v -16 -6 0
v -15 -6 0
v -16 -7 0
v -17 -7 0
v -17 -6 0
v -16 -6 0
v -17 -7 0
v -18 -7 0
v -18 -6 0
v -17 -6 0
v -18 -7 0
v -19 -7 0
v -19 -6 0
v -18 -6 0
v -23 -7 0
v -24 -7 0
v -24 -6 0
v -23 -6 0
v -24 -7 0
v -25 -7 0
v -25 -6 0
v -24 -6 0
v -25 -7 0
v -26 -7 0
v -26 -6 0
v -25 -6 0
v -26 -7 0
v -27 -7 0
v -27 -6 0
v -26 -6 0
v -27 -7 0
v -28 -7 0
v -28 -6 0
v -27 -6 0
v -28 -7 0
v -29 -7 0
v -29 -6 0
v -28 -6 0
v -1 -10 0
v -2 -10 0
v -2 -9 0
v -1 -9 0
v -40 -13 0
v -41 -13 0
v -41 -12 0
v -40 -12 0
v 0 -15 0
v -1 -15 0
v -1 -14 0
v 0 -14 0
v -41 -17 0
v -42 -17 0
v -42 -16 0
v -41 -16 0
v 0 -18 0
v -1 -18 0
v -1 -17 0
v 0 -17 0
v -41 -23 0
v -42 -23 0
v -42 -22 0
v -41 -22 0
v -1 -27 0
v -2 -27 0
v -2 -26 0
v -1 -26 0
v -40 -28 0
v -41 -28 0
v -41 -27 0
v -40 -27 0
v 0 -30 0
v -1 -30 0
v -1 -29 0
v 0 -29 0
v -1 -30 0
v -2 -30 0
v -2 -29 0
v -1 -29 0
v -2 -30 0
v -3 -30 0
v -3 -29 0
v -2 -29 0
v -3 -30 0
v -4 -30 0
v -4 -29 0
v -3 -29 0
v -4 -30 0
v -5 -30 0
v -5 -29 0
v -4 -29 0
v -5 -30 0
v -6 -30 0
v -6 -29 0
v -5 -29 0
v -6 -30 0
v -7 -30 0
v -7 -29 0
v -6 -29 0
v -7 -30 0
v -8 -30 0
v -8 -29 0
v -7 -29 0
v -8 -30 0
v -9 -30 0
v -9 -29 0
v -8 -29 0
v -9 -30 0
v -10 -30 0
v -10 -29 0
v -9 -29 0
v -10 -30 0
v -11 -30 0
v -11 -29 0
v -10 -29 0
v -11 -30 0
v -12 -30 0
v -12 -29 0
v -11 -29 0
v -12 -30 0
v -13 -30 0
v -13 -29 0
v -12 -29 0
v -13 -30 0
v -14 -30 0
v -14 -29 0
v -13 -29 0
v -14 -30 0
v -15 -30 0
v -15 -29 0
v -14 -29 0
v -15 -30 0
v -16 -30 0
v -16 -29 0
v -15 -29 0
v -16 -30 0
v -17 -30 0
v -17 -29 0
v -16 -29 0
v -17 -30 0
v -18 -30 0
v -18 -29 0
v -17 -29 0
v -18 -30 0
v -19 -30 0
v -19 -29 0
v -18 -29 0
v -19 -30 0
v -20 -30 0
v -20 -29 0
v -19 -29 0
v -20 -30 0
v -21 -30 0
v -21 -29 0
v -20 -29 0
v -21 -30 0
v -22 -30 0
v -22 -29 0
v -21 -29 0
v -22 -30 0
v -23 -30 0
v -23 -29 0
v -22 -29 0
v -23 -30 0
v -24 -30 0
v -24 -29 0
v -23 -29 0
v -24 -30 0
v -25 -30 0
v -25 -29 0
v -24 -29 0
v -25 -30 0
v -26 -30 0
v -26 -29 0
v -25 -29 0
v -26 -30 0
v -27 -30 0
v -27 -29 0
v -26 -29 0
v -27 -30 0
v -28 -30 0
v -28 -29 0
v -27 -29 0
v -28 -30 0
v -29 -30 0
v -29 -29 0
v -28 -29 0
v -29 -30 0
v -30 -30 0
v -30 -29 0
v -29 -29 0
v -30 -30 0
v -31 -30 0
v -31 -29 0
v -30 -29 0
v -31 -30 0
v -32 -30 0
v -32 -29 0
v -31 -29 0
v -32 -30 0
v -33 -30 0
v -33 -29 0
v -32 -29 0
v -33 -30 0
v -34 -30 0
v -34 -29 0
v -33 -29 0
v -34 -30 0
v -35 -30 0
v -35 -29 0
v -34 -29 0
v -35 -30 0
v -36 -30 0
v -36 -29 0
v -35 -29 0
v -36 -30 0
v -37 -30 0
v -37 -29 0
v -36 -29 0
v -37 -30 0
v -38 -30 0
v -38 -29 0
v -37 -29 0
v -38 -30 0
v -39 -30 0
v -39 -29 0
v -38 -29 0
v -39 -30 0
v -40 -30 0
v -40 -29 0
v -39 -29 0
v -40 -30 0
v -41 -30 0
v -41 -29 0
v -40 -29 0
v -41 -30 0
v -42 -30 0
v -42 -29 0
v -41 -29 0
v 0 -31 0
v -1 -31 0
v -1 -30 0
v 0 -30 0
v -1 -31 0
v -2 -31 0
v -2 -30 0
v -1 -30 0
v -2 -31 0
v -3 -31 0
v -3 -30 0
v -2 -30 0
v -3 -31 0
v -4 -31 0
v -4 -30 0
v -3 -30 0
v -4 -31 0
v -5 -31 0
v -5 -30 0
v -4 -30 0
v -5 -31 0
v -6 -31 0
v -6 -30 0
v -5 -30 0
v -6 -31 0
v -7 -31 0
v -7 -30 0
v -6 -30 0
v -7 -31 0
v -8 -31 0
v -8 -30 0
v -7 -30 0
v -8 -31 0
v -9 -31 0
v -9 -30 0
v -8 -30 0
v -9 -31 0
v -10 -31 0
v -10 -30 0
v -9 -30 0
v -10 -31 0
v -11 -31 0
v -11 -30 0
v -10 -30 0
v -11 -31 0
v -12 -31 0
v -12 -30 0
v -11 -30 0
v -12 -31 0
v -13 -31 0
v -13 -30 0
v -12 -30 0
v -13 -31 0
v -14 -31 0
v -14 -30 0
v -13 -30 0
v -14 -31 0
v -15 -31 0
v -15 -30 0
v -14 -30 0
v -15 -31 0
v -16 -31 0
v -16 -30 0
v -15 -30 0
v -16 -31 0
v -17 -31 0
v -17 -30 0
v -16 -30 0
v -17 -31 0
v -18 -31 0
v -18 -30 0
v -17 -30 0
v -18 -31 0
v -19 -31 0
v -19 -30 0
v -18 -30 0
v -19 -31 0
v -20 -31 0
v -20 -30 0
v -19 -30 0
v -20 -31 0
v -21 -31 0
v -21 -30 0
v -20 -30 0
v -21 -31 0
v -22 -31 0
v -22 -30 0
v -21 -30 0
v -22 -31 0
v -23 -31 0
v -23 -30 0
v -22 -30 0
v -23 -31 0
v -24 -31 0
v -24 -30 0
v -23 -30 0
v -24 -31 0
v -25 -31 0
v -25 -30 0
v -24 -30 0
v -25 -31 0
v -26 -31 0
v -26 -30 0
v -25 -30 0
v -26 -31 0
v -27 -31 0
v -27 -30 0
v -26 -30 0
v -27 -31 0
v -28 -31 0
v -28 -30 0
v -27 -30 0
v -28 -31 0
v -29 -31 0
v -29 -30 0
v -28 -30 0
v -29 -31 0
v -30 -31 0
v -30 -30 0
v -29 -30 0
v -30 -31 0
v -31 -31 0
v -31 -30 0
v -30 -30 0
v -31 -31 0
v -32 -31 0
v -32 -30 0
v -31 -30 0
v -32 -31 0
v -33 -31 0
v -33 -30 0
v -32 -30 0
v -33 -31 0
v -34 -31 0
v -34 -30 0
v -33 -30 0
v -34 -31 0
v -35 -31 0
v -35 -30 0
v -34 -30 0
v -35 -31 0
v -36 -31 0
v -36 -30 0
v -35 -30 0
v -36 -31 0
v -37 -31 0
v -37 -30 0
v -36 -30 0
v -37 -31 0
v -38 -31 0
v -38 -30 0
v -37 -30 0
v -38 -31 0
v -39 -31 0
v -39 -30 0
v -38 -30 0
v -39 -31 0
v -40 -31 0
v -40 -30 0
v -39 -30 0
v -40 -31 0
v -41 -31 0
v -41 -30 0
v -40 -30 0
v -41 -31 0
v -42 -31 0
v -42 -30 0
v -41 -30 0

# Texture cooridinates (Count = 48)
vt 0.05268595 0.4524715
vt 0.06921487 0.4524715
vt 0.06921487 0.4828897
vt 0.05268595 0.4828897
vt 0.03512397 0.4524715
vt 0.05165289 0.4524715
vt 0.05165289 0.4828897
vt 0.03512397 0.4828897
vt 0.07024793 0.4524715
vt 0.08677686 0.4524715
vt 0.08677686 0.4828897
vt 0.07024793 0.4828897
vt 0.01756198 0.5152091
vt 0.01756198 0.4847909
vt 0.03409091 0.4847909
vt 0.03409091 0.5152091
vt 0.05268595 0.4201521
vt 0.06921487 0.4201521
vt 0.06921487 0.4505703
vt 0.05268595 0.4505703
vt 0.4390496 0.6140684
vt 0.4555785 0.6140684
vt 0.4555785 0.6444867
vt 0.4390496 0.6444867
vt 0.3863636 0.6463878
vt 0.4028926 0.6463878
vt 0.4028926 0.6768061
vt 0.3863636 0.6768061
vt 0.03512397 0.4201521
vt 0.05165289 0.4201521
vt 0.05165289 0.4505703
vt 0.03512397 0.4505703
vt 0.07024793 0.4201521
vt 0.08677686 0.4201521
vt 0.08677686 0.4505703
vt 0.07024793 0.4505703
vt 0.3863636 0.6140684
vt 0.4028926 0.6140684
vt 0.4028926 0.6444867
vt 0.3863636 0.6444867
vt 0 0.4524715
vt 0.01652892 0.4524715
vt 0.01652892 0.4828897
vt 0 0.4828897
vt 0.05268595 0.4847909
vt 0.06921487 0.4847909
vt 0.06921487 0.5152091
vt 0.05268595 0.5152091

# Normal
vn 0 0 -1

# Mesh description
g BibliotecaNuevaComplete_mesh_0006

# Faces
f 1/1/1 2/2/1 3/3/1 4/4/1
f 5/1/1 6/2/1 7/3/1 8/4/1
f 9/1/1 10/2/1 11/3/1 12/4/1
f 13/1/1 14/2/1 15/3/1 16/4/1
f 17/1/1 18/2/1 19/3/1 20/4/1
f 21/1/1 22/2/1 23/3/1 24/4/1
f 25/1/1 26/2/1 27/3/1 28/4/1
f 29/1/1 30/2/1 31/3/1 32/4/1
f 33/1/1 34/2/1 35/3/1 36/4/1
f 37/1/1 38/2/1 39/3/1 40/4/1
f 41/1/1 42/2/1 43/3/1 44/4/1
f 45/1/1 46/2/1 47/3/1 48/4/1
f 49/1/1 50/2/1 51/3/1 52/4/1
f 53/5/1 54/6/1 55/7/1 56/8/1
f 57/9/1 58/10/1 59/11/1 60/12/1
f 61/1/1 62/2/1 63/3/1 64/4/1
f 65/1/1 66/2/1 67/3/1 68/4/1
f 69/1/1 70/2/1 71/3/1 72/4/1
f 73/1/1 74/2/1 75/3/1 76/4/1
f 77/1/1 78/2/1 79/3/1 80/4/1
f 81/1/1 82/2/1 83/3/1 84/4/1
f 85/1/1 86/2/1 87/3/1 88/4/1
f 89/1/1 90/2/1 91/3/1 92/4/1
f 93/1/1 94/2/1 95/3/1 96/4/1
f 97/1/1 98/2/1 99/3/1 100/4/1
f 101/1/1 102/2/1 103/3/1 104/4/1
f 105/1/1 106/2/1 107/3/1 108/4/1
f 109/1/1 110/2/1 111/3/1 112/4/1
f 113/1/1 114/2/1 115/3/1 116/4/1
f 117/13/1 118/14/1 119/15/1 120/16/1
f 121/17/1 122/18/1 123/19/1 124/20/1
f 125/17/1 126/18/1 127/19/1 128/20/1
f 129/17/1 130/18/1 131/19/1 132/20/1
f 133/17/1 134/18/1 135/19/1 136/20/1
f 137/17/1 138/18/1 139/19/1 140/20/1
f 141/17/1 142/18/1 143/19/1 144/20/1
f 145/17/1 146/18/1 147/19/1 148/20/1
f 149/17/1 150/18/1 151/19/1 152/20/1
f 153/17/1 154/18/1 155/19/1 156/20/1
f 157/17/1 158/18/1 159/19/1 160/20/1
f 161/17/1 162/18/1 163/19/1 164/20/1
f 165/5/1 166/6/1 167/7/1 168/8/1
f 169/9/1 170/10/1 171/11/1 172/12/1
f 173/17/1 174/18/1 175/19/1 176/20/1
f 177/17/1 178/18/1 179/19/1 180/20/1
f 181/17/1 182/18/1 183/19/1 184/20/1
f 185/17/1 186/18/1 187/19/1 188/20/1
f 189/17/1 190/18/1 191/19/1 192/20/1
f 193/17/1 194/18/1 195/19/1 196/20/1
f 197/17/1 198/18/1 199/19/1 200/20/1
f 201/17/1 202/18/1 203/19/1 204/20/1
f 205/17/1 206/18/1 207/19/1 208/20/1
f 209/17/1 210/18/1 211/19/1 212/20/1
f 213/17/1 214/18/1 215/19/1 216/20/1
f 217/14/1 218/15/1 219/16/1 220/13/1
f 221/1/1 222/2/1 223/3/1 224/4/1
f 225/5/1 226/6/1 227/7/1 228/8/1
f 229/9/1 230/10/1 231/11/1 232/12/1
f 233/5/1 234/6/1 235/7/1 236/8/1
f 237/9/1 238/10/1 239/11/1 240/12/1
f 241/5/1 242/6/1 243/7/1 244/8/1
f 245/9/1 246/10/1 247/11/1 248/12/1
f 249/21/1 250/22/1 251/23/1 252/24/1
f 253/21/1 254/22/1 255/23/1 256/24/1
f 257/5/1 258/6/1 259/7/1 260/8/1
f 261/9/1 262/10/1 263/11/1 264/12/1
f 265/25/1 266/26/1 267/27/1 268/28/1
f 269/29/1 270/30/1 271/31/1 272/32/1
f 273/17/1 274/18/1 275/19/1 276/20/1
f 277/17/1 278/18/1 279/19/1 280/20/1
f 281/17/1 282/18/1 283/19/1 284/20/1
f 285/17/1 286/18/1 287/19/1 288/20/1
f 289/17/1 290/18/1 291/19/1 292/20/1
f 293/17/1 294/18/1 295/19/1 296/20/1
f 297/17/1 298/18/1 299/19/1 300/20/1
f 301/17/1 302/18/1 303/19/1 304/20/1
f 305/17/1 306/18/1 307/19/1 308/20/1
f 309/17/1 310/18/1 311/19/1 312/20/1
f 313/33/1 314/34/1 315/35/1 316/36/1
f 317/25/1 318/26/1 319/27/1 320/28/1
f 321/37/1 322/38/1 323/39/1 324/40/1
f 325/25/1 326/26/1 327/27/1 328/28/1
f 329/21/1 330/22/1 331/23/1 332/24/1
f 333/21/1 334/22/1 335/23/1 336/24/1
f 337/25/1 338/26/1 339/27/1 340/28/1
f 341/21/1 342/22/1 343/23/1 344/24/1
f 345/21/1 346/22/1 347/23/1 348/24/1
f 349/1/1 350/2/1 351/3/1 352/4/1
f 353/41/1 354/42/1 355/43/1 356/44/1
f 357/45/1 358/46/1 359/47/1 360/48/1
f 361/45/1 362/46/1 363/47/1 364/48/1
f 365/45/1 366/46/1 367/47/1 368/48/1
f 369/45/1 370/46/1 371/47/1 372/48/1
f 373/45/1 374/46/1 375/47/1 376/48/1
f 377/45/1 378/46/1 379/47/1 380/48/1
f 381/45/1 382/46/1 383/47/1 384/48/1
f 385/45/1 386/46/1 387/47/1 388/48/1
f 389/45/1 390/46/1 391/47/1 392/48/1
f 393/45/1 394/46/1 395/47/1 396/48/1
f 397/45/1 398/46/1 399/47/1 400/48/1
f 401/45/1 402/46/1 403/47/1 404/48/1
f 405/45/1 406/46/1 407/47/1 408/48/1
f 409/45/1 410/46/1 411/47/1 412/48/1
f 413/45/1 414/46/1 415/47/1 416/48/1
f 417/45/1 418/46/1 419/47/1 420/48/1
f 421/45/1 422/46/1 423/47/1 424/48/1
f 425/45/1 426/46/1 427/47/1 428/48/1
f 429/45/1 430/46/1 431/47/1 432/48/1
f 433/45/1 434/46/1 435/47/1 436/48/1
f 437/45/1 438/46/1 439/47/1 440/48/1
f 441/45/1 442/46/1 443/47/1 444/48/1
f 445/45/1 446/46/1 447/47/1 448/48/1
f 449/45/1 450/46/1 451/47/1 452/48/1
f 453/45/1 454/46/1 455/47/1 456/48/1
f 457/45/1 458/46/1 459/47/1 460/48/1
f 461/45/1 462/46/1 463/47/1 464/48/1
f 465/45/1 466/46/1 467/47/1 468/48/1
f 469/45/1 470/46/1 471/47/1 472/48/1
f 473/45/1 474/46/1 475/47/1 476/48/1
f 477/45/1 478/46/1 479/47/1 480/48/1
f 481/45/1 482/46/1 483/47/1 484/48/1
f 485/45/1 486/46/1 487/47/1 488/48/1
f 489/45/1 490/46/1 491/47/1 492/48/1
f 493/45/1 494/46/1 495/47/1 496/48/1
f 497/45/1 498/46/1 499/47/1 500/48/1
f 501/45/1 502/46/1 503/47/1 504/48/1
f 505/45/1 506/46/1 507/47/1 508/48/1
f 509/44/1 510/41/1 511/42/1 512/43/1
f 513/1/1 514/2/1 515/3/1 516/4/1
f 517/1/1 518/2/1 519/3/1 520/4/1
f 521/1/1 522/2/1 523/3/1 524/4/1
f 525/1/1 526/2/1 527/3/1 528/4/1
f 529/1/1 530/2/1 531/3/1 532/4/1
f 533/1/1 534/2/1 535/3/1 536/4/1
f 537/1/1 538/2/1 539/3/1 540/4/1
f 541/1/1 542/2/1 543/3/1 544/4/1
f 545/1/1 546/2/1 547/3/1 548/4/1
f 549/1/1 550/2/1 551/3/1 552/4/1
f 553/1/1 554/2/1 555/3/1 556/4/1
f 557/1/1 558/2/1 559/3/1 560/4/1
f 561/1/1 562/2/1 563/3/1 564/4/1
f 565/1/1 566/2/1 567/3/1 568/4/1
f 569/1/1 570/2/1 571/3/1 572/4/1
f 573/1/1 574/2/1 575/3/1 576/4/1
f 577/1/1 578/2/1 579/3/1 580/4/1
f 581/1/1 582/2/1 583/3/1 584/4/1
f 585/1/1 586/2/1 587/3/1 588/4/1
f 589/1/1 590/2/1 591/3/1 592/4/1
f 593/1/1 594/2/1 595/3/1 596/4/1
f 597/1/1 598/2/1 599/3/1 600/4/1
f 601/1/1 602/2/1 603/3/1 604/4/1
f 605/1/1 606/2/1 607/3/1 608/4/1
f 609/1/1 610/2/1 611/3/1 612/4/1
f 613/1/1 614/2/1 615/3/1 616/4/1
f 617/1/1 618/2/1 619/3/1 620/4/1
f 621/1/1 622/2/1 623/3/1 624/4/1
f 625/1/1 626/2/1 627/3/1 628/4/1
f 629/1/1 630/2/1 631/3/1 632/4/1
f 633/1/1 634/2/1 635/3/1 636/4/1
f 637/1/1 638/2/1 639/3/1 640/4/1
f 641/1/1 642/2/1 643/3/1 644/4/1
f 645/1/1 646/2/1 647/3/1 648/4/1
f 649/1/1 650/2/1 651/3/1 652/4/1
f 653/1/1 654/2/1 655/3/1 656/4/1
f 657/1/1 658/2/1 659/3/1 660/4/1
f 661/1/1 662/2/1 663/3/1 664/4/1
f 665/1/1 666/2/1 667/3/1 668/4/1
f 669/1/1 670/2/1 671/3/1 672/4/1
f 673/1/1 674/2/1 675/3/1 676/4/1
f 677/1/1 678/2/1 679/3/1 680/4/1
f 681/1/1 682/2/1 683/3/1 684/4/1

