# Tiled2Unity generated file. Do not modify by hand.
# Wavefront file for 'BibliotecaNuevaComplete_mesh_0005.obj'

# Vertices (Count = 236)
v -31 -3 0
v -32 -3 0
v -32 -2 0
v -31 -2 0
v -2 -4 0
v -3 -4 0
v -3 -3 0
v -2 -3 0
v -9 -4 0
v -10 -4 0
v -10 -3 0
v -9 -3 0
v -39 -5 0
v -40 -5 0
v -40 -4 0
v -39 -4 0
v -35 -6 0
v -36 -6 0
v -36 -5 0
v -35 -5 0
v -8 -7 0
v -9 -7 0
v -9 -6 0
v -8 -6 0
v -21 -10 0
v -22 -10 0
v -22 -9 0
v -21 -9 0
v -38 -10 0
v -39 -10 0
v -39 -9 0
v -38 -9 0
v -38 -11 0
v -39 -11 0
v -39 -10 0
v -38 -10 0
v -3 -12 0
v -4 -12 0
v -4 -11 0
v -3 -11 0
v -35 -14 0
v -36 -14 0
v -36 -13 0
v -35 -13 0
v -4 -16 0
v -5 -16 0
v -5 -15 0
v -4 -15 0
v -5 -16 0
v -6 -16 0
v -6 -15 0
v -5 -15 0
v -6 -16 0
v -7 -16 0
v -7 -15 0
v -6 -15 0
v -7 -16 0
v -8 -16 0
v -8 -15 0
v -7 -15 0
v -8 -16 0
v -9 -16 0
v -9 -15 0
v -8 -15 0
v -9 -16 0
v -10 -16 0
v -10 -15 0
v -9 -15 0
v -10 -16 0
v -11 -16 0
v -11 -15 0
v -10 -15 0
v -11 -16 0
v -12 -16 0
v -12 -15 0
v -11 -15 0
v -12 -16 0
v -13 -16 0
v -13 -15 0
v -12 -15 0
v -13 -16 0
v -14 -16 0
v -14 -15 0
v -13 -15 0
v -14 -16 0
v -15 -16 0
v -15 -15 0
v -14 -15 0
v -15 -16 0
v -16 -16 0
v -16 -15 0
v -15 -15 0
v -16 -16 0
v -17 -16 0
v -17 -15 0
v -16 -15 0
v -17 -16 0
v -18 -16 0
v -18 -15 0
v -17 -15 0
v -18 -16 0
v -19 -16 0
v -19 -15 0
v -18 -15 0
v -19 -16 0
v -20 -16 0
v -20 -15 0
v -19 -15 0
v -20 -16 0
v -21 -16 0
v -21 -15 0
v -20 -15 0
v -21 -16 0
v -22 -16 0
v -22 -15 0
v -21 -15 0
v -22 -16 0
v -23 -16 0
v -23 -15 0
v -22 -15 0
v -23 -16 0
v -24 -16 0
v -24 -15 0
v -23 -15 0
v -24 -16 0
v -25 -16 0
v -25 -15 0
v -24 -15 0
v -25 -16 0
v -26 -16 0
v -26 -15 0
v -25 -15 0
v -26 -16 0
v -27 -16 0
v -27 -15 0
v -26 -15 0
v -27 -16 0
v -28 -16 0
v -28 -15 0
v -27 -15 0
v -28 -16 0
v -29 -16 0
v -29 -15 0
v -28 -15 0
v -29 -16 0
v -30 -16 0
v -30 -15 0
v -29 -15 0
v -30 -16 0
v -31 -16 0
v -31 -15 0
v -30 -15 0
v -31 -16 0
v -32 -16 0
v -32 -15 0
v -31 -15 0
v -32 -16 0
v -33 -16 0
v -33 -15 0
v -32 -15 0
v -33 -16 0
v -34 -16 0
v -34 -15 0
v -33 -15 0
v -34 -16 0
v -35 -16 0
v -35 -15 0
v -34 -15 0
v -35 -16 0
v -36 -16 0
v -36 -15 0
v -35 -15 0
v -36 -16 0
v -37 -16 0
v -37 -15 0
v -36 -15 0
v -37 -16 0
v -38 -16 0
v -38 -15 0
v -37 -15 0
v -21 -17 0
v -22 -17 0
v -22 -16 0
v -21 -16 0
v -11 -18 0
v -12 -18 0
v -12 -17 0
v -11 -17 0
v -36 -18 0
v -37 -18 0
v -37 -17 0
v -36 -17 0
v -38 -20 0
v -39 -20 0
v -39 -19 0
v -38 -19 0
v -39 -21 0
v -40 -21 0
v -40 -20 0
v -39 -20 0
v -29 -22 0
v -30 -22 0
v -30 -21 0
v -29 -21 0
v -2 -25 0
v -3 -25 0
v -3 -24 0
v -2 -24 0
v -8 -25 0
v -9 -25 0
v -9 -24 0
v -8 -24 0
v -36 -26 0
v -37 -26 0
v -37 -25 0
v -36 -25 0
v -4 -28 0
v -5 -28 0
v -5 -27 0
v -4 -27 0
v -29 -28 0
v -30 -28 0
v -30 -27 0
v -29 -27 0
v -17 -29 0
v -18 -29 0
v -18 -28 0
v -17 -28 0
v -28 -29 0
v -29 -29 0
v -29 -28 0
v -28 -28 0
v -39 -29 0
v -40 -29 0
v -40 -28 0
v -39 -28 0

# Texture cooridinates (Count = 12)
vt 0.2361111 0
vt 0.2608025 0
vt 0.2608025 0.03368419
vt 0.2361111 0.03368419
vt 0.4984568 0
vt 0.4984568 0.03368419
vt 0.5231481 0.03368419
vt 0.5231481 0
vt 0.4984568 0.03578949
vt 0.5231481 0.03578949
vt 0.5231481 0.06947368
vt 0.4984568 0.06947368

# Normal
vn 0 0 -1

# Mesh description
g BibliotecaNuevaComplete_mesh_0005

# Faces
f 1/1/1 2/2/1 3/3/1 4/4/1
f 5/1/1 6/2/1 7/3/1 8/4/1
f 9/1/1 10/2/1 11/3/1 12/4/1
f 13/1/1 14/2/1 15/3/1 16/4/1
f 17/5/1 18/6/1 19/7/1 20/8/1
f 21/5/1 22/8/1 23/7/1 24/6/1
f 25/6/1 26/5/1 27/8/1 28/7/1
f 29/1/1 30/2/1 31/3/1 32/4/1
f 33/1/1 34/2/1 35/3/1 36/4/1
f 37/1/1 38/2/1 39/3/1 40/4/1
f 41/5/1 42/8/1 43/7/1 44/6/1
f 45/9/1 46/10/1 47/11/1 48/12/1
f 49/9/1 50/10/1 51/11/1 52/12/1
f 53/9/1 54/10/1 55/11/1 56/12/1
f 57/9/1 58/10/1 59/11/1 60/12/1
f 61/9/1 62/10/1 63/11/1 64/12/1
f 65/9/1 66/10/1 67/11/1 68/12/1
f 69/9/1 70/10/1 71/11/1 72/12/1
f 73/9/1 74/10/1 75/11/1 76/12/1
f 77/9/1 78/10/1 79/11/1 80/12/1
f 81/9/1 82/10/1 83/11/1 84/12/1
f 85/9/1 86/10/1 87/11/1 88/12/1
f 89/9/1 90/10/1 91/11/1 92/12/1
f 93/9/1 94/10/1 95/11/1 96/12/1
f 97/9/1 98/10/1 99/11/1 100/12/1
f 101/9/1 102/10/1 103/11/1 104/12/1
f 105/9/1 106/10/1 107/11/1 108/12/1
f 109/9/1 110/10/1 111/11/1 112/12/1
f 113/9/1 114/10/1 115/11/1 116/12/1
f 117/9/1 118/10/1 119/11/1 120/12/1
f 121/9/1 122/10/1 123/11/1 124/12/1
f 125/9/1 126/10/1 127/11/1 128/12/1
f 129/9/1 130/10/1 131/11/1 132/12/1
f 133/9/1 134/10/1 135/11/1 136/12/1
f 137/9/1 138/10/1 139/11/1 140/12/1
f 141/9/1 142/10/1 143/11/1 144/12/1
f 145/9/1 146/10/1 147/11/1 148/12/1
f 149/9/1 150/10/1 151/11/1 152/12/1
f 153/9/1 154/10/1 155/11/1 156/12/1
f 157/9/1 158/10/1 159/11/1 160/12/1
f 161/9/1 162/10/1 163/11/1 164/12/1
f 165/9/1 166/10/1 167/11/1 168/12/1
f 169/9/1 170/10/1 171/11/1 172/12/1
f 173/9/1 174/10/1 175/11/1 176/12/1
f 177/9/1 178/10/1 179/11/1 180/12/1
f 181/8/1 182/7/1 183/6/1 184/5/1
f 185/5/1 186/8/1 187/7/1 188/6/1
f 189/8/1 190/7/1 191/6/1 192/5/1
f 193/1/1 194/2/1 195/3/1 196/4/1
f 197/1/1 198/2/1 199/3/1 200/4/1
f 201/5/1 202/8/1 203/7/1 204/6/1
f 205/1/1 206/2/1 207/3/1 208/4/1
f 209/5/1 210/8/1 211/7/1 212/6/1
f 213/5/1 214/8/1 215/7/1 216/6/1
f 217/1/1 218/2/1 219/3/1 220/4/1
f 221/1/1 222/2/1 223/3/1 224/4/1
f 225/1/1 226/2/1 227/3/1 228/4/1
f 229/1/1 230/2/1 231/3/1 232/4/1
f 233/1/1 234/2/1 235/3/1 236/4/1

