# Tiled2Unity generated file. Do not modify by hand.
# Wavefront file for 'BibliotecaNuevaComplete_mesh_0003.obj'

# Vertices (Count = 584)
v 0 -1 0
v -1 -1 0
v -1 0 0
v 0 0 0
v -1 -1 0
v -2 -1 0
v -2 0 0
v -1 0 0
v -14 -1 0
v -15 -1 0
v -15 0 0
v -14 0 0
v -27 -1 0
v -28 -1 0
v -28 0 0
v -27 0 0
v -40 -1 0
v -41 -1 0
v -41 0 0
v -40 0 0
v -41 -1 0
v -42 -1 0
v -42 0 0
v -41 0 0
v 0 -2 0
v -1 -2 0
v -1 -1 0
v 0 -1 0
v -1 -2 0
v -2 -2 0
v -2 -1 0
v -1 -1 0
v -14 -2 0
v -15 -2 0
v -15 -1 0
v -14 -1 0
v -27 -2 0
v -28 -2 0
v -28 -1 0
v -27 -1 0
v -40 -2 0
v -41 -2 0
v -41 -1 0
v -40 -1 0
v -41 -2 0
v -42 -2 0
v -42 -1 0
v -41 -1 0
v 0 -3 0
v -1 -3 0
v -1 -2 0
v 0 -2 0
v -1 -3 0
v -2 -3 0
v -2 -2 0
v -1 -2 0
v -14 -3 0
v -15 -3 0
v -15 -2 0
v -14 -2 0
v -27 -3 0
v -28 -3 0
v -28 -2 0
v -27 -2 0
v -40 -3 0
v -41 -3 0
v -41 -2 0
v -40 -2 0
v -41 -3 0
v -42 -3 0
v -42 -2 0
v -41 -2 0
v 0 -4 0
v -1 -4 0
v -1 -3 0
v 0 -3 0
v -1 -4 0
v -2 -4 0
v -2 -3 0
v -1 -3 0
v -14 -4 0
v -15 -4 0
v -15 -3 0
v -14 -3 0
v -27 -4 0
v -28 -4 0
v -28 -3 0
v -27 -3 0
v -40 -4 0
v -41 -4 0
v -41 -3 0
v -40 -3 0
v -41 -4 0
v -42 -4 0
v -42 -3 0
v -41 -3 0
v 0 -5 0
v -1 -5 0
v -1 -4 0
v 0 -4 0
v -1 -5 0
v -2 -5 0
v -2 -4 0
v -1 -4 0
v -14 -5 0
v -15 -5 0
v -15 -4 0
v -14 -4 0
v -27 -5 0
v -28 -5 0
v -28 -4 0
v -27 -4 0
v -40 -5 0
v -41 -5 0
v -41 -4 0
v -40 -4 0
v -41 -5 0
v -42 -5 0
v -42 -4 0
v -41 -4 0
v 0 -6 0
v -1 -6 0
v -1 -5 0
v 0 -5 0
v -1 -6 0
v -2 -6 0
v -2 -5 0
v -1 -5 0
v -14 -6 0
v -15 -6 0
v -15 -5 0
v -14 -5 0
v -15 -6 0
v -16 -6 0
v -16 -5 0
v -15 -5 0
v -16 -6 0
v -17 -6 0
v -17 -5 0
v -16 -5 0
v -17 -6 0
v -18 -6 0
v -18 -5 0
v -17 -5 0
v -18 -6 0
v -19 -6 0
v -19 -5 0
v -18 -5 0
v -23 -6 0
v -24 -6 0
v -24 -5 0
v -23 -5 0
v -24 -6 0
v -25 -6 0
v -25 -5 0
v -24 -5 0
v -25 -6 0
v -26 -6 0
v -26 -5 0
v -25 -5 0
v -26 -6 0
v -27 -6 0
v -27 -5 0
v -26 -5 0
v -27 -6 0
v -28 -6 0
v -28 -5 0
v -27 -5 0
v -40 -6 0
v -41 -6 0
v -41 -5 0
v -40 -5 0
v -41 -6 0
v -42 -6 0
v -42 -5 0
v -41 -5 0
v 0 -7 0
v -1 -7 0
v -1 -6 0
v 0 -6 0
v -1 -7 0
v -2 -7 0
v -2 -6 0
v -1 -6 0
v -40 -7 0
v -41 -7 0
v -41 -6 0
v -40 -6 0
v -41 -7 0
v -42 -7 0
v -42 -6 0
v -41 -6 0
v 0 -8 0
v -1 -8 0
v -1 -7 0
v 0 -7 0
v -1 -8 0
v -2 -8 0
v -2 -7 0
v -1 -7 0
v -40 -8 0
v -41 -8 0
v -41 -7 0
v -40 -7 0
v -41 -8 0
v -42 -8 0
v -42 -7 0
v -41 -7 0
v 0 -9 0
v -1 -9 0
v -1 -8 0
v 0 -8 0
v -1 -9 0
v -2 -9 0
v -2 -8 0
v -1 -8 0
v -40 -9 0
v -41 -9 0
v -41 -8 0
v -40 -8 0
v -41 -9 0
v -42 -9 0
v -42 -8 0
v -41 -8 0
v 0 -10 0
v -1 -10 0
v -1 -9 0
v 0 -9 0
v -1 -10 0
v -2 -10 0
v -2 -9 0
v -1 -9 0
v -40 -10 0
v -41 -10 0
v -41 -9 0
v -40 -9 0
v -41 -10 0
v -42 -10 0
v -42 -9 0
v -41 -9 0
v 0 -11 0
v -1 -11 0
v -1 -10 0
v 0 -10 0
v -1 -11 0
v -2 -11 0
v -2 -10 0
v -1 -10 0
v -40 -11 0
v -41 -11 0
v -41 -10 0
v -40 -10 0
v -41 -11 0
v -42 -11 0
v -42 -10 0
v -41 -10 0
v 0 -12 0
v -1 -12 0
v -1 -11 0
v 0 -11 0
v -1 -12 0
v -2 -12 0
v -2 -11 0
v -1 -11 0
v -40 -12 0
v -41 -12 0
v -41 -11 0
v -40 -11 0
v -41 -12 0
v -42 -12 0
v -42 -11 0
v -41 -11 0
v 0 -13 0
v -1 -13 0
v -1 -12 0
v 0 -12 0
v -1 -13 0
v -2 -13 0
v -2 -12 0
v -1 -12 0
v -40 -13 0
v -41 -13 0
v -41 -12 0
v -40 -12 0
v -41 -13 0
v -42 -13 0
v -42 -12 0
v -41 -12 0
v 0 -14 0
v -1 -14 0
v -1 -13 0
v 0 -13 0
v -1 -14 0
v -2 -14 0
v -2 -13 0
v -1 -13 0
v -40 -14 0
v -41 -14 0
v -41 -13 0
v -40 -13 0
v -41 -14 0
v -42 -14 0
v -42 -13 0
v -41 -13 0
v 0 -15 0
v -1 -15 0
v -1 -14 0
v 0 -14 0
v -1 -15 0
v -2 -15 0
v -2 -14 0
v -1 -14 0
v -40 -15 0
v -41 -15 0
v -41 -14 0
v -40 -14 0
v -41 -15 0
v -42 -15 0
v -42 -14 0
v -41 -14 0
v 0 -16 0
v -1 -16 0
v -1 -15 0
v 0 -15 0
v -1 -16 0
v -2 -16 0
v -2 -15 0
v -1 -15 0
v -16 -16 0
v -17 -16 0
v -17 -15 0
v -16 -15 0
v -25 -16 0
v -26 -16 0
v -26 -15 0
v -25 -15 0
v -40 -16 0
v -41 -16 0
v -41 -15 0
v -40 -15 0
v -41 -16 0
v -42 -16 0
v -42 -15 0
v -41 -15 0
v 0 -17 0
v -1 -17 0
v -1 -16 0
v 0 -16 0
v -1 -17 0
v -2 -17 0
v -2 -16 0
v -1 -16 0
v -40 -17 0
v -41 -17 0
v -41 -16 0
v -40 -16 0
v -41 -17 0
v -42 -17 0
v -42 -16 0
v -41 -16 0
v 0 -18 0
v -1 -18 0
v -1 -17 0
v 0 -17 0
v -1 -18 0
v -2 -18 0
v -2 -17 0
v -1 -17 0
v -40 -18 0
v -41 -18 0
v -41 -17 0
v -40 -17 0
v -41 -18 0
v -42 -18 0
v -42 -17 0
v -41 -17 0
v 0 -19 0
v -1 -19 0
v -1 -18 0
v 0 -18 0
v -1 -19 0
v -2 -19 0
v -2 -18 0
v -1 -18 0
v -40 -19 0
v -41 -19 0
v -41 -18 0
v -40 -18 0
v -41 -19 0
v -42 -19 0
v -42 -18 0
v -41 -18 0
v 0 -20 0
v -1 -20 0
v -1 -19 0
v 0 -19 0
v -1 -20 0
v -2 -20 0
v -2 -19 0
v -1 -19 0
v -40 -20 0
v -41 -20 0
v -41 -19 0
v -40 -19 0
v -41 -20 0
v -42 -20 0
v -42 -19 0
v -41 -19 0
v 0 -21 0
v -1 -21 0
v -1 -20 0
v 0 -20 0
v -1 -21 0
v -2 -21 0
v -2 -20 0
v -1 -20 0
v -40 -21 0
v -41 -21 0
v -41 -20 0
v -40 -20 0
v -41 -21 0
v -42 -21 0
v -42 -20 0
v -41 -20 0
v 0 -22 0
v -1 -22 0
v -1 -21 0
v 0 -21 0
v -1 -22 0
v -2 -22 0
v -2 -21 0
v -1 -21 0
v -40 -22 0
v -41 -22 0
v -41 -21 0
v -40 -21 0
v -41 -22 0
v -42 -22 0
v -42 -21 0
v -41 -21 0
v 0 -23 0
v -1 -23 0
v -1 -22 0
v 0 -22 0
v -1 -23 0
v -2 -23 0
v -2 -22 0
v -1 -22 0
v -40 -23 0
v -41 -23 0
v -41 -22 0
v -40 -22 0
v -41 -23 0
v -42 -23 0
v -42 -22 0
v -41 -22 0
v 0 -24 0
v -1 -24 0
v -1 -23 0
v 0 -23 0
v -1 -24 0
v -2 -24 0
v -2 -23 0
v -1 -23 0
v -40 -24 0
v -41 -24 0
v -41 -23 0
v -40 -23 0
v -41 -24 0
v -42 -24 0
v -42 -23 0
v -41 -23 0
v 0 -25 0
v -1 -25 0
v -1 -24 0
v 0 -24 0
v -1 -25 0
v -2 -25 0
v -2 -24 0
v -1 -24 0
v -40 -25 0
v -41 -25 0
v -41 -24 0
v -40 -24 0
v -41 -25 0
v -42 -25 0
v -42 -24 0
v -41 -24 0
v 0 -26 0
v -1 -26 0
v -1 -25 0
v 0 -25 0
v -1 -26 0
v -2 -26 0
v -2 -25 0
v -1 -25 0
v -40 -26 0
v -41 -26 0
v -41 -25 0
v -40 -25 0
v -41 -26 0
v -42 -26 0
v -42 -25 0
v -41 -25 0
v 0 -27 0
v -1 -27 0
v -1 -26 0
v 0 -26 0
v -1 -27 0
v -2 -27 0
v -2 -26 0
v -1 -26 0
v -40 -27 0
v -41 -27 0
v -41 -26 0
v -40 -26 0
v -41 -27 0
v -42 -27 0
v -42 -26 0
v -41 -26 0
v 0 -28 0
v -1 -28 0
v -1 -27 0
v 0 -27 0
v -1 -28 0
v -2 -28 0
v -2 -27 0
v -1 -27 0
v -40 -28 0
v -41 -28 0
v -41 -27 0
v -40 -27 0
v -41 -28 0
v -42 -28 0
v -42 -27 0
v -41 -27 0
v 0 -29 0
v -1 -29 0
v -1 -28 0
v 0 -28 0
v -1 -29 0
v -2 -29 0
v -2 -28 0
v -1 -28 0
v -40 -29 0
v -41 -29 0
v -41 -28 0
v -40 -28 0
v -41 -29 0
v -42 -29 0
v -42 -28 0
v -41 -28 0
v 0 -30 0
v -1 -30 0
v -1 -29 0
v 0 -29 0
v -1 -30 0
v -2 -30 0
v -2 -29 0
v -1 -29 0
v -40 -30 0
v -41 -30 0
v -41 -29 0
v -40 -29 0
v -41 -30 0
v -42 -30 0
v -42 -29 0
v -41 -29 0
v 0 -31 0
v -1 -31 0
v -1 -30 0
v 0 -30 0
v -1 -31 0
v -2 -31 0
v -2 -30 0
v -1 -30 0
v -40 -31 0
v -41 -31 0
v -41 -30 0
v -40 -30 0
v -41 -31 0
v -42 -31 0
v -42 -30 0
v -41 -30 0

# Texture cooridinates (Count = 36)
vt 0.05268595 0.4524715
vt 0.06921487 0.4524715
vt 0.06921487 0.4828897
vt 0.05268595 0.4828897
vt 0.07024793 0.4524715
vt 0.08677686 0.4524715
vt 0.08677686 0.4828897
vt 0.07024793 0.4828897
vt 0.03512397 0.9372624
vt 0.05165289 0.9372624
vt 0.05165289 0.9676806
vt 0.03512397 0.9676806
vt 0.07024793 0.9372624
vt 0.08677686 0.9372624
vt 0.08677686 0.9676806
vt 0.07024793 0.9676806
vt 0.03512397 0.4524715
vt 0.05165289 0.4524715
vt 0.05165289 0.4828897
vt 0.03512397 0.4828897
vt 0.03512397 0.904943
vt 0.05165289 0.904943
vt 0.05165289 0.9353612
vt 0.03512397 0.9353612
vt 0.05268595 0.904943
vt 0.06921487 0.904943
vt 0.06921487 0.9353612
vt 0.05268595 0.9353612
vt 0.07024793 0.904943
vt 0.08677686 0.904943
vt 0.08677686 0.9353612
vt 0.07024793 0.9353612
vt 0.5092975 0.6787072
vt 0.5258265 0.6787072
vt 0.5258265 0.7091255
vt 0.5092975 0.7091255

# Normal
vn 0 0 -1

# Mesh description
g BibliotecaNuevaComplete_mesh_0003

# Faces
f 1/1/1 2/2/1 3/3/1 4/4/1
f 5/5/1 6/6/1 7/7/1 8/8/1
f 9/9/1 10/10/1 11/11/1 12/12/1
f 13/13/1 14/14/1 15/15/1 16/16/1
f 17/17/1 18/18/1 19/19/1 20/20/1
f 21/1/1 22/2/1 23/3/1 24/4/1
f 25/1/1 26/2/1 27/3/1 28/4/1
f 29/5/1 30/6/1 31/7/1 32/8/1
f 33/9/1 34/10/1 35/11/1 36/12/1
f 37/13/1 38/14/1 39/15/1 40/16/1
f 41/17/1 42/18/1 43/19/1 44/20/1
f 45/1/1 46/2/1 47/3/1 48/4/1
f 49/1/1 50/2/1 51/3/1 52/4/1
f 53/5/1 54/6/1 55/7/1 56/8/1
f 57/9/1 58/10/1 59/11/1 60/12/1
f 61/13/1 62/14/1 63/15/1 64/16/1
f 65/17/1 66/18/1 67/19/1 68/20/1
f 69/1/1 70/2/1 71/3/1 72/4/1
f 73/1/1 74/2/1 75/3/1 76/4/1
f 77/5/1 78/6/1 79/7/1 80/8/1
f 81/9/1 82/10/1 83/11/1 84/12/1
f 85/13/1 86/14/1 87/15/1 88/16/1
f 89/17/1 90/18/1 91/19/1 92/20/1
f 93/1/1 94/2/1 95/3/1 96/4/1
f 97/1/1 98/2/1 99/3/1 100/4/1
f 101/5/1 102/6/1 103/7/1 104/8/1
f 105/9/1 106/10/1 107/11/1 108/12/1
f 109/13/1 110/14/1 111/15/1 112/16/1
f 113/17/1 114/18/1 115/19/1 116/20/1
f 117/1/1 118/2/1 119/3/1 120/4/1
f 121/1/1 122/2/1 123/3/1 124/4/1
f 125/5/1 126/6/1 127/7/1 128/8/1
f 129/21/1 130/22/1 131/23/1 132/24/1
f 133/25/1 134/26/1 135/27/1 136/28/1
f 137/25/1 138/26/1 139/27/1 140/28/1
f 141/25/1 142/26/1 143/27/1 144/28/1
f 145/25/1 146/26/1 147/27/1 148/28/1
f 149/25/1 150/26/1 151/27/1 152/28/1
f 153/25/1 154/26/1 155/27/1 156/28/1
f 157/25/1 158/26/1 159/27/1 160/28/1
f 161/25/1 162/26/1 163/27/1 164/28/1
f 165/29/1 166/30/1 167/31/1 168/32/1
f 169/17/1 170/18/1 171/19/1 172/20/1
f 173/1/1 174/2/1 175/3/1 176/4/1
f 177/1/1 178/2/1 179/3/1 180/4/1
f 181/5/1 182/6/1 183/7/1 184/8/1
f 185/17/1 186/18/1 187/19/1 188/20/1
f 189/1/1 190/2/1 191/3/1 192/4/1
f 193/1/1 194/2/1 195/3/1 196/4/1
f 197/5/1 198/6/1 199/7/1 200/8/1
f 201/17/1 202/18/1 203/19/1 204/20/1
f 205/1/1 206/2/1 207/3/1 208/4/1
f 209/1/1 210/2/1 211/3/1 212/4/1
f 213/5/1 214/6/1 215/7/1 216/8/1
f 217/17/1 218/18/1 219/19/1 220/20/1
f 221/1/1 222/2/1 223/3/1 224/4/1
f 225/1/1 226/2/1 227/3/1 228/4/1
f 229/5/1 230/6/1 231/7/1 232/8/1
f 233/17/1 234/18/1 235/19/1 236/20/1
f 237/1/1 238/2/1 239/3/1 240/4/1
f 241/1/1 242/2/1 243/3/1 244/4/1
f 245/5/1 246/6/1 247/7/1 248/8/1
f 249/17/1 250/18/1 251/19/1 252/20/1
f 253/1/1 254/2/1 255/3/1 256/4/1
f 257/1/1 258/2/1 259/3/1 260/4/1
f 261/5/1 262/6/1 263/7/1 264/8/1
f 265/17/1 266/18/1 267/19/1 268/20/1
f 269/1/1 270/2/1 271/3/1 272/4/1
f 273/1/1 274/2/1 275/3/1 276/4/1
f 277/5/1 278/6/1 279/7/1 280/8/1
f 281/17/1 282/18/1 283/19/1 284/20/1
f 285/1/1 286/2/1 287/3/1 288/4/1
f 289/1/1 290/2/1 291/3/1 292/4/1
f 293/5/1 294/6/1 295/7/1 296/8/1
f 297/17/1 298/18/1 299/19/1 300/20/1
f 301/1/1 302/2/1 303/3/1 304/4/1
f 305/1/1 306/2/1 307/3/1 308/4/1
f 309/5/1 310/6/1 311/7/1 312/8/1
f 313/17/1 314/18/1 315/19/1 316/20/1
f 317/1/1 318/2/1 319/3/1 320/4/1
f 321/1/1 322/2/1 323/3/1 324/4/1
f 325/5/1 326/6/1 327/7/1 328/8/1
f 329/33/1 330/34/1 331/35/1 332/36/1
f 333/33/1 334/34/1 335/35/1 336/36/1
f 337/17/1 338/18/1 339/19/1 340/20/1
f 341/1/1 342/2/1 343/3/1 344/4/1
f 345/1/1 346/2/1 347/3/1 348/4/1
f 349/5/1 350/6/1 351/7/1 352/8/1
f 353/17/1 354/18/1 355/19/1 356/20/1
f 357/1/1 358/2/1 359/3/1 360/4/1
f 361/1/1 362/2/1 363/3/1 364/4/1
f 365/5/1 366/6/1 367/7/1 368/8/1
f 369/17/1 370/18/1 371/19/1 372/20/1
f 373/1/1 374/2/1 375/3/1 376/4/1
f 377/1/1 378/2/1 379/3/1 380/4/1
f 381/5/1 382/6/1 383/7/1 384/8/1
f 385/17/1 386/18/1 387/19/1 388/20/1
f 389/1/1 390/2/1 391/3/1 392/4/1
f 393/1/1 394/2/1 395/3/1 396/4/1
f 397/5/1 398/6/1 399/7/1 400/8/1
f 401/17/1 402/18/1 403/19/1 404/20/1
f 405/1/1 406/2/1 407/3/1 408/4/1
f 409/1/1 410/2/1 411/3/1 412/4/1
f 413/5/1 414/6/1 415/7/1 416/8/1
f 417/17/1 418/18/1 419/19/1 420/20/1
f 421/1/1 422/2/1 423/3/1 424/4/1
f 425/1/1 426/2/1 427/3/1 428/4/1
f 429/5/1 430/6/1 431/7/1 432/8/1
f 433/17/1 434/18/1 435/19/1 436/20/1
f 437/1/1 438/2/1 439/3/1 440/4/1
f 441/1/1 442/2/1 443/3/1 444/4/1
f 445/5/1 446/6/1 447/7/1 448/8/1
f 449/17/1 450/18/1 451/19/1 452/20/1
f 453/1/1 454/2/1 455/3/1 456/4/1
f 457/1/1 458/2/1 459/3/1 460/4/1
f 461/5/1 462/6/1 463/7/1 464/8/1
f 465/17/1 466/18/1 467/19/1 468/20/1
f 469/1/1 470/2/1 471/3/1 472/4/1
f 473/1/1 474/2/1 475/3/1 476/4/1
f 477/5/1 478/6/1 479/7/1 480/8/1
f 481/17/1 482/18/1 483/19/1 484/20/1
f 485/1/1 486/2/1 487/3/1 488/4/1
f 489/1/1 490/2/1 491/3/1 492/4/1
f 493/5/1 494/6/1 495/7/1 496/8/1
f 497/17/1 498/18/1 499/19/1 500/20/1
f 501/1/1 502/2/1 503/3/1 504/4/1
f 505/1/1 506/2/1 507/3/1 508/4/1
f 509/5/1 510/6/1 511/7/1 512/8/1
f 513/17/1 514/18/1 515/19/1 516/20/1
f 517/1/1 518/2/1 519/3/1 520/4/1
f 521/1/1 522/2/1 523/3/1 524/4/1
f 525/5/1 526/6/1 527/7/1 528/8/1
f 529/17/1 530/18/1 531/19/1 532/20/1
f 533/1/1 534/2/1 535/3/1 536/4/1
f 537/1/1 538/2/1 539/3/1 540/4/1
f 541/5/1 542/6/1 543/7/1 544/8/1
f 545/17/1 546/18/1 547/19/1 548/20/1
f 549/1/1 550/2/1 551/3/1 552/4/1
f 553/1/1 554/2/1 555/3/1 556/4/1
f 557/5/1 558/6/1 559/7/1 560/8/1
f 561/17/1 562/18/1 563/19/1 564/20/1
f 565/1/1 566/2/1 567/3/1 568/4/1
f 569/1/1 570/2/1 571/3/1 572/4/1
f 573/5/1 574/6/1 575/7/1 576/8/1
f 577/17/1 578/18/1 579/19/1 580/20/1
f 581/1/1 582/2/1 583/3/1 584/4/1

