# Tiled2Unity generated file. Do not modify by hand.
# Wavefront file for 'BibliotecaNuevaComplete_mesh_0007.obj'

# Vertices (Count = 16)
v -13 -1 0
v -14 -1 0
v -14 0 0
v -13 0 0
v -28 -1 0
v -29 -1 0
v -29 0 0
v -28 0 0
v -13 -2 0
v -14 -2 0
v -14 -1 0
v -13 -1 0
v -28 -2 0
v -29 -2 0
v -29 -1 0
v -28 -1 0

# Texture cooridinates (Count = 16)
vt 0.07024793 0.4524715
vt 0.08677686 0.4524715
vt 0.08677686 0.4828897
vt 0.07024793 0.4828897
vt 0.03512397 0.4524715
vt 0.05165289 0.4524715
vt 0.05165289 0.4828897
vt 0.03512397 0.4828897
vt 0.07024793 0.4201521
vt 0.08677686 0.4201521
vt 0.08677686 0.4505703
vt 0.07024793 0.4505703
vt 0.03512397 0.4201521
vt 0.05165289 0.4201521
vt 0.05165289 0.4505703
vt 0.03512397 0.4505703

# Normal
vn 0 0 -1

# Mesh description
g BibliotecaNuevaComplete_mesh_0007

# Faces
f 1/1/1 2/2/1 3/3/1 4/4/1
f 5/5/1 6/6/1 7/7/1 8/8/1
f 9/9/1 10/10/1 11/11/1 12/12/1
f 13/13/1 14/14/1 15/15/1 16/16/1

