# Tiled2Unity generated file. Do not modify by hand.
# Wavefront file for 'BibliotecaNuevaComplete_mesh_0009.obj'

# Vertices (Count = 16)
v -19 -7 0
v -20 -7 0
v -20 -6 0
v -19 -6 0
v -20 -7 0
v -21 -7 0
v -21 -6 0
v -20 -6 0
v -21 -7 0
v -22 -7 0
v -22 -6 0
v -21 -6 0
v -22 -7 0
v -23 -7 0
v -23 -6 0
v -22 -6 0

# Texture cooridinates (Count = 12)
vt 0.4984568 0.6442105
vt 0.5231481 0.6442105
vt 0.5231481 0.6778947
vt 0.4984568 0.6778947
vt 0.5246913 0.6442105
vt 0.5493827 0.6442105
vt 0.5493827 0.6778947
vt 0.5246913 0.6778947
vt 0.5509259 0.6442105
vt 0.5756173 0.6442105
vt 0.5756173 0.6778947
vt 0.5509259 0.6778947

# Normal
vn 0 0 -1

# Mesh description
g BibliotecaNuevaComplete_mesh_0009

# Faces
f 1/1/1 2/2/1 3/3/1 4/4/1
f 5/5/1 6/6/1 7/7/1 8/8/1
f 9/5/1 10/6/1 11/7/1 12/8/1
f 13/9/1 14/10/1 15/11/1 16/12/1

