# Tiled2Unity generated file. Do not modify by hand.
# Wavefront file for 'BibliotecaNuevaComplete_mesh_0004.obj'

# Vertices (Count = 588)
v 0 -1 0
v -1 -1 0
v -1 0 0
v 0 0 0
v -1 -1 0
v -2 -1 0
v -2 0 0
v -1 0 0
v -2 -1 0
v -3 -1 0
v -3 0 0
v -2 0 0
v -3 -1 0
v -4 -1 0
v -4 0 0
v -3 0 0
v -4 -1 0
v -5 -1 0
v -5 0 0
v -4 0 0
v -5 -1 0
v -6 -1 0
v -6 0 0
v -5 0 0
v -6 -1 0
v -7 -1 0
v -7 0 0
v -6 0 0
v -7 -1 0
v -8 -1 0
v -8 0 0
v -7 0 0
v -8 -1 0
v -9 -1 0
v -9 0 0
v -8 0 0
v -9 -1 0
v -10 -1 0
v -10 0 0
v -9 0 0
v -10 -1 0
v -11 -1 0
v -11 0 0
v -10 0 0
v -11 -1 0
v -12 -1 0
v -12 0 0
v -11 0 0
v -12 -1 0
v -13 -1 0
v -13 0 0
v -12 0 0
v -29 -1 0
v -30 -1 0
v -30 0 0
v -29 0 0
v -30 -1 0
v -31 -1 0
v -31 0 0
v -30 0 0
v -31 -1 0
v -32 -1 0
v -32 0 0
v -31 0 0
v -32 -1 0
v -33 -1 0
v -33 0 0
v -32 0 0
v -33 -1 0
v -34 -1 0
v -34 0 0
v -33 0 0
v -34 -1 0
v -35 -1 0
v -35 0 0
v -34 0 0
v -35 -1 0
v -36 -1 0
v -36 0 0
v -35 0 0
v -36 -1 0
v -37 -1 0
v -37 0 0
v -36 0 0
v -37 -1 0
v -38 -1 0
v -38 0 0
v -37 0 0
v -38 -1 0
v -39 -1 0
v -39 0 0
v -38 0 0
v -39 -1 0
v -40 -1 0
v -40 0 0
v -39 0 0
v -40 -1 0
v -41 -1 0
v -41 0 0
v -40 0 0
v -41 -1 0
v -42 -1 0
v -42 0 0
v -41 0 0
v 0 -2 0
v -1 -2 0
v -1 -1 0
v 0 -1 0
v -1 -2 0
v -2 -2 0
v -2 -1 0
v -1 -1 0
v -2 -2 0
v -3 -2 0
v -3 -1 0
v -2 -1 0
v -3 -2 0
v -4 -2 0
v -4 -1 0
v -3 -1 0
v -4 -2 0
v -5 -2 0
v -5 -1 0
v -4 -1 0
v -5 -2 0
v -6 -2 0
v -6 -1 0
v -5 -1 0
v -6 -2 0
v -7 -2 0
v -7 -1 0
v -6 -1 0
v -7 -2 0
v -8 -2 0
v -8 -1 0
v -7 -1 0
v -8 -2 0
v -9 -2 0
v -9 -1 0
v -8 -1 0
v -9 -2 0
v -10 -2 0
v -10 -1 0
v -9 -1 0
v -10 -2 0
v -11 -2 0
v -11 -1 0
v -10 -1 0
v -11 -2 0
v -12 -2 0
v -12 -1 0
v -11 -1 0
v -12 -2 0
v -13 -2 0
v -13 -1 0
v -12 -1 0
v -29 -2 0
v -30 -2 0
v -30 -1 0
v -29 -1 0
v -30 -2 0
v -31 -2 0
v -31 -1 0
v -30 -1 0
v -31 -2 0
v -32 -2 0
v -32 -1 0
v -31 -1 0
v -32 -2 0
v -33 -2 0
v -33 -1 0
v -32 -1 0
v -33 -2 0
v -34 -2 0
v -34 -1 0
v -33 -1 0
v -34 -2 0
v -35 -2 0
v -35 -1 0
v -34 -1 0
v -35 -2 0
v -36 -2 0
v -36 -1 0
v -35 -1 0
v -36 -2 0
v -37 -2 0
v -37 -1 0
v -36 -1 0
v -37 -2 0
v -38 -2 0
v -38 -1 0
v -37 -1 0
v -38 -2 0
v -39 -2 0
v -39 -1 0
v -38 -1 0
v -39 -2 0
v -40 -2 0
v -40 -1 0
v -39 -1 0
v -40 -2 0
v -41 -2 0
v -41 -1 0
v -40 -1 0
v -41 -2 0
v -42 -2 0
v -42 -1 0
v -41 -1 0
v -41 -5 0
v -42 -5 0
v -42 -4 0
v -41 -4 0
v 0 -6 0
v -1 -6 0
v -1 -5 0
v 0 -5 0
v -40 -6 0
v -41 -6 0
v -41 -5 0
v -40 -5 0
v -1 -10 0
v -2 -10 0
v -2 -9 0
v -1 -9 0
v -40 -13 0
v -41 -13 0
v -41 -12 0
v -40 -12 0
v 0 -15 0
v -1 -15 0
v -1 -14 0
v 0 -14 0
v -41 -17 0
v -42 -17 0
v -42 -16 0
v -41 -16 0
v 0 -18 0
v -1 -18 0
v -1 -17 0
v 0 -17 0
v -41 -23 0
v -42 -23 0
v -42 -22 0
v -41 -22 0
v -1 -27 0
v -2 -27 0
v -2 -26 0
v -1 -26 0
v -40 -28 0
v -41 -28 0
v -41 -27 0
v -40 -27 0
v 0 -30 0
v -1 -30 0
v -1 -29 0
v 0 -29 0
v -1 -30 0
v -2 -30 0
v -2 -29 0
v -1 -29 0
v -2 -30 0
v -3 -30 0
v -3 -29 0
v -2 -29 0
v -3 -30 0
v -4 -30 0
v -4 -29 0
v -3 -29 0
v -4 -30 0
v -5 -30 0
v -5 -29 0
v -4 -29 0
v -5 -30 0
v -6 -30 0
v -6 -29 0
v -5 -29 0
v -6 -30 0
v -7 -30 0
v -7 -29 0
v -6 -29 0
v -7 -30 0
v -8 -30 0
v -8 -29 0
v -7 -29 0
v -8 -30 0
v -9 -30 0
v -9 -29 0
v -8 -29 0
v -9 -30 0
v -10 -30 0
v -10 -29 0
v -9 -29 0
v -10 -30 0
v -11 -30 0
v -11 -29 0
v -10 -29 0
v -11 -30 0
v -12 -30 0
v -12 -29 0
v -11 -29 0
v -12 -30 0
v -13 -30 0
v -13 -29 0
v -12 -29 0
v -13 -30 0
v -14 -30 0
v -14 -29 0
v -13 -29 0
v -14 -30 0
v -15 -30 0
v -15 -29 0
v -14 -29 0
v -15 -30 0
v -16 -30 0
v -16 -29 0
v -15 -29 0
v -16 -30 0
v -17 -30 0
v -17 -29 0
v -16 -29 0
v -17 -30 0
v -18 -30 0
v -18 -29 0
v -17 -29 0
v -18 -30 0
v -19 -30 0
v -19 -29 0
v -18 -29 0
v -19 -30 0
v -20 -30 0
v -20 -29 0
v -19 -29 0
v -20 -30 0
v -21 -30 0
v -21 -29 0
v -20 -29 0
v -21 -30 0
v -22 -30 0
v -22 -29 0
v -21 -29 0
v -22 -30 0
v -23 -30 0
v -23 -29 0
v -22 -29 0
v -23 -30 0
v -24 -30 0
v -24 -29 0
v -23 -29 0
v -24 -30 0
v -25 -30 0
v -25 -29 0
v -24 -29 0
v -25 -30 0
v -26 -30 0
v -26 -29 0
v -25 -29 0
v -26 -30 0
v -27 -30 0
v -27 -29 0
v -26 -29 0
v -27 -30 0
v -28 -30 0
v -28 -29 0
v -27 -29 0
v -28 -30 0
v -29 -30 0
v -29 -29 0
v -28 -29 0
v -29 -30 0
v -30 -30 0
v -30 -29 0
v -29 -29 0
v -30 -30 0
v -31 -30 0
v -31 -29 0
v -30 -29 0
v -31 -30 0
v -32 -30 0
v -32 -29 0
v -31 -29 0
v -32 -30 0
v -33 -30 0
v -33 -29 0
v -32 -29 0
v -33 -30 0
v -34 -30 0
v -34 -29 0
v -33 -29 0
v -34 -30 0
v -35 -30 0
v -35 -29 0
v -34 -29 0
v -35 -30 0
v -36 -30 0
v -36 -29 0
v -35 -29 0
v -36 -30 0
v -37 -30 0
v -37 -29 0
v -36 -29 0
v -37 -30 0
v -38 -30 0
v -38 -29 0
v -37 -29 0
v -38 -30 0
v -39 -30 0
v -39 -29 0
v -38 -29 0
v -39 -30 0
v -40 -30 0
v -40 -29 0
v -39 -29 0
v -40 -30 0
v -41 -30 0
v -41 -29 0
v -40 -29 0
v -41 -30 0
v -42 -30 0
v -42 -29 0
v -41 -29 0
v 0 -31 0
v -1 -31 0
v -1 -30 0
v 0 -30 0
v -1 -31 0
v -2 -31 0
v -2 -30 0
v -1 -30 0
v -2 -31 0
v -3 -31 0
v -3 -30 0
v -2 -30 0
v -3 -31 0
v -4 -31 0
v -4 -30 0
v -3 -30 0
v -4 -31 0
v -5 -31 0
v -5 -30 0
v -4 -30 0
v -5 -31 0
v -6 -31 0
v -6 -30 0
v -5 -30 0
v -6 -31 0
v -7 -31 0
v -7 -30 0
v -6 -30 0
v -7 -31 0
v -8 -31 0
v -8 -30 0
v -7 -30 0
v -8 -31 0
v -9 -31 0
v -9 -30 0
v -8 -30 0
v -9 -31 0
v -10 -31 0
v -10 -30 0
v -9 -30 0
v -10 -31 0
v -11 -31 0
v -11 -30 0
v -10 -30 0
v -11 -31 0
v -12 -31 0
v -12 -30 0
v -11 -30 0
v -12 -31 0
v -13 -31 0
v -13 -30 0
v -12 -30 0
v -13 -31 0
v -14 -31 0
v -14 -30 0
v -13 -30 0
v -14 -31 0
v -15 -31 0
v -15 -30 0
v -14 -30 0
v -15 -31 0
v -16 -31 0
v -16 -30 0
v -15 -30 0
v -16 -31 0
v -17 -31 0
v -17 -30 0
v -16 -30 0
v -17 -31 0
v -18 -31 0
v -18 -30 0
v -17 -30 0
v -18 -31 0
v -19 -31 0
v -19 -30 0
v -18 -30 0
v -19 -31 0
v -20 -31 0
v -20 -30 0
v -19 -30 0
v -20 -31 0
v -21 -31 0
v -21 -30 0
v -20 -30 0
v -21 -31 0
v -22 -31 0
v -22 -30 0
v -21 -30 0
v -22 -31 0
v -23 -31 0
v -23 -30 0
v -22 -30 0
v -23 -31 0
v -24 -31 0
v -24 -30 0
v -23 -30 0
v -24 -31 0
v -25 -31 0
v -25 -30 0
v -24 -30 0
v -25 -31 0
v -26 -31 0
v -26 -30 0
v -25 -30 0
v -26 -31 0
v -27 -31 0
v -27 -30 0
v -26 -30 0
v -27 -31 0
v -28 -31 0
v -28 -30 0
v -27 -30 0
v -28 -31 0
v -29 -31 0
v -29 -30 0
v -28 -30 0
v -29 -31 0
v -30 -31 0
v -30 -30 0
v -29 -30 0
v -30 -31 0
v -31 -31 0
v -31 -30 0
v -30 -30 0
v -31 -31 0
v -32 -31 0
v -32 -30 0
v -31 -30 0
v -32 -31 0
v -33 -31 0
v -33 -30 0
v -32 -30 0
v -33 -31 0
v -34 -31 0
v -34 -30 0
v -33 -30 0
v -34 -31 0
v -35 -31 0
v -35 -30 0
v -34 -30 0
v -35 -31 0
v -36 -31 0
v -36 -30 0
v -35 -30 0
v -36 -31 0
v -37 -31 0
v -37 -30 0
v -36 -30 0
v -37 -31 0
v -38 -31 0
v -38 -30 0
v -37 -30 0
v -38 -31 0
v -39 -31 0
v -39 -30 0
v -38 -30 0
v -39 -31 0
v -40 -31 0
v -40 -30 0
v -39 -30 0
v -40 -31 0
v -41 -31 0
v -41 -30 0
v -40 -30 0
v -41 -31 0
v -42 -31 0
v -42 -30 0
v -41 -30 0

# Texture cooridinates (Count = 32)
vt 0.05268595 0.4524715
vt 0.06921487 0.4524715
vt 0.06921487 0.4828897
vt 0.05268595 0.4828897
vt 0.01756198 0.5152091
vt 0.01756198 0.4847909
vt 0.03409091 0.4847909
vt 0.03409091 0.5152091
vt 0.05268595 0.4201521
vt 0.06921487 0.4201521
vt 0.06921487 0.4505703
vt 0.05268595 0.4505703
vt 0.4390496 0.6140684
vt 0.4555785 0.6140684
vt 0.4555785 0.6444867
vt 0.4390496 0.6444867
vt 0.3863636 0.6463878
vt 0.4028926 0.6463878
vt 0.4028926 0.6768061
vt 0.3863636 0.6768061
vt 0.3863636 0.6140684
vt 0.4028926 0.6140684
vt 0.4028926 0.6444867
vt 0.3863636 0.6444867
vt 0 0.4524715
vt 0.01652892 0.4524715
vt 0.01652892 0.4828897
vt 0 0.4828897
vt 0.05268595 0.4847909
vt 0.06921487 0.4847909
vt 0.06921487 0.5152091
vt 0.05268595 0.5152091

# Normal
vn 0 0 -1

# Mesh description
g BibliotecaNuevaComplete_mesh_0004

# Faces
f 1/1/1 2/2/1 3/3/1 4/4/1
f 5/1/1 6/2/1 7/3/1 8/4/1
f 9/1/1 10/2/1 11/3/1 12/4/1
f 13/1/1 14/2/1 15/3/1 16/4/1
f 17/1/1 18/2/1 19/3/1 20/4/1
f 21/1/1 22/2/1 23/3/1 24/4/1
f 25/1/1 26/2/1 27/3/1 28/4/1
f 29/1/1 30/2/1 31/3/1 32/4/1
f 33/1/1 34/2/1 35/3/1 36/4/1
f 37/1/1 38/2/1 39/3/1 40/4/1
f 41/1/1 42/2/1 43/3/1 44/4/1
f 45/1/1 46/2/1 47/3/1 48/4/1
f 49/1/1 50/2/1 51/3/1 52/4/1
f 53/1/1 54/2/1 55/3/1 56/4/1
f 57/1/1 58/2/1 59/3/1 60/4/1
f 61/1/1 62/2/1 63/3/1 64/4/1
f 65/1/1 66/2/1 67/3/1 68/4/1
f 69/1/1 70/2/1 71/3/1 72/4/1
f 73/1/1 74/2/1 75/3/1 76/4/1
f 77/1/1 78/2/1 79/3/1 80/4/1
f 81/1/1 82/2/1 83/3/1 84/4/1
f 85/1/1 86/2/1 87/3/1 88/4/1
f 89/1/1 90/2/1 91/3/1 92/4/1
f 93/1/1 94/2/1 95/3/1 96/4/1
f 97/1/1 98/2/1 99/3/1 100/4/1
f 101/1/1 102/2/1 103/3/1 104/4/1
f 105/1/1 106/2/1 107/3/1 108/4/1
f 109/5/1 110/6/1 111/7/1 112/8/1
f 113/9/1 114/10/1 115/11/1 116/12/1
f 117/9/1 118/10/1 119/11/1 120/12/1
f 121/9/1 122/10/1 123/11/1 124/12/1
f 125/9/1 126/10/1 127/11/1 128/12/1
f 129/9/1 130/10/1 131/11/1 132/12/1
f 133/9/1 134/10/1 135/11/1 136/12/1
f 137/9/1 138/10/1 139/11/1 140/12/1
f 141/9/1 142/10/1 143/11/1 144/12/1
f 145/9/1 146/10/1 147/11/1 148/12/1
f 149/9/1 150/10/1 151/11/1 152/12/1
f 153/9/1 154/10/1 155/11/1 156/12/1
f 157/9/1 158/10/1 159/11/1 160/12/1
f 161/9/1 162/10/1 163/11/1 164/12/1
f 165/9/1 166/10/1 167/11/1 168/12/1
f 169/9/1 170/10/1 171/11/1 172/12/1
f 173/9/1 174/10/1 175/11/1 176/12/1
f 177/9/1 178/10/1 179/11/1 180/12/1
f 181/9/1 182/10/1 183/11/1 184/12/1
f 185/9/1 186/10/1 187/11/1 188/12/1
f 189/9/1 190/10/1 191/11/1 192/12/1
f 193/9/1 194/10/1 195/11/1 196/12/1
f 197/9/1 198/10/1 199/11/1 200/12/1
f 201/6/1 202/7/1 203/8/1 204/5/1
f 205/1/1 206/2/1 207/3/1 208/4/1
f 209/13/1 210/14/1 211/15/1 212/16/1
f 213/13/1 214/14/1 215/15/1 216/16/1
f 217/17/1 218/18/1 219/19/1 220/20/1
f 221/17/1 222/18/1 223/19/1 224/20/1
f 225/21/1 226/22/1 227/23/1 228/24/1
f 229/17/1 230/18/1 231/19/1 232/20/1
f 233/13/1 234/14/1 235/15/1 236/16/1
f 237/13/1 238/14/1 239/15/1 240/16/1
f 241/17/1 242/18/1 243/19/1 244/20/1
f 245/13/1 246/14/1 247/15/1 248/16/1
f 249/13/1 250/14/1 251/15/1 252/16/1
f 253/1/1 254/2/1 255/3/1 256/4/1
f 257/25/1 258/26/1 259/27/1 260/28/1
f 261/29/1 262/30/1 263/31/1 264/32/1
f 265/29/1 266/30/1 267/31/1 268/32/1
f 269/29/1 270/30/1 271/31/1 272/32/1
f 273/29/1 274/30/1 275/31/1 276/32/1
f 277/29/1 278/30/1 279/31/1 280/32/1
f 281/29/1 282/30/1 283/31/1 284/32/1
f 285/29/1 286/30/1 287/31/1 288/32/1
f 289/29/1 290/30/1 291/31/1 292/32/1
f 293/29/1 294/30/1 295/31/1 296/32/1
f 297/29/1 298/30/1 299/31/1 300/32/1
f 301/29/1 302/30/1 303/31/1 304/32/1
f 305/29/1 306/30/1 307/31/1 308/32/1
f 309/29/1 310/30/1 311/31/1 312/32/1
f 313/29/1 314/30/1 315/31/1 316/32/1
f 317/29/1 318/30/1 319/31/1 320/32/1
f 321/29/1 322/30/1 323/31/1 324/32/1
f 325/29/1 326/30/1 327/31/1 328/32/1
f 329/29/1 330/30/1 331/31/1 332/32/1
f 333/29/1 334/30/1 335/31/1 336/32/1
f 337/29/1 338/30/1 339/31/1 340/32/1
f 341/29/1 342/30/1 343/31/1 344/32/1
f 345/29/1 346/30/1 347/31/1 348/32/1
f 349/29/1 350/30/1 351/31/1 352/32/1
f 353/29/1 354/30/1 355/31/1 356/32/1
f 357/29/1 358/30/1 359/31/1 360/32/1
f 361/29/1 362/30/1 363/31/1 364/32/1
f 365/29/1 366/30/1 367/31/1 368/32/1
f 369/29/1 370/30/1 371/31/1 372/32/1
f 373/29/1 374/30/1 375/31/1 376/32/1
f 377/29/1 378/30/1 379/31/1 380/32/1
f 381/29/1 382/30/1 383/31/1 384/32/1
f 385/29/1 386/30/1 387/31/1 388/32/1
f 389/29/1 390/30/1 391/31/1 392/32/1
f 393/29/1 394/30/1 395/31/1 396/32/1
f 397/29/1 398/30/1 399/31/1 400/32/1
f 401/29/1 402/30/1 403/31/1 404/32/1
f 405/29/1 406/30/1 407/31/1 408/32/1
f 409/29/1 410/30/1 411/31/1 412/32/1
f 413/28/1 414/25/1 415/26/1 416/27/1
f 417/1/1 418/2/1 419/3/1 420/4/1
f 421/1/1 422/2/1 423/3/1 424/4/1
f 425/1/1 426/2/1 427/3/1 428/4/1
f 429/1/1 430/2/1 431/3/1 432/4/1
f 433/1/1 434/2/1 435/3/1 436/4/1
f 437/1/1 438/2/1 439/3/1 440/4/1
f 441/1/1 442/2/1 443/3/1 444/4/1
f 445/1/1 446/2/1 447/3/1 448/4/1
f 449/1/1 450/2/1 451/3/1 452/4/1
f 453/1/1 454/2/1 455/3/1 456/4/1
f 457/1/1 458/2/1 459/3/1 460/4/1
f 461/1/1 462/2/1 463/3/1 464/4/1
f 465/1/1 466/2/1 467/3/1 468/4/1
f 469/1/1 470/2/1 471/3/1 472/4/1
f 473/1/1 474/2/1 475/3/1 476/4/1
f 477/1/1 478/2/1 479/3/1 480/4/1
f 481/1/1 482/2/1 483/3/1 484/4/1
f 485/1/1 486/2/1 487/3/1 488/4/1
f 489/1/1 490/2/1 491/3/1 492/4/1
f 493/1/1 494/2/1 495/3/1 496/4/1
f 497/1/1 498/2/1 499/3/1 500/4/1
f 501/1/1 502/2/1 503/3/1 504/4/1
f 505/1/1 506/2/1 507/3/1 508/4/1
f 509/1/1 510/2/1 511/3/1 512/4/1
f 513/1/1 514/2/1 515/3/1 516/4/1
f 517/1/1 518/2/1 519/3/1 520/4/1
f 521/1/1 522/2/1 523/3/1 524/4/1
f 525/1/1 526/2/1 527/3/1 528/4/1
f 529/1/1 530/2/1 531/3/1 532/4/1
f 533/1/1 534/2/1 535/3/1 536/4/1
f 537/1/1 538/2/1 539/3/1 540/4/1
f 541/1/1 542/2/1 543/3/1 544/4/1
f 545/1/1 546/2/1 547/3/1 548/4/1
f 549/1/1 550/2/1 551/3/1 552/4/1
f 553/1/1 554/2/1 555/3/1 556/4/1
f 557/1/1 558/2/1 559/3/1 560/4/1
f 561/1/1 562/2/1 563/3/1 564/4/1
f 565/1/1 566/2/1 567/3/1 568/4/1
f 569/1/1 570/2/1 571/3/1 572/4/1
f 573/1/1 574/2/1 575/3/1 576/4/1
f 577/1/1 578/2/1 579/3/1 580/4/1
f 581/1/1 582/2/1 583/3/1 584/4/1
f 585/1/1 586/2/1 587/3/1 588/4/1

