# Tiled2Unity generated file. Do not modify by hand.
# Wavefront file for 'FiecFEPOL_mesh_0025.obj'

# Vertices (Count = 692)
v -146 -50 0
v -147 -50 0
v -147 -49 0
v -146 -49 0
v -147 -50 0
v -148 -50 0
v -148 -49 0
v -147 -49 0
v -149 -51 0
v -150 -51 0
v -150 -50 0
v -149 -50 0
v -150 -51 0
v -151 -51 0
v -151 -50 0
v -150 -50 0
v -143 -52 0
v -144 -52 0
v -144 -51 0
v -143 -51 0
v -148 -52 0
v -149 -52 0
v -149 -51 0
v -148 -51 0
v -151 -52 0
v -152 -52 0
v -152 -51 0
v -151 -51 0
v -87 -53 0
v -88 -53 0
v -88 -52 0
v -87 -52 0
v -122 -53 0
v -123 -53 0
v -123 -52 0
v -122 -52 0
v -145 -53 0
v -146 -53 0
v -146 -52 0
v -145 -52 0
v -146 -53 0
v -147 -53 0
v -147 -52 0
v -146 -52 0
v -147 -53 0
v -148 -53 0
v -148 -52 0
v -147 -52 0
v -144 -54 0
v -145 -54 0
v -145 -53 0
v -144 -53 0
v -151 -54 0
v -152 -54 0
v -152 -53 0
v -151 -53 0
v -153 -54 0
v -154 -54 0
v -154 -53 0
v -153 -53 0
v -154 -54 0
v -155 -54 0
v -155 -53 0
v -154 -53 0
v -124 -55 0
v -125 -55 0
v -125 -54 0
v -124 -54 0
v -141 -55 0
v -142 -55 0
v -142 -54 0
v -141 -54 0
v -152 -55 0
v -153 -55 0
v -153 -54 0
v -152 -54 0
v -87 -56 0
v -88 -56 0
v -88 -55 0
v -87 -55 0
v -122 -56 0
v -123 -56 0
v -123 -55 0
v -122 -55 0
v -123 -56 0
v -124 -56 0
v -124 -55 0
v -123 -55 0
v -125 -56 0
v -126 -56 0
v -126 -55 0
v -125 -55 0
v -140 -56 0
v -141 -56 0
v -141 -55 0
v -140 -55 0
v -142 -56 0
v -143 -56 0
v -143 -55 0
v -142 -55 0
v -143 -56 0
v -144 -56 0
v -144 -55 0
v -143 -55 0
v -153 -56 0
v -154 -56 0
v -154 -55 0
v -153 -55 0
v -138 -57 0
v -139 -57 0
v -139 -56 0
v -138 -56 0
v -145 -57 0
v -146 -57 0
v -146 -56 0
v -145 -56 0
v -149 -57 0
v -150 -57 0
v -150 -56 0
v -149 -56 0
v -155 -57 0
v -156 -57 0
v -156 -56 0
v -155 -56 0
v -126 -58 0
v -127 -58 0
v -127 -57 0
v -126 -57 0
v -87 -59 0
v -88 -59 0
v -88 -58 0
v -87 -58 0
v -124 -59 0
v -125 -59 0
v -125 -58 0
v -124 -58 0
v -125 -60 0
v -126 -60 0
v -126 -59 0
v -125 -59 0
v -127 -60 0
v -128 -60 0
v -128 -59 0
v -127 -59 0
v -126 -61 0
v -127 -61 0
v -127 -60 0
v -126 -60 0
v -87 -62 0
v -88 -62 0
v -88 -61 0
v -87 -61 0
v -127 -62 0
v -128 -62 0
v -128 -61 0
v -127 -61 0
v -135 -62 0
v -136 -62 0
v -136 -61 0
v -135 -61 0
v -136 -62 0
v -137 -62 0
v -137 -61 0
v -136 -61 0
v -139 -62 0
v -140 -62 0
v -140 -61 0
v -139 -61 0
v -142 -62 0
v -143 -62 0
v -143 -61 0
v -142 -61 0
v -145 -62 0
v -146 -62 0
v -146 -61 0
v -145 -61 0
v -147 -62 0
v -148 -62 0
v -148 -61 0
v -147 -61 0
v -149 -62 0
v -150 -62 0
v -150 -61 0
v -149 -61 0
v -151 -62 0
v -152 -62 0
v -152 -61 0
v -151 -61 0
v -156 -62 0
v -157 -62 0
v -157 -61 0
v -156 -61 0
v -157 -62 0
v -158 -62 0
v -158 -61 0
v -157 -61 0
v -159 -62 0
v -160 -62 0
v -160 -61 0
v -159 -61 0
v -126 -63 0
v -127 -63 0
v -127 -62 0
v -126 -62 0
v -132 -63 0
v -133 -63 0
v -133 -62 0
v -132 -62 0
v -134 -63 0
v -135 -63 0
v -135 -62 0
v -134 -62 0
v -137 -63 0
v -138 -63 0
v -138 -62 0
v -137 -62 0
v -138 -63 0
v -139 -63 0
v -139 -62 0
v -138 -62 0
v -140 -63 0
v -141 -63 0
v -141 -62 0
v -140 -62 0
v -143 -63 0
v -144 -63 0
v -144 -62 0
v -143 -62 0
v -146 -63 0
v -147 -63 0
v -147 -62 0
v -146 -62 0
v -148 -63 0
v -149 -63 0
v -149 -62 0
v -148 -62 0
v -150 -63 0
v -151 -63 0
v -151 -62 0
v -150 -62 0
v -153 -63 0
v -154 -63 0
v -154 -62 0
v -153 -62 0
v -155 -63 0
v -156 -63 0
v -156 -62 0
v -155 -62 0
v -158 -63 0
v -159 -63 0
v -159 -62 0
v -158 -62 0
v -161 -63 0
v -162 -63 0
v -162 -62 0
v -161 -62 0
v -82 -66 0
v -83 -66 0
v -83 -65 0
v -82 -65 0
v -92 -66 0
v -93 -66 0
v -93 -65 0
v -92 -65 0
v -93 -66 0
v -94 -66 0
v -94 -65 0
v -93 -65 0
v -110 -67 0
v -111 -67 0
v -111 -66 0
v -110 -66 0
v -111 -67 0
v -112 -67 0
v -112 -66 0
v -111 -66 0
v -127 -68 0
v -128 -68 0
v -128 -67 0
v -127 -67 0
v -110 -69 0
v -111 -69 0
v -111 -68 0
v -110 -68 0
v -111 -69 0
v -112 -69 0
v -112 -68 0
v -111 -68 0
v -134 -71 0
v -135 -71 0
v -135 -70 0
v -134 -70 0
v -88 -73 0
v -89 -73 0
v -89 -72 0
v -88 -72 0
v -161 -74 0
v -162 -74 0
v -162 -73 0
v -161 -73 0
v -133 -75 0
v -134 -75 0
v -134 -74 0
v -133 -74 0
v -88 -76 0
v -89 -76 0
v -89 -75 0
v -88 -75 0
v -120 -76 0
v -121 -76 0
v -121 -75 0
v -120 -75 0
v -121 -76 0
v -122 -76 0
v -122 -75 0
v -121 -75 0
v -117 -77 0
v -118 -77 0
v -118 -76 0
v -117 -76 0
v -119 -77 0
v -120 -77 0
v -120 -76 0
v -119 -76 0
v -161 -77 0
v -162 -77 0
v -162 -76 0
v -161 -76 0
v -122 -78 0
v -123 -78 0
v -123 -77 0
v -122 -77 0
v -163 -78 0
v -164 -78 0
v -164 -77 0
v -163 -77 0
v -88 -79 0
v -89 -79 0
v -89 -78 0
v -88 -78 0
v -89 -79 0
v -90 -79 0
v -90 -78 0
v -89 -78 0
v -118 -79 0
v -119 -79 0
v -119 -78 0
v -118 -78 0
v -119 -79 0
v -120 -79 0
v -120 -78 0
v -119 -78 0
v -162 -79 0
v -163 -79 0
v -163 -78 0
v -162 -78 0
v -131 -80 0
v -132 -80 0
v -132 -79 0
v -131 -79 0
v -117 -81 0
v -118 -81 0
v -118 -80 0
v -117 -80 0
v -118 -81 0
v -119 -81 0
v -119 -80 0
v -118 -80 0
v -119 -81 0
v -120 -81 0
v -120 -80 0
v -119 -80 0
v -133 -81 0
v -134 -81 0
v -134 -80 0
v -133 -80 0
v -117 -83 0
v -118 -83 0
v -118 -82 0
v -117 -82 0
v -129 -83 0
v -130 -83 0
v -130 -82 0
v -129 -82 0
v -130 -83 0
v -131 -83 0
v -131 -82 0
v -130 -82 0
v -131 -83 0
v -132 -83 0
v -132 -82 0
v -131 -82 0
v -127 -84 0
v -128 -84 0
v -128 -83 0
v -127 -83 0
v -131 -84 0
v -132 -84 0
v -132 -83 0
v -131 -83 0
v -139 -86 0
v -140 -86 0
v -140 -85 0
v -139 -85 0
v -140 -86 0
v -141 -86 0
v -141 -85 0
v -140 -85 0
v -141 -86 0
v -142 -86 0
v -142 -85 0
v -141 -85 0
v -121 -87 0
v -122 -87 0
v -122 -86 0
v -121 -86 0
v -124 -87 0
v -125 -87 0
v -125 -86 0
v -124 -86 0
v -113 -88 0
v -114 -88 0
v -114 -87 0
v -113 -87 0
v -127 -88 0
v -128 -88 0
v -128 -87 0
v -127 -87 0
v -143 -88 0
v -144 -88 0
v -144 -87 0
v -143 -87 0
v -158 -88 0
v -159 -88 0
v -159 -87 0
v -158 -87 0
v -98 -90 0
v -99 -90 0
v -99 -89 0
v -98 -89 0
v -135 -91 0
v -136 -91 0
v -136 -90 0
v -135 -90 0
v -102 -96 0
v -103 -96 0
v -103 -95 0
v -102 -95 0
v -113 -97 0
v -114 -97 0
v -114 -96 0
v -113 -96 0
v -100 -98 0
v -101 -98 0
v -101 -97 0
v -100 -97 0
v -106 -98 0
v -107 -98 0
v -107 -97 0
v -106 -97 0
v -113 -99 0
v -114 -99 0
v -114 -98 0
v -113 -98 0
v -113 -101 0
v -114 -101 0
v -114 -100 0
v -113 -100 0
v -98 -102 0
v -99 -102 0
v -99 -101 0
v -98 -101 0
v -99 -102 0
v -100 -102 0
v -100 -101 0
v -99 -101 0
v -104 -102 0
v -105 -102 0
v -105 -101 0
v -104 -101 0
v -105 -102 0
v -106 -102 0
v -106 -101 0
v -105 -101 0
v -106 -103 0
v -107 -103 0
v -107 -102 0
v -106 -102 0
v -107 -103 0
v -108 -103 0
v -108 -102 0
v -107 -102 0
v -102 -107 0
v -103 -107 0
v -103 -106 0
v -102 -106 0
v -103 -107 0
v -104 -107 0
v -104 -106 0
v -103 -106 0
v -101 -108 0
v -102 -108 0
v -102 -107 0
v -101 -107 0
v -107 -108 0
v -108 -108 0
v -108 -107 0
v -107 -107 0
v -108 -108 0
v -109 -108 0
v -109 -107 0
v -108 -107 0
v -124 -108 0
v -125 -108 0
v -125 -107 0
v -124 -107 0
v -125 -108 0
v -126 -108 0
v -126 -107 0
v -125 -107 0
v -126 -108 0
v -127 -108 0
v -127 -107 0
v -126 -107 0
v -127 -108 0
v -128 -108 0
v -128 -107 0
v -127 -107 0
v -128 -108 0
v -129 -108 0
v -129 -107 0
v -128 -107 0
v -129 -108 0
v -130 -108 0
v -130 -107 0
v -129 -107 0
v -121 -109 0
v -122 -109 0
v -122 -108 0
v -121 -108 0
v -123 -109 0
v -124 -109 0
v -124 -108 0
v -123 -108 0
v -130 -109 0
v -131 -109 0
v -131 -108 0
v -130 -108 0
v -132 -110 0
v -133 -110 0
v -133 -109 0
v -132 -109 0
v -97 -111 0
v -98 -111 0
v -98 -110 0
v -97 -110 0
v -98 -111 0
v -99 -111 0
v -99 -110 0
v -98 -110 0
v -104 -111 0
v -105 -111 0
v -105 -110 0
v -104 -110 0
v -105 -111 0
v -106 -111 0
v -106 -110 0
v -105 -110 0
v -107 -111 0
v -108 -111 0
v -108 -110 0
v -107 -110 0
v -108 -111 0
v -109 -111 0
v -109 -110 0
v -108 -110 0
v -123 -111 0
v -124 -111 0
v -124 -110 0
v -123 -110 0
v -96 -112 0
v -97 -112 0
v -97 -111 0
v -96 -111 0
v -106 -112 0
v -107 -112 0
v -107 -111 0
v -106 -111 0
v -109 -112 0
v -110 -112 0
v -110 -111 0
v -109 -111 0
v -122 -112 0
v -123 -112 0
v -123 -111 0
v -122 -111 0
v -131 -112 0
v -132 -112 0
v -132 -111 0
v -131 -111 0
v -130 -113 0
v -131 -113 0
v -131 -112 0
v -130 -112 0
v -123 -115 0
v -124 -115 0
v -124 -114 0
v -123 -114 0
v -124 -115 0
v -125 -115 0
v -125 -114 0
v -124 -114 0
v -131 -115 0
v -132 -115 0
v -132 -114 0
v -131 -114 0
v -121 -117 0
v -122 -117 0
v -122 -116 0
v -121 -116 0
v -122 -118 0
v -123 -118 0
v -123 -117 0
v -122 -117 0
v -123 -118 0
v -124 -118 0
v -124 -117 0
v -123 -117 0
v -130 -118 0
v -131 -118 0
v -131 -117 0
v -130 -117 0
v -131 -118 0
v -132 -118 0
v -132 -117 0
v -131 -117 0
v -121 -119 0
v -122 -119 0
v -122 -118 0
v -121 -118 0
v -124 -119 0
v -125 -119 0
v -125 -118 0
v -124 -118 0
v -132 -119 0
v -133 -119 0
v -133 -118 0
v -132 -118 0
v -125 -120 0
v -126 -120 0
v -126 -119 0
v -125 -119 0
v -121 -121 0
v -122 -121 0
v -122 -120 0
v -121 -120 0
v -126 -121 0
v -127 -121 0
v -127 -120 0
v -126 -120 0
v -132 -121 0
v -133 -121 0
v -133 -120 0
v -132 -120 0
v -121 -123 0
v -122 -123 0
v -122 -122 0
v -121 -122 0
v -132 -123 0
v -133 -123 0
v -133 -122 0
v -132 -122 0
v -121 -125 0
v -122 -125 0
v -122 -124 0
v -121 -124 0
v -132 -125 0
v -133 -125 0
v -133 -124 0
v -132 -124 0
v -126 -126 0
v -127 -126 0
v -127 -125 0
v -126 -125 0
v -127 -127 0
v -128 -127 0
v -128 -126 0
v -127 -126 0
v -128 -128 0
v -129 -128 0
v -129 -127 0
v -128 -127 0

# Texture cooridinates (Count = 36)
vt 0.4545455 0.88
vt 0.5 0.88
vt 0.5 0.92
vt 0.4545455 0.92
vt 0.5454546 0.88
vt 0.5454546 0.92
vt 0.6818182 0.76
vt 0.7272727 0.76
vt 0.7272727 0.8
vt 0.6818182 0.8
vt 0.6818182 0.44
vt 0.7272727 0.44
vt 0.7272727 0.48
vt 0.6818182 0.48
vt 0.5 0.56
vt 0.5454546 0.56
vt 0.5454546 0.6
vt 0.5 0.6
vt 0.4545455 0.56
vt 0.4545455 0.6
vt 0.5909091 0.24
vt 0.6363636 0.24
vt 0.6363636 0.28
vt 0.5909091 0.28
vt 0.6818182 0.24
vt 0.6818182 0.28
vt 0.5 0.72
vt 0.5454546 0.72
vt 0.5454546 0.76
vt 0.5 0.76
vt 0.5454546 0.8
vt 0.5 0.8
vt 0.4545455 0.12
vt 0.5 0.12
vt 0.5 0.16
vt 0.4545455 0.16

# Normal
vn 0 0 -1

# Mesh description
g FiecFEPOL_mesh_0025

# Faces
f 1/1/1 2/2/1 3/3/1 4/4/1
f 5/2/1 6/5/1 7/6/1 8/3/1
f 9/1/1 10/2/1 11/3/1 12/4/1
f 13/2/1 14/5/1 15/6/1 16/3/1
f 17/7/1 18/8/1 19/9/1 20/10/1
f 21/1/1 22/2/1 23/3/1 24/4/1
f 25/2/1 26/5/1 27/6/1 28/3/1
f 29/11/1 30/12/1 31/13/1 32/14/1
f 33/11/1 34/12/1 35/13/1 36/14/1
f 37/1/1 38/2/1 39/3/1 40/4/1
f 41/2/1 42/5/1 43/6/1 44/3/1
f 45/1/1 46/2/1 47/3/1 48/4/1
f 49/1/1 50/2/1 51/3/1 52/4/1
f 53/2/1 54/5/1 55/6/1 56/3/1
f 57/1/1 58/2/1 59/3/1 60/4/1
f 61/2/1 62/5/1 63/6/1 64/3/1
f 65/11/1 66/12/1 67/13/1 68/14/1
f 69/11/1 70/12/1 71/13/1 72/14/1
f 73/2/1 74/5/1 75/6/1 76/3/1
f 77/11/1 78/12/1 79/13/1 80/14/1
f 81/11/1 82/12/1 83/13/1 84/14/1
f 85/11/1 86/12/1 87/13/1 88/14/1
f 89/11/1 90/12/1 91/13/1 92/14/1
f 93/7/1 94/8/1 95/9/1 96/10/1
f 97/1/1 98/2/1 99/3/1 100/4/1
f 101/2/1 102/5/1 103/6/1 104/3/1
f 105/7/1 106/8/1 107/9/1 108/10/1
f 109/7/1 110/8/1 111/9/1 112/10/1
f 113/11/1 114/12/1 115/13/1 116/14/1
f 117/1/1 118/2/1 119/3/1 120/4/1
f 121/11/1 122/12/1 123/13/1 124/14/1
f 125/11/1 126/12/1 127/13/1 128/14/1
f 129/11/1 130/12/1 131/13/1 132/14/1
f 133/15/1 134/16/1 135/17/1 136/18/1
f 137/15/1 138/16/1 139/17/1 140/18/1
f 141/11/1 142/12/1 143/13/1 144/14/1
f 145/11/1 146/12/1 147/13/1 148/14/1
f 149/11/1 150/12/1 151/13/1 152/14/1
f 153/11/1 154/12/1 155/13/1 156/14/1
f 157/11/1 158/12/1 159/13/1 160/14/1
f 161/7/1 162/8/1 163/9/1 164/10/1
f 165/11/1 166/12/1 167/13/1 168/14/1
f 169/11/1 170/12/1 171/13/1 172/14/1
f 173/11/1 174/12/1 175/13/1 176/14/1
f 177/11/1 178/12/1 179/13/1 180/14/1
f 181/7/1 182/8/1 183/9/1 184/10/1
f 185/11/1 186/12/1 187/13/1 188/14/1
f 189/11/1 190/12/1 191/13/1 192/14/1
f 193/11/1 194/12/1 195/13/1 196/14/1
f 197/11/1 198/12/1 199/13/1 200/14/1
f 201/11/1 202/12/1 203/13/1 204/14/1
f 205/7/1 206/8/1 207/9/1 208/10/1
f 209/11/1 210/12/1 211/13/1 212/14/1
f 213/11/1 214/12/1 215/13/1 216/14/1
f 217/7/1 218/8/1 219/9/1 220/10/1
f 221/11/1 222/12/1 223/13/1 224/14/1
f 225/11/1 226/12/1 227/13/1 228/14/1
f 229/7/1 230/8/1 231/9/1 232/10/1
f 233/11/1 234/12/1 235/13/1 236/14/1
f 237/11/1 238/12/1 239/13/1 240/14/1
f 241/11/1 242/12/1 243/13/1 244/14/1
f 245/11/1 246/12/1 247/13/1 248/14/1
f 249/7/1 250/8/1 251/9/1 252/10/1
f 253/11/1 254/12/1 255/13/1 256/14/1
f 257/11/1 258/12/1 259/13/1 260/14/1
f 261/19/1 262/15/1 263/18/1 264/20/1
f 265/15/1 266/16/1 267/17/1 268/18/1
f 269/19/1 270/15/1 271/18/1 272/20/1
f 273/15/1 274/16/1 275/17/1 276/18/1
f 277/15/1 278/16/1 279/17/1 280/18/1
f 281/21/1 282/22/1 283/23/1 284/24/1
f 285/22/1 286/25/1 287/26/1 288/23/1
f 289/7/1 290/8/1 291/9/1 292/10/1
f 293/11/1 294/12/1 295/13/1 296/14/1
f 297/7/1 298/8/1 299/9/1 300/10/1
f 301/7/1 302/8/1 303/9/1 304/10/1
f 305/11/1 306/12/1 307/13/1 308/14/1
f 309/19/1 310/15/1 311/18/1 312/20/1
f 313/15/1 314/16/1 315/17/1 316/18/1
f 317/11/1 318/12/1 319/13/1 320/14/1
f 321/19/1 322/15/1 323/18/1 324/20/1
f 325/7/1 326/8/1 327/9/1 328/10/1
f 329/19/1 330/15/1 331/18/1 332/20/1
f 333/7/1 334/8/1 335/9/1 336/10/1
f 337/19/1 338/15/1 339/18/1 340/20/1
f 341/15/1 342/16/1 343/17/1 344/18/1
f 345/19/1 346/15/1 347/18/1 348/20/1
f 349/15/1 350/16/1 351/17/1 352/18/1
f 353/7/1 354/8/1 355/9/1 356/10/1
f 357/7/1 358/8/1 359/9/1 360/10/1
f 361/19/1 362/15/1 363/18/1 364/20/1
f 365/15/1 366/16/1 367/17/1 368/18/1
f 369/11/1 370/12/1 371/13/1 372/14/1
f 373/27/1 374/28/1 375/29/1 376/30/1
f 377/11/1 378/12/1 379/13/1 380/14/1
f 381/11/1 382/12/1 383/13/1 384/14/1
f 385/30/1 386/29/1 387/31/1 388/32/1
f 389/30/1 390/29/1 391/31/1 392/32/1
f 393/11/1 394/12/1 395/13/1 396/14/1
f 397/30/1 398/29/1 399/31/1 400/32/1
f 401/30/1 402/29/1 403/31/1 404/32/1
f 405/30/1 406/29/1 407/31/1 408/32/1
f 409/30/1 410/29/1 411/31/1 412/32/1
f 413/7/1 414/8/1 415/9/1 416/10/1
f 417/7/1 418/8/1 419/9/1 420/10/1
f 421/11/1 422/12/1 423/13/1 424/14/1
f 425/11/1 426/12/1 427/13/1 428/14/1
f 429/7/1 430/8/1 431/9/1 432/10/1
f 433/11/1 434/12/1 435/13/1 436/14/1
f 437/33/1 438/34/1 439/35/1 440/36/1
f 441/7/1 442/8/1 443/9/1 444/10/1
f 445/11/1 446/12/1 447/13/1 448/14/1
f 449/19/1 450/15/1 451/18/1 452/20/1
f 453/11/1 454/12/1 455/13/1 456/14/1
f 457/11/1 458/12/1 459/13/1 460/14/1
f 461/19/1 462/15/1 463/18/1 464/20/1
f 465/19/1 466/15/1 467/18/1 468/20/1
f 469/19/1 470/15/1 471/18/1 472/20/1
f 473/15/1 474/16/1 475/17/1 476/18/1
f 477/19/1 478/15/1 479/18/1 480/20/1
f 481/15/1 482/16/1 483/17/1 484/18/1
f 485/19/1 486/15/1 487/18/1 488/20/1
f 489/15/1 490/16/1 491/17/1 492/18/1
f 493/19/1 494/15/1 495/18/1 496/20/1
f 497/15/1 498/16/1 499/17/1 500/18/1
f 501/19/1 502/15/1 503/18/1 504/20/1
f 505/19/1 506/15/1 507/18/1 508/20/1
f 509/15/1 510/16/1 511/17/1 512/18/1
f 513/19/1 514/15/1 515/18/1 516/20/1
f 517/15/1 518/16/1 519/17/1 520/18/1
f 521/19/1 522/15/1 523/18/1 524/20/1
f 525/15/1 526/16/1 527/17/1 528/18/1
f 529/19/1 530/15/1 531/18/1 532/20/1
f 533/15/1 534/16/1 535/17/1 536/18/1
f 537/11/1 538/12/1 539/13/1 540/14/1
f 541/19/1 542/15/1 543/18/1 544/20/1
f 545/15/1 546/16/1 547/17/1 548/18/1
f 549/11/1 550/12/1 551/13/1 552/14/1
f 553/19/1 554/15/1 555/18/1 556/20/1
f 557/15/1 558/16/1 559/17/1 560/18/1
f 561/19/1 562/15/1 563/18/1 564/20/1
f 565/15/1 566/16/1 567/17/1 568/18/1
f 569/19/1 570/15/1 571/18/1 572/20/1
f 573/15/1 574/16/1 575/17/1 576/18/1
f 577/11/1 578/12/1 579/13/1 580/14/1
f 581/19/1 582/15/1 583/18/1 584/20/1
f 585/19/1 586/15/1 587/18/1 588/20/1
f 589/15/1 590/16/1 591/17/1 592/18/1
f 593/11/1 594/12/1 595/13/1 596/14/1
f 597/11/1 598/12/1 599/13/1 600/14/1
f 601/11/1 602/12/1 603/13/1 604/14/1
f 605/19/1 606/15/1 607/18/1 608/20/1
f 609/15/1 610/16/1 611/17/1 612/18/1
f 613/11/1 614/12/1 615/13/1 616/14/1
f 617/11/1 618/12/1 619/13/1 620/14/1
f 621/19/1 622/15/1 623/18/1 624/20/1
f 625/15/1 626/16/1 627/17/1 628/18/1
f 629/19/1 630/15/1 631/18/1 632/20/1
f 633/15/1 634/16/1 635/17/1 636/18/1
f 637/19/1 638/15/1 639/18/1 640/20/1
f 641/15/1 642/16/1 643/17/1 644/18/1
f 645/15/1 646/16/1 647/17/1 648/18/1
f 649/15/1 650/16/1 651/17/1 652/18/1
f 653/19/1 654/15/1 655/18/1 656/20/1
f 657/15/1 658/16/1 659/17/1 660/18/1
f 661/15/1 662/16/1 663/17/1 664/18/1
f 665/19/1 666/15/1 667/18/1 668/20/1
f 669/15/1 670/16/1 671/17/1 672/18/1
f 673/19/1 674/15/1 675/18/1 676/20/1
f 677/15/1 678/16/1 679/17/1 680/18/1
f 681/11/1 682/12/1 683/13/1 684/14/1
f 685/11/1 686/12/1 687/13/1 688/14/1
f 689/11/1 690/12/1 691/13/1 692/14/1

