# Tiled2Unity generated file. Do not modify by hand.
# Wavefront file for 'FiecFEPOL_mesh_0030.obj'

# Vertices (Count = 36)
v -173 -104 0
v -174 -104 0
v -174 -103 0
v -173 -103 0
v -174 -105 0
v -175 -105 0
v -175 -104 0
v -174 -104 0
v -175 -106 0
v -176 -106 0
v -176 -105 0
v -175 -105 0
v -176 -107 0
v -177 -107 0
v -177 -106 0
v -176 -106 0
v -167 -126 0
v -168 -126 0
v -168 -125 0
v -167 -125 0
v -168 -126 0
v -169 -126 0
v -169 -125 0
v -168 -125 0
v -169 -126 0
v -170 -126 0
v -170 -125 0
v -169 -125 0
v -170 -126 0
v -171 -126 0
v -171 -125 0
v -170 -125 0
v -171 -126 0
v -172 -126 0
v -172 -125 0
v -171 -125 0

# Texture cooridinates (Count = 8)
vt 0.0625 0.8125
vt 0.125 0.8125
vt 0.125 0.875
vt 0.0625 0.875
vt 0.4375 0.5
vt 0.5 0.5
vt 0.5 0.5625
vt 0.4375 0.5625

# Normal
vn 0 0 -1

# Mesh description
g FiecFEPOL_mesh_0030

# Faces
f 1/1/1 2/2/1 3/3/1 4/4/1
f 5/1/1 6/2/1 7/3/1 8/4/1
f 9/1/1 10/2/1 11/3/1 12/4/1
f 13/1/1 14/2/1 15/3/1 16/4/1
f 17/5/1 18/6/1 19/7/1 20/8/1
f 21/5/1 22/6/1 23/7/1 24/8/1
f 25/5/1 26/6/1 27/7/1 28/8/1
f 29/5/1 30/6/1 31/7/1 32/8/1
f 33/5/1 34/6/1 35/7/1 36/8/1

