# Tiled2Unity generated file. Do not modify by hand.
# Wavefront file for 'FiecFEPOL_mesh_0024.obj'

# Vertices (Count = 496)
v -180 -94 0
v -181 -94 0
v -181 -93 0
v -180 -93 0
v -181 -94 0
v -182 -94 0
v -182 -93 0
v -181 -93 0
v -183 -98 0
v -184 -98 0
v -184 -97 0
v -183 -97 0
v -184 -98 0
v -185 -98 0
v -185 -97 0
v -184 -97 0
v -183 -99 0
v -184 -99 0
v -184 -98 0
v -183 -98 0
v -184 -99 0
v -185 -99 0
v -185 -98 0
v -184 -98 0
v -193 -99 0
v -194 -99 0
v -194 -98 0
v -193 -98 0
v -194 -99 0
v -195 -99 0
v -195 -98 0
v -194 -98 0
v -183 -100 0
v -184 -100 0
v -184 -99 0
v -183 -99 0
v -184 -100 0
v -185 -100 0
v -185 -99 0
v -184 -99 0
v -193 -100 0
v -194 -100 0
v -194 -99 0
v -193 -99 0
v -194 -100 0
v -195 -100 0
v -195 -99 0
v -194 -99 0
v -200 -100 0
v -201 -100 0
v -201 -99 0
v -200 -99 0
v -201 -100 0
v -202 -100 0
v -202 -99 0
v -201 -99 0
v -193 -101 0
v -194 -101 0
v -194 -100 0
v -193 -100 0
v -194 -101 0
v -195 -101 0
v -195 -100 0
v -194 -100 0
v -202 -101 0
v -203 -101 0
v -203 -100 0
v -202 -100 0
v -203 -101 0
v -204 -101 0
v -204 -100 0
v -203 -100 0
v -186 -102 0
v -187 -102 0
v -187 -101 0
v -186 -101 0
v -187 -102 0
v -188 -102 0
v -188 -101 0
v -187 -101 0
v -200 -102 0
v -201 -102 0
v -201 -101 0
v -200 -101 0
v -201 -102 0
v -202 -102 0
v -202 -101 0
v -201 -101 0
v -209 -102 0
v -210 -102 0
v -210 -101 0
v -209 -101 0
v -210 -102 0
v -211 -102 0
v -211 -101 0
v -210 -101 0
v -188 -108 0
v -189 -108 0
v -189 -107 0
v -188 -107 0
v -189 -108 0
v -190 -108 0
v -190 -107 0
v -189 -107 0
v -197 -108 0
v -198 -108 0
v -198 -107 0
v -197 -107 0
v -198 -108 0
v -199 -108 0
v -199 -107 0
v -198 -107 0
v -199 -108 0
v -200 -108 0
v -200 -107 0
v -199 -107 0
v -200 -108 0
v -201 -108 0
v -201 -107 0
v -200 -107 0
v -201 -108 0
v -202 -108 0
v -202 -107 0
v -201 -107 0
v -202 -108 0
v -203 -108 0
v -203 -107 0
v -202 -107 0
v -203 -108 0
v -204 -108 0
v -204 -107 0
v -203 -107 0
v -204 -108 0
v -205 -108 0
v -205 -107 0
v -204 -107 0
v -205 -108 0
v -206 -108 0
v -206 -107 0
v -205 -107 0
v -206 -108 0
v -207 -108 0
v -207 -107 0
v -206 -107 0
v -207 -108 0
v -208 -108 0
v -208 -107 0
v -207 -107 0
v -208 -108 0
v -209 -108 0
v -209 -107 0
v -208 -107 0
v -209 -108 0
v -210 -108 0
v -210 -107 0
v -209 -107 0
v -210 -108 0
v -211 -108 0
v -211 -107 0
v -210 -107 0
v -211 -108 0
v -212 -108 0
v -212 -107 0
v -211 -107 0
v -212 -108 0
v -213 -108 0
v -213 -107 0
v -212 -107 0
v -188 -109 0
v -189 -109 0
v -189 -108 0
v -188 -108 0
v -189 -109 0
v -190 -109 0
v -190 -108 0
v -189 -108 0
v -199 -109 0
v -200 -109 0
v -200 -108 0
v -199 -108 0
v -200 -109 0
v -201 -109 0
v -201 -108 0
v -200 -108 0
v -201 -109 0
v -202 -109 0
v -202 -108 0
v -201 -108 0
v -202 -109 0
v -203 -109 0
v -203 -108 0
v -202 -108 0
v -203 -109 0
v -204 -109 0
v -204 -108 0
v -203 -108 0
v -204 -109 0
v -205 -109 0
v -205 -108 0
v -204 -108 0
v -205 -109 0
v -206 -109 0
v -206 -108 0
v -205 -108 0
v -206 -109 0
v -207 -109 0
v -207 -108 0
v -206 -108 0
v -207 -109 0
v -208 -109 0
v -208 -108 0
v -207 -108 0
v -208 -109 0
v -209 -109 0
v -209 -108 0
v -208 -108 0
v -209 -109 0
v -210 -109 0
v -210 -108 0
v -209 -108 0
v -210 -109 0
v -211 -109 0
v -211 -108 0
v -210 -108 0
v -211 -109 0
v -212 -109 0
v -212 -108 0
v -211 -108 0
v -212 -109 0
v -213 -109 0
v -213 -108 0
v -212 -108 0
v -199 -110 0
v -200 -110 0
v -200 -109 0
v -199 -109 0
v -200 -110 0
v -201 -110 0
v -201 -109 0
v -200 -109 0
v -201 -110 0
v -202 -110 0
v -202 -109 0
v -201 -109 0
v -202 -110 0
v -203 -110 0
v -203 -109 0
v -202 -109 0
v -203 -110 0
v -204 -110 0
v -204 -109 0
v -203 -109 0
v -204 -110 0
v -205 -110 0
v -205 -109 0
v -204 -109 0
v -205 -110 0
v -206 -110 0
v -206 -109 0
v -205 -109 0
v -206 -110 0
v -207 -110 0
v -207 -109 0
v -206 -109 0
v -207 -110 0
v -208 -110 0
v -208 -109 0
v -207 -109 0
v -208 -110 0
v -209 -110 0
v -209 -109 0
v -208 -109 0
v -209 -110 0
v -210 -110 0
v -210 -109 0
v -209 -109 0
v -210 -110 0
v -211 -110 0
v -211 -109 0
v -210 -109 0
v -211 -110 0
v -212 -110 0
v -212 -109 0
v -211 -109 0
v -212 -110 0
v -213 -110 0
v -213 -109 0
v -212 -109 0
v -199 -111 0
v -200 -111 0
v -200 -110 0
v -199 -110 0
v -200 -111 0
v -201 -111 0
v -201 -110 0
v -200 -110 0
v -201 -111 0
v -202 -111 0
v -202 -110 0
v -201 -110 0
v -202 -111 0
v -203 -111 0
v -203 -110 0
v -202 -110 0
v -203 -111 0
v -204 -111 0
v -204 -110 0
v -203 -110 0
v -187 -112 0
v -188 -112 0
v -188 -111 0
v -187 -111 0
v -188 -112 0
v -189 -112 0
v -189 -111 0
v -188 -111 0
v -200 -112 0
v -201 -112 0
v -201 -111 0
v -200 -111 0
v -201 -112 0
v -202 -112 0
v -202 -111 0
v -201 -111 0
v -202 -114 0
v -203 -114 0
v -203 -113 0
v -202 -113 0
v -203 -114 0
v -204 -114 0
v -204 -113 0
v -203 -113 0
v -202 -117 0
v -203 -117 0
v -203 -116 0
v -202 -116 0
v -203 -117 0
v -204 -117 0
v -204 -116 0
v -203 -116 0
v -185 -125 0
v -186 -125 0
v -186 -124 0
v -185 -124 0
v -186 -125 0
v -187 -125 0
v -187 -124 0
v -186 -124 0
v -183 -127 0
v -184 -127 0
v -184 -126 0
v -183 -126 0
v -184 -127 0
v -185 -127 0
v -185 -126 0
v -184 -126 0
v -185 -127 0
v -186 -127 0
v -186 -126 0
v -185 -126 0
v -186 -127 0
v -187 -127 0
v -187 -126 0
v -186 -126 0
v -182 -128 0
v -183 -128 0
v -183 -127 0
v -182 -127 0
v -183 -128 0
v -184 -128 0
v -184 -127 0
v -183 -127 0
v -184 -128 0
v -185 -128 0
v -185 -127 0
v -184 -127 0
v -185 -128 0
v -186 -128 0
v -186 -127 0
v -185 -127 0
v -186 -128 0
v -187 -128 0
v -187 -127 0
v -186 -127 0
v -181 -129 0
v -182 -129 0
v -182 -128 0
v -181 -128 0
v -182 -129 0
v -183 -129 0
v -183 -128 0
v -182 -128 0
v -183 -129 0
v -184 -129 0
v -184 -128 0
v -183 -128 0
v -184 -129 0
v -185 -129 0
v -185 -128 0
v -184 -128 0
v -185 -129 0
v -186 -129 0
v -186 -128 0
v -185 -128 0
v -186 -129 0
v -187 -129 0
v -187 -128 0
v -186 -128 0
v -180 -130 0
v -181 -130 0
v -181 -129 0
v -180 -129 0
v -181 -130 0
v -182 -130 0
v -182 -129 0
v -181 -129 0
v -182 -130 0
v -183 -130 0
v -183 -129 0
v -182 -129 0
v -183 -130 0
v -184 -130 0
v -184 -129 0
v -183 -129 0
v -184 -130 0
v -185 -130 0
v -185 -129 0
v -184 -129 0
v -185 -130 0
v -186 -130 0
v -186 -129 0
v -185 -129 0
v -186 -130 0
v -187 -130 0
v -187 -129 0
v -186 -129 0
v -180 -131 0
v -181 -131 0
v -181 -130 0
v -180 -130 0
v -181 -131 0
v -182 -131 0
v -182 -130 0
v -181 -130 0
v -182 -131 0
v -183 -131 0
v -183 -130 0
v -182 -130 0
v -183 -131 0
v -184 -131 0
v -184 -130 0
v -183 -130 0
v -184 -131 0
v -185 -131 0
v -185 -130 0
v -184 -130 0
v -185 -131 0
v -186 -131 0
v -186 -130 0
v -185 -130 0
v -186 -131 0
v -187 -131 0
v -187 -130 0
v -186 -130 0
v -178 -132 0
v -179 -132 0
v -179 -131 0
v -178 -131 0
v -179 -132 0
v -180 -132 0
v -180 -131 0
v -179 -131 0
v -180 -132 0
v -181 -132 0
v -181 -131 0
v -180 -131 0
v -181 -132 0
v -182 -132 0
v -182 -131 0
v -181 -131 0
v -182 -132 0
v -183 -132 0
v -183 -131 0
v -182 -131 0
v -183 -132 0
v -184 -132 0
v -184 -131 0
v -183 -131 0
v -184 -132 0
v -185 -132 0
v -185 -131 0
v -184 -131 0
v -185 -132 0
v -186 -132 0
v -186 -131 0
v -185 -131 0

# Texture cooridinates (Count = 89)
vt 0.875 0.25
vt 0.9375 0.25
vt 0.9375 0.3125
vt 0.875 0.3125
vt 1 0.25
vt 1 0.3125
vt 0.5 0.375
vt 0.5625 0.375
vt 0.5625 0.4375
vt 0.5 0.4375
vt 0.625 0.375
vt 0.625 0.4375
vt 0.5 0.3125
vt 0.5625 0.3125
vt 0.625 0.3125
vt 0.5 0.25
vt 0.5625 0.25
vt 0.625 0.25
vt 0.75 0.375
vt 0.8125 0.375
vt 0.8125 0.4375
vt 0.75 0.4375
vt 0.875 0.375
vt 0.875 0.4375
vt 0.9375 0.4375
vt 0.9375 0.5
vt 0.875 0.5
vt 1 0.4375
vt 1 0.5
vt 0.6875 0.4375
vt 0.6875 0.5
vt 0.625 0.5
vt 0.75 0.5
vt 0.75 0.25
vt 0.8125 0.25
vt 0.8125 0.3125
vt 0.75 0.3125
vt 0.8125 0.5
vt 0.75 0.9375
vt 0.8125 0.9375
vt 0.8125 1
vt 0.75 1
vt 0.875 0.9375
vt 0.875 1
vt 0.5625 0.5
vt 0.5 0.5
vt 0.9375 0.375
vt 0.875 0.6875
vt 0.9375 0.6875
vt 0.9375 0.75
vt 0.875 0.75
vt 0.75 0.1875
vt 0.8125 0.1875
vt 0.75 0.6875
vt 0.8125 0.6875
vt 0.8125 0.75
vt 0.75 0.75
vt 0.9375 0.9375
vt 0.9375 1
vt 1 0.9375
vt 1 1
vt 0.875 0.1875
vt 0.75 0.875
vt 0.8125 0.875
vt 0.875 0.875
vt 0.875 0.625
vt 0.9375 0.625
vt 0.75 0.125
vt 0.8125 0.125
vt 0.75 0.625
vt 0.8125 0.625
vt 0.9375 0.875
vt 1 0.875
vt 0.875 0.125
vt 0.6875 0.75
vt 0.75 0.8125
vt 0.6875 0.8125
vt 0.8125 0.8125
vt 0.875 0.8125
vt 0.8125 0.0625
vt 0.875 0.0625
vt 0.75 0.0625
vt 0.6875 0.25
vt 0.6875 0.3125
vt 0.8125 0
vt 0.875 0
vt 0.9375 0.8125
vt 1 0.8125
vt 1 0.75

# Normal
vn 0 0 -1

# Mesh description
g FiecFEPOL_mesh_0024

# Faces
f 1/1/1 2/2/1 3/3/1 4/4/1
f 5/2/1 6/5/1 7/6/1 8/3/1
f 9/7/1 10/8/1 11/9/1 12/10/1
f 13/8/1 14/11/1 15/12/1 16/9/1
f 17/13/1 18/14/1 19/8/1 20/7/1
f 21/14/1 22/15/1 23/11/1 24/8/1
f 25/7/1 26/8/1 27/9/1 28/10/1
f 29/8/1 30/11/1 31/12/1 32/9/1
f 33/16/1 34/17/1 35/14/1 36/13/1
f 37/17/1 38/18/1 39/15/1 40/14/1
f 41/13/1 42/14/1 43/8/1 44/7/1
f 45/14/1 46/15/1 47/11/1 48/8/1
f 49/19/1 50/20/1 51/21/1 52/22/1
f 53/20/1 54/23/1 55/24/1 56/21/1
f 57/16/1 58/17/1 59/14/1 60/13/1
f 61/17/1 62/18/1 63/15/1 64/14/1
f 65/24/1 66/25/1 67/26/1 68/27/1
f 69/25/1 70/28/1 71/29/1 72/26/1
f 73/12/1 74/30/1 75/31/1 76/32/1
f 77/30/1 78/22/1 79/33/1 80/31/1
f 81/34/1 82/35/1 83/36/1 84/37/1
f 85/35/1 86/1/1 87/4/1 88/36/1
f 89/22/1 90/21/1 91/38/1 92/33/1
f 93/21/1 94/24/1 95/27/1 96/38/1
f 97/39/1 98/40/1 99/41/1 100/42/1
f 101/40/1 102/43/1 103/44/1 104/41/1
f 105/10/1 106/9/1 107/45/1 108/46/1
f 109/9/1 110/12/1 111/32/1 112/45/1
f 113/4/1 114/3/1 115/47/1 116/23/1
f 117/48/1 118/49/1 119/50/1 120/51/1
f 121/52/1 122/53/1 123/35/1 124/34/1
f 125/54/1 126/55/1 127/56/1 128/57/1
f 129/55/1 130/48/1 131/51/1 132/56/1
f 133/54/1 134/55/1 135/56/1 136/57/1
f 137/55/1 138/48/1 139/51/1 140/56/1
f 141/43/1 142/58/1 143/59/1 144/44/1
f 145/58/1 146/60/1 147/61/1 148/59/1
f 149/43/1 150/58/1 151/59/1 152/44/1
f 153/58/1 154/60/1 155/61/1 156/59/1
f 157/43/1 158/58/1 159/59/1 160/44/1
f 161/58/1 162/60/1 163/61/1 164/59/1
f 165/53/1 166/62/1 167/1/1 168/35/1
f 169/63/1 170/64/1 171/40/1 172/39/1
f 173/64/1 174/65/1 175/43/1 176/40/1
f 177/23/1 178/47/1 179/25/1 180/24/1
f 181/66/1 182/67/1 183/49/1 184/48/1
f 185/68/1 186/69/1 187/53/1 188/52/1
f 189/70/1 190/71/1 191/55/1 192/54/1
f 193/71/1 194/66/1 195/48/1 196/55/1
f 197/70/1 198/71/1 199/55/1 200/54/1
f 201/71/1 202/66/1 203/48/1 204/55/1
f 205/65/1 206/72/1 207/58/1 208/43/1
f 209/72/1 210/73/1 211/60/1 212/58/1
f 213/65/1 214/72/1 215/58/1 216/43/1
f 217/72/1 218/73/1 219/60/1 220/58/1
f 221/65/1 222/72/1 223/58/1 224/43/1
f 225/72/1 226/73/1 227/60/1 228/58/1
f 229/69/1 230/74/1 231/62/1 232/53/1
f 233/4/1 234/3/1 235/47/1 236/23/1
f 237/75/1 238/57/1 239/76/1 240/77/1
f 241/57/1 242/56/1 243/78/1 244/76/1
f 245/56/1 246/51/1 247/79/1 248/78/1
f 249/57/1 250/56/1 251/78/1 252/76/1
f 253/80/1 254/81/1 255/74/1 256/69/1
f 257/82/1 258/80/1 259/69/1 260/68/1
f 261/80/1 262/81/1 263/74/1 264/69/1
f 265/82/1 266/80/1 267/69/1 268/68/1
f 269/80/1 270/81/1 271/74/1 272/69/1
f 273/82/1 274/80/1 275/69/1 276/68/1
f 277/80/1 278/81/1 279/74/1 280/69/1
f 281/82/1 282/80/1 283/69/1 284/68/1
f 285/80/1 286/81/1 287/74/1 288/69/1
f 289/1/1 290/2/1 291/3/1 292/4/1
f 293/2/1 294/5/1 295/6/1 296/3/1
f 297/34/1 298/35/1 299/36/1 300/37/1
f 301/35/1 302/1/1 303/4/1 304/36/1
f 305/34/1 306/35/1 307/36/1 308/37/1
f 309/12/1 310/30/1 311/31/1 312/32/1
f 313/30/1 314/22/1 315/33/1 316/31/1
f 317/12/1 318/30/1 319/31/1 320/32/1
f 321/30/1 322/22/1 323/33/1 324/31/1
f 325/1/1 326/2/1 327/3/1 328/4/1
f 329/2/1 330/5/1 331/6/1 332/3/1
f 333/18/1 334/83/1 335/84/1 336/15/1
f 337/83/1 338/34/1 339/37/1 340/84/1
f 341/1/1 342/2/1 343/3/1 344/4/1
f 345/2/1 346/5/1 347/6/1 348/3/1
f 349/19/1 350/20/1 351/21/1 352/22/1
f 353/70/1 354/71/1 355/55/1 356/54/1
f 357/71/1 358/66/1 359/48/1 360/55/1
f 361/20/1 362/23/1 363/24/1 364/21/1
f 365/19/1 366/20/1 367/21/1 368/22/1
f 369/52/1 370/53/1 371/35/1 372/34/1
f 373/43/1 374/58/1 375/59/1 376/44/1
f 377/58/1 378/60/1 379/61/1 380/59/1
f 381/36/1 382/4/1 383/23/1 384/20/1
f 385/23/1 386/47/1 387/25/1 388/24/1
f 389/58/1 390/60/1 391/61/1 392/59/1
f 393/53/1 394/62/1 395/1/1 396/35/1
f 397/65/1 398/72/1 399/58/1 400/43/1
f 401/72/1 402/73/1 403/60/1 404/58/1
f 405/85/1 406/86/1 407/81/1 408/80/1
f 409/19/1 410/20/1 411/21/1 412/22/1
f 413/65/1 414/72/1 415/58/1 416/43/1
f 417/72/1 418/73/1 419/60/1 420/58/1
f 421/69/1 422/74/1 423/62/1 424/53/1
f 425/79/1 426/87/1 427/72/1 428/65/1
f 429/87/1 430/88/1 431/73/1 432/72/1
f 433/36/1 434/4/1 435/23/1 436/20/1
f 437/37/1 438/36/1 439/20/1 440/19/1
f 441/36/1 442/4/1 443/23/1 444/20/1
f 445/37/1 446/36/1 447/20/1 448/19/1
f 449/36/1 450/4/1 451/23/1 452/20/1
f 453/51/1 454/50/1 455/87/1 456/79/1
f 457/50/1 458/89/1 459/88/1 460/87/1
f 461/35/1 462/1/1 463/4/1 464/36/1
f 465/12/1 466/30/1 467/31/1 468/32/1
f 469/30/1 470/22/1 471/33/1 472/31/1
f 473/34/1 474/35/1 475/36/1 476/37/1
f 477/35/1 478/1/1 479/4/1 480/36/1
f 481/34/1 482/35/1 483/36/1 484/37/1
f 485/35/1 486/1/1 487/4/1 488/36/1
f 489/1/1 490/2/1 491/3/1 492/4/1
f 493/2/1 494/5/1 495/6/1 496/3/1

