# Tiled2Unity generated file. Do not modify by hand.
# Wavefront file for 'FiecFEPOL_mesh_0019.obj'

# Vertices (Count = 456)
v -103 -52 0
v -104 -52 0
v -104 -51 0
v -103 -51 0
v -103 -53 0
v -104 -53 0
v -104 -52 0
v -103 -52 0
v -115 -53 0
v -116 -53 0
v -116 -52 0
v -115 -52 0
v -96 -56 0
v -97 -56 0
v -97 -55 0
v -96 -55 0
v -108 -56 0
v -109 -56 0
v -109 -55 0
v -108 -55 0
v -108 -57 0
v -109 -57 0
v -109 -56 0
v -108 -56 0
v -113 -57 0
v -114 -57 0
v -114 -56 0
v -113 -56 0
v -113 -58 0
v -114 -58 0
v -114 -57 0
v -113 -57 0
v -96 -59 0
v -97 -59 0
v -97 -58 0
v -96 -58 0
v -113 -59 0
v -114 -59 0
v -114 -58 0
v -113 -58 0
v -96 -60 0
v -97 -60 0
v -97 -59 0
v -96 -59 0
v -113 -60 0
v -114 -60 0
v -114 -59 0
v -113 -59 0
v -96 -61 0
v -97 -61 0
v -97 -60 0
v -96 -60 0
v -103 -61 0
v -104 -61 0
v -104 -60 0
v -103 -60 0
v -104 -61 0
v -105 -61 0
v -105 -60 0
v -104 -60 0
v -113 -61 0
v -114 -61 0
v -114 -60 0
v -113 -60 0
v -96 -62 0
v -97 -62 0
v -97 -61 0
v -96 -61 0
v -113 -62 0
v -114 -62 0
v -114 -61 0
v -113 -61 0
v -96 -63 0
v -97 -63 0
v -97 -62 0
v -96 -62 0
v -108 -63 0
v -109 -63 0
v -109 -62 0
v -108 -62 0
v -113 -63 0
v -114 -63 0
v -114 -62 0
v -113 -62 0
v -94 -64 0
v -95 -64 0
v -95 -63 0
v -94 -63 0
v -95 -64 0
v -96 -64 0
v -96 -63 0
v -95 -63 0
v -96 -64 0
v -97 -64 0
v -97 -63 0
v -96 -63 0
v -108 -64 0
v -109 -64 0
v -109 -63 0
v -108 -63 0
v -94 -65 0
v -95 -65 0
v -95 -64 0
v -94 -64 0
v -95 -65 0
v -96 -65 0
v -96 -64 0
v -95 -64 0
v -96 -65 0
v -97 -65 0
v -97 -64 0
v -96 -64 0
v -109 -68 0
v -110 -68 0
v -110 -67 0
v -109 -67 0
v -98 -71 0
v -99 -71 0
v -99 -70 0
v -98 -70 0
v -98 -72 0
v -99 -72 0
v -99 -71 0
v -98 -71 0
v -101 -72 0
v -102 -72 0
v -102 -71 0
v -101 -71 0
v -103 -72 0
v -104 -72 0
v -104 -71 0
v -103 -71 0
v -104 -72 0
v -105 -72 0
v -105 -71 0
v -104 -71 0
v -101 -73 0
v -102 -73 0
v -102 -72 0
v -101 -72 0
v -103 -73 0
v -104 -73 0
v -104 -72 0
v -103 -72 0
v -104 -73 0
v -105 -73 0
v -105 -72 0
v -104 -72 0
v -100 -76 0
v -101 -76 0
v -101 -75 0
v -100 -75 0
v -101 -76 0
v -102 -76 0
v -102 -75 0
v -101 -75 0
v -107 -76 0
v -108 -76 0
v -108 -75 0
v -107 -75 0
v -108 -76 0
v -109 -76 0
v -109 -75 0
v -108 -75 0
v -89 -91 0
v -90 -91 0
v -90 -90 0
v -89 -90 0
v -90 -91 0
v -91 -91 0
v -91 -90 0
v -90 -90 0
v -92 -91 0
v -93 -91 0
v -93 -90 0
v -92 -90 0
v -99 -91 0
v -100 -91 0
v -100 -90 0
v -99 -90 0
v -100 -91 0
v -101 -91 0
v -101 -90 0
v -100 -90 0
v -89 -92 0
v -90 -92 0
v -90 -91 0
v -89 -91 0
v -90 -92 0
v -91 -92 0
v -91 -91 0
v -90 -91 0
v -92 -92 0
v -93 -92 0
v -93 -91 0
v -92 -91 0
v -95 -92 0
v -96 -92 0
v -96 -91 0
v -95 -91 0
v -105 -97 0
v -106 -97 0
v -106 -96 0
v -105 -96 0
v -74 -100 0
v -75 -100 0
v -75 -99 0
v -74 -99 0
v -80 -100 0
v -81 -100 0
v -81 -99 0
v -80 -99 0
v -81 -100 0
v -82 -100 0
v -82 -99 0
v -81 -99 0
v -84 -100 0
v -85 -100 0
v -85 -99 0
v -84 -99 0
v -85 -100 0
v -86 -100 0
v -86 -99 0
v -85 -99 0
v -86 -100 0
v -87 -100 0
v -87 -99 0
v -86 -99 0
v -87 -100 0
v -88 -100 0
v -88 -99 0
v -87 -99 0
v -88 -100 0
v -89 -100 0
v -89 -99 0
v -88 -99 0
v -74 -101 0
v -75 -101 0
v -75 -100 0
v -74 -100 0
v -76 -101 0
v -77 -101 0
v -77 -100 0
v -76 -100 0
v -80 -101 0
v -81 -101 0
v -81 -100 0
v -80 -100 0
v -81 -101 0
v -82 -101 0
v -82 -100 0
v -81 -100 0
v -84 -101 0
v -85 -101 0
v -85 -100 0
v -84 -100 0
v -85 -101 0
v -86 -101 0
v -86 -100 0
v -85 -100 0
v -86 -101 0
v -87 -101 0
v -87 -100 0
v -86 -100 0
v -87 -101 0
v -88 -101 0
v -88 -100 0
v -87 -100 0
v -88 -101 0
v -89 -101 0
v -89 -100 0
v -88 -100 0
v -76 -102 0
v -77 -102 0
v -77 -101 0
v -76 -101 0
v -121 -102 0
v -122 -102 0
v -122 -101 0
v -121 -101 0
v -127 -102 0
v -128 -102 0
v -128 -101 0
v -127 -101 0
v -128 -102 0
v -129 -102 0
v -129 -101 0
v -128 -101 0
v -132 -102 0
v -133 -102 0
v -133 -101 0
v -132 -101 0
v -133 -102 0
v -134 -102 0
v -134 -101 0
v -133 -101 0
v -134 -102 0
v -135 -102 0
v -135 -101 0
v -134 -101 0
v -136 -102 0
v -137 -102 0
v -137 -101 0
v -136 -101 0
v -118 -103 0
v -119 -103 0
v -119 -102 0
v -118 -102 0
v -119 -103 0
v -120 -103 0
v -120 -102 0
v -119 -102 0
v -127 -103 0
v -128 -103 0
v -128 -102 0
v -127 -102 0
v -128 -103 0
v -129 -103 0
v -129 -102 0
v -128 -102 0
v -131 -103 0
v -132 -103 0
v -132 -102 0
v -131 -102 0
v -132 -103 0
v -133 -103 0
v -133 -102 0
v -132 -102 0
v -133 -103 0
v -134 -103 0
v -134 -102 0
v -133 -102 0
v -134 -103 0
v -135 -103 0
v -135 -102 0
v -134 -102 0
v -136 -103 0
v -137 -103 0
v -137 -102 0
v -136 -102 0
v -118 -104 0
v -119 -104 0
v -119 -103 0
v -118 -103 0
v -119 -104 0
v -120 -104 0
v -120 -103 0
v -119 -103 0
v -131 -104 0
v -132 -104 0
v -132 -103 0
v -131 -103 0
v -91 -107 0
v -92 -107 0
v -92 -106 0
v -91 -106 0
v -92 -107 0
v -93 -107 0
v -93 -106 0
v -92 -106 0
v -93 -107 0
v -94 -107 0
v -94 -106 0
v -93 -106 0
v -92 -108 0
v -93 -108 0
v -93 -107 0
v -92 -107 0
v -93 -108 0
v -94 -108 0
v -94 -107 0
v -93 -107 0
v -111 -109 0
v -112 -109 0
v -112 -108 0
v -111 -108 0
v -99 -110 0
v -100 -110 0
v -100 -109 0
v -99 -109 0
v -143 -113 0
v -144 -113 0
v -144 -112 0
v -143 -112 0
v -143 -114 0
v -144 -114 0
v -144 -113 0
v -143 -113 0
v -143 -119 0
v -144 -119 0
v -144 -118 0
v -143 -118 0
v -117 -129 0
v -118 -129 0
v -118 -128 0
v -117 -128 0
v -139 -129 0
v -140 -129 0
v -140 -128 0
v -139 -128 0
v -151 -129 0
v -152 -129 0
v -152 -128 0
v -151 -128 0
v -152 -129 0
v -153 -129 0
v -153 -128 0
v -152 -128 0
v -117 -130 0
v -118 -130 0
v -118 -129 0
v -117 -129 0
v -135 -130 0
v -136 -130 0
v -136 -129 0
v -135 -129 0
v -139 -130 0
v -140 -130 0
v -140 -129 0
v -139 -129 0
v -149 -130 0
v -150 -130 0
v -150 -129 0
v -149 -129 0
v -150 -130 0
v -151 -130 0
v -151 -129 0
v -150 -129 0
v -151 -130 0
v -152 -130 0
v -152 -129 0
v -151 -129 0
v -152 -130 0
v -153 -130 0
v -153 -129 0
v -152 -129 0
v -135 -131 0
v -136 -131 0
v -136 -130 0
v -135 -130 0
v -149 -131 0
v -150 -131 0
v -150 -130 0
v -149 -130 0
v -150 -131 0
v -151 -131 0
v -151 -130 0
v -150 -130 0
v -117 -133 0
v -118 -133 0
v -118 -132 0
v -117 -132 0
v -118 -133 0
v -119 -133 0
v -119 -132 0
v -118 -132 0

# Texture cooridinates (Count = 89)
vt 0.3125 0.25
vt 0.375 0.25
vt 0.375 0.3125
vt 0.3125 0.3125
vt 0.3125 0.1875
vt 0.375 0.1875
vt 0.625 0.5625
vt 0.6875 0.5625
vt 0.6875 0.625
vt 0.625 0.625
vt 0.5625 0.5625
vt 0.5625 0.625
vt 0.4375 0.1875
vt 0.4375 0.25
vt 0.375 0.125
vt 0.4375 0.125
vt 0.4375 0.375
vt 0.5 0.375
vt 0.5 0.4375
vt 0.4375 0.4375
vt 0.4375 0.3125
vt 0.5 0.3125
vt 0.3125 0.625
vt 0.375 0.625
vt 0.375 0.6875
vt 0.3125 0.6875
vt 0.5 0.5625
vt 0.5 0.625
vt 0.5 0.25
vt 0 0.5625
vt 0.0625 0.5625
vt 0.0625 0.625
vt 0 0.625
vt 0.125 0.5625
vt 0.1875 0.5625
vt 0.1875 0.625
vt 0.125 0.625
vt 0 0.5
vt 0.0625 0.5
vt 0.125 0.5
vt 0.1875 0.5
vt 0.375 0.375
vt 0.3125 0.375
vt 0.1875 0.9375
vt 0.25 0.9375
vt 0.25 1
vt 0.1875 1
vt 0.1875 0.875
vt 0.25 0.875
vt 0.0625 0.75
vt 0.125 0.75
vt 0.125 0.8125
vt 0.0625 0.8125
vt 0.875 0.1875
vt 0.9375 0.1875
vt 0.9375 0.25
vt 0.875 0.25
vt 1 0.1875
vt 1 0.25
vt 0.5 0.5
vt 0.4375 0.5
vt 0.25 0.5625
vt 0.25 0.625
vt 0.3125 0.75
vt 0.375 0.75
vt 0.375 0.8125
vt 0.3125 0.8125
vt 0.4375 0.75
vt 0.4375 0.8125
vt 0.25 0.5
vt 0.4375 0.6875
vt 0.9375 0.9375
vt 1 0.9375
vt 1 1
vt 0.9375 1
vt 0.5 0.9375
vt 0.5625 0.9375
vt 0.5625 1
vt 0.5 1
vt 0.625 0.9375
vt 0.625 1
vt 0.6875 0.9375
vt 0.6875 1
vt 0.5 0.875
vt 0.5625 0.875
vt 0.625 0.875
vt 0.6875 0.875
vt 0.375 0.4375
vt 0.375 0.5

# Normal
vn 0 0 -1

# Mesh description
g FiecFEPOL_mesh_0019

# Faces
f 1/1/1 2/2/1 3/3/1 4/4/1
f 5/5/1 6/6/1 7/2/1 8/1/1
f 9/7/1 10/8/1 11/9/1 12/10/1
f 13/11/1 14/7/1 15/10/1 16/12/1
f 17/6/1 18/13/1 19/14/1 20/2/1
f 21/15/1 22/16/1 23/13/1 24/6/1
f 25/17/1 26/18/1 27/19/1 28/20/1
f 29/21/1 30/22/1 31/18/1 32/17/1
f 33/17/1 34/18/1 35/19/1 36/20/1
f 37/23/1 38/24/1 39/25/1 40/26/1
f 41/21/1 42/22/1 43/18/1 44/17/1
f 45/21/1 46/22/1 47/18/1 48/17/1
f 49/23/1 50/24/1 51/25/1 52/26/1
f 53/27/1 54/11/1 55/12/1 56/28/1
f 57/11/1 58/7/1 59/10/1 60/12/1
f 61/23/1 62/24/1 63/25/1 64/26/1
f 65/21/1 66/22/1 67/18/1 68/17/1
f 69/21/1 70/22/1 71/18/1 72/17/1
f 73/23/1 74/24/1 75/25/1 76/26/1
f 77/6/1 78/13/1 79/14/1 80/2/1
f 81/14/1 82/29/1 83/22/1 84/21/1
f 85/30/1 86/31/1 87/32/1 88/33/1
f 89/34/1 90/35/1 91/36/1 92/37/1
f 93/21/1 94/22/1 95/18/1 96/17/1
f 97/15/1 98/16/1 99/13/1 100/6/1
f 101/38/1 102/39/1 103/31/1 104/30/1
f 105/40/1 106/41/1 107/35/1 108/34/1
f 109/14/1 110/29/1 111/22/1 112/21/1
f 113/4/1 114/3/1 115/42/1 116/43/1
f 117/6/1 118/13/1 119/14/1 120/2/1
f 121/15/1 122/16/1 123/13/1 124/6/1
f 125/44/1 126/45/1 127/46/1 128/47/1
f 129/44/1 130/45/1 131/46/1 132/47/1
f 133/1/1 134/2/1 135/3/1 136/4/1
f 137/48/1 138/49/1 139/45/1 140/44/1
f 141/48/1 142/49/1 143/45/1 144/44/1
f 145/5/1 146/6/1 147/2/1 148/1/1
f 149/50/1 150/51/1 151/52/1 152/53/1
f 153/50/1 154/51/1 155/52/1 156/53/1
f 157/50/1 158/51/1 159/52/1 160/53/1
f 161/50/1 162/51/1 163/52/1 164/53/1
f 165/44/1 166/45/1 167/46/1 168/47/1
f 169/44/1 170/45/1 171/46/1 172/47/1
f 173/44/1 174/45/1 175/46/1 176/47/1
f 177/54/1 178/55/1 179/56/1 180/57/1
f 181/55/1 182/58/1 183/59/1 184/56/1
f 185/48/1 186/49/1 187/45/1 188/44/1
f 189/48/1 190/49/1 191/45/1 192/44/1
f 193/48/1 194/49/1 195/45/1 196/44/1
f 197/7/1 198/8/1 199/9/1 200/10/1
f 201/20/1 202/19/1 203/60/1 204/61/1
f 205/30/1 206/31/1 207/32/1 208/33/1
f 209/35/1 210/62/1 211/63/1 212/36/1
f 213/35/1 214/62/1 215/63/1 216/36/1
f 217/64/1 218/65/1 219/66/1 220/67/1
f 221/65/1 222/68/1 223/69/1 224/66/1
f 225/35/1 226/62/1 227/63/1 228/36/1
f 229/35/1 230/62/1 231/63/1 232/36/1
f 233/35/1 234/62/1 235/63/1 236/36/1
f 237/38/1 238/39/1 239/31/1 240/30/1
f 241/44/1 242/45/1 243/46/1 244/47/1
f 245/41/1 246/70/1 247/62/1 248/35/1
f 249/41/1 250/70/1 251/62/1 252/35/1
f 253/26/1 254/25/1 255/65/1 256/64/1
f 257/25/1 258/71/1 259/68/1 260/65/1
f 261/41/1 262/70/1 263/62/1 264/35/1
f 265/41/1 266/70/1 267/62/1 268/35/1
f 269/41/1 270/70/1 271/62/1 272/35/1
f 273/48/1 274/49/1 275/45/1 276/44/1
f 277/72/1 278/73/1 279/74/1 280/75/1
f 281/35/1 282/62/1 283/63/1 284/36/1
f 285/35/1 286/62/1 287/63/1 288/36/1
f 289/76/1 290/77/1 291/78/1 292/79/1
f 293/77/1 294/80/1 295/81/1 296/78/1
f 297/80/1 298/82/1 299/83/1 300/81/1
f 301/34/1 302/35/1 303/36/1 304/37/1
f 305/44/1 306/45/1 307/46/1 308/47/1
f 309/44/1 310/45/1 311/46/1 312/47/1
f 313/41/1 314/70/1 315/62/1 316/35/1
f 317/41/1 318/70/1 319/62/1 320/35/1
f 321/44/1 322/45/1 323/46/1 324/47/1
f 325/84/1 326/85/1 327/77/1 328/76/1
f 329/85/1 330/86/1 331/80/1 332/77/1
f 333/86/1 334/87/1 335/82/1 336/80/1
f 337/40/1 338/41/1 339/35/1 340/34/1
f 341/48/1 342/49/1 343/45/1 344/44/1
f 345/48/1 346/49/1 347/45/1 348/44/1
f 349/48/1 350/49/1 351/45/1 352/44/1
f 353/72/1 354/73/1 355/74/1 356/75/1
f 357/35/1 358/62/1 359/63/1 360/36/1
f 361/34/1 362/35/1 363/36/1 364/37/1
f 365/41/1 366/70/1 367/62/1 368/35/1
f 369/40/1 370/41/1 371/35/1 372/34/1
f 373/4/1 374/3/1 375/42/1 376/43/1
f 377/88/1 378/20/1 379/61/1 380/89/1
f 381/7/1 382/8/1 383/9/1 384/10/1
f 385/7/1 386/8/1 387/9/1 388/10/1
f 389/7/1 390/8/1 391/9/1 392/10/1
f 393/11/1 394/7/1 395/10/1 396/12/1
f 397/30/1 398/31/1 399/32/1 400/33/1
f 401/34/1 402/35/1 403/36/1 404/37/1
f 405/35/1 406/62/1 407/63/1 408/36/1
f 409/11/1 410/7/1 411/10/1 412/12/1
f 413/44/1 414/45/1 415/46/1 416/47/1
f 417/38/1 418/39/1 419/31/1 420/30/1
f 421/44/1 422/45/1 423/46/1 424/47/1
f 425/44/1 426/45/1 427/46/1 428/47/1
f 429/40/1 430/41/1 431/35/1 432/34/1
f 433/41/1 434/70/1 435/62/1 436/35/1
f 437/48/1 438/49/1 439/45/1 440/44/1
f 441/48/1 442/49/1 443/45/1 444/44/1
f 445/48/1 446/49/1 447/45/1 448/44/1
f 449/27/1 450/11/1 451/12/1 452/28/1
f 453/11/1 454/7/1 455/10/1 456/12/1

