# Tiled2Unity generated file. Do not modify by hand.
# Wavefront file for 'FiecFEPOL_mesh_0022.obj'

# Vertices (Count = 212)
v -136 -78 0
v -137 -78 0
v -137 -77 0
v -136 -77 0
v -137 -78 0
v -138 -78 0
v -138 -77 0
v -137 -77 0
v -138 -78 0
v -139 -78 0
v -139 -77 0
v -138 -77 0
v -139 -78 0
v -140 -78 0
v -140 -77 0
v -139 -77 0
v -140 -78 0
v -141 -78 0
v -141 -77 0
v -140 -77 0
v -141 -78 0
v -142 -78 0
v -142 -77 0
v -141 -77 0
v -142 -78 0
v -143 -78 0
v -143 -77 0
v -142 -77 0
v -143 -78 0
v -144 -78 0
v -144 -77 0
v -143 -77 0
v -144 -78 0
v -145 -78 0
v -145 -77 0
v -144 -77 0
v -145 -78 0
v -146 -78 0
v -146 -77 0
v -145 -77 0
v -150 -78 0
v -151 -78 0
v -151 -77 0
v -150 -77 0
v -151 -78 0
v -152 -78 0
v -152 -77 0
v -151 -77 0
v -152 -78 0
v -153 -78 0
v -153 -77 0
v -152 -77 0
v -153 -78 0
v -154 -78 0
v -154 -77 0
v -153 -77 0
v -154 -78 0
v -155 -78 0
v -155 -77 0
v -154 -77 0
v -155 -78 0
v -156 -78 0
v -156 -77 0
v -155 -77 0
v -156 -78 0
v -157 -78 0
v -157 -77 0
v -156 -77 0
v -157 -78 0
v -158 -78 0
v -158 -77 0
v -157 -77 0
v -158 -78 0
v -159 -78 0
v -159 -77 0
v -158 -77 0
v -159 -78 0
v -160 -78 0
v -160 -77 0
v -159 -77 0
v -136 -79 0
v -137 -79 0
v -137 -78 0
v -136 -78 0
v -137 -79 0
v -138 -79 0
v -138 -78 0
v -137 -78 0
v -138 -79 0
v -139 -79 0
v -139 -78 0
v -138 -78 0
v -139 -79 0
v -140 -79 0
v -140 -78 0
v -139 -78 0
v -140 -79 0
v -141 -79 0
v -141 -78 0
v -140 -78 0
v -141 -79 0
v -142 -79 0
v -142 -78 0
v -141 -78 0
v -142 -79 0
v -143 -79 0
v -143 -78 0
v -142 -78 0
v -143 -79 0
v -144 -79 0
v -144 -78 0
v -143 -78 0
v -144 -79 0
v -145 -79 0
v -145 -78 0
v -144 -78 0
v -145 -79 0
v -146 -79 0
v -146 -78 0
v -145 -78 0
v -150 -79 0
v -151 -79 0
v -151 -78 0
v -150 -78 0
v -151 -79 0
v -152 -79 0
v -152 -78 0
v -151 -78 0
v -152 -79 0
v -153 -79 0
v -153 -78 0
v -152 -78 0
v -153 -79 0
v -154 -79 0
v -154 -78 0
v -153 -78 0
v -154 -79 0
v -155 -79 0
v -155 -78 0
v -154 -78 0
v -155 -79 0
v -156 -79 0
v -156 -78 0
v -155 -78 0
v -156 -79 0
v -157 -79 0
v -157 -78 0
v -156 -78 0
v -157 -79 0
v -158 -79 0
v -158 -78 0
v -157 -78 0
v -158 -79 0
v -159 -79 0
v -159 -78 0
v -158 -78 0
v -159 -79 0
v -160 -79 0
v -160 -78 0
v -159 -78 0
v -176 -94 0
v -177 -94 0
v -177 -93 0
v -176 -93 0
v -177 -94 0
v -178 -94 0
v -178 -93 0
v -177 -93 0
v -182 -98 0
v -183 -98 0
v -183 -97 0
v -182 -97 0
v -195 -99 0
v -196 -99 0
v -196 -98 0
v -195 -98 0
v -199 -100 0
v -200 -100 0
v -200 -99 0
v -199 -99 0
v -189 -101 0
v -190 -101 0
v -190 -100 0
v -189 -100 0
v -190 -101 0
v -191 -101 0
v -191 -100 0
v -190 -100 0
v -204 -101 0
v -205 -101 0
v -205 -100 0
v -204 -100 0
v -205 -101 0
v -206 -101 0
v -206 -100 0
v -205 -100 0
v -206 -101 0
v -207 -101 0
v -207 -100 0
v -206 -100 0
v -207 -101 0
v -208 -101 0
v -208 -100 0
v -207 -100 0
v -209 -101 0
v -210 -101 0
v -210 -100 0
v -209 -100 0
v -197 -102 0
v -198 -102 0
v -198 -101 0
v -197 -101 0

# Texture cooridinates (Count = 29)
vt 0.5 0.5
vt 0.5625 0.5
vt 0.5625 0.5625
vt 0.5 0.5625
vt 0.625 0.5
vt 0.625 0.5625
vt 0.5 0.625
vt 0.5625 0.625
vt 0.5625 0.6875
vt 0.5 0.6875
vt 0.625 0.625
vt 0.625 0.6875
vt 0.5 0.4375
vt 0.5625 0.4375
vt 0.625 0.4375
vt 0.375 0.6875
vt 0.4375 0.6875
vt 0.4375 0.75
vt 0.375 0.75
vt 0.3125 0.5625
vt 0.375 0.5625
vt 0.375 0.625
vt 0.3125 0.625
vt 0.4375 0.5625
vt 0.4375 0.625
vt 0 0
vt 0.0625 0
vt 0.0625 0.0625
vt 0 0.0625

# Normal
vn 0 0 -1

# Mesh description
g FiecFEPOL_mesh_0022

# Faces
f 1/1/1 2/2/1 3/3/1 4/4/1
f 5/2/1 6/5/1 7/6/1 8/3/1
f 9/7/1 10/8/1 11/9/1 12/10/1
f 13/8/1 14/11/1 15/12/1 16/9/1
f 17/1/1 18/2/1 19/3/1 20/4/1
f 21/2/1 22/5/1 23/6/1 24/3/1
f 25/7/1 26/8/1 27/9/1 28/10/1
f 29/8/1 30/11/1 31/12/1 32/9/1
f 33/1/1 34/2/1 35/3/1 36/4/1
f 37/2/1 38/5/1 39/6/1 40/3/1
f 41/1/1 42/2/1 43/3/1 44/4/1
f 45/2/1 46/5/1 47/6/1 48/3/1
f 49/7/1 50/8/1 51/9/1 52/10/1
f 53/8/1 54/11/1 55/12/1 56/9/1
f 57/1/1 58/2/1 59/3/1 60/4/1
f 61/2/1 62/5/1 63/6/1 64/3/1
f 65/7/1 66/8/1 67/9/1 68/10/1
f 69/8/1 70/11/1 71/12/1 72/9/1
f 73/1/1 74/2/1 75/3/1 76/4/1
f 77/2/1 78/5/1 79/6/1 80/3/1
f 81/13/1 82/14/1 83/2/1 84/1/1
f 85/14/1 86/15/1 87/5/1 88/2/1
f 89/4/1 90/3/1 91/8/1 92/7/1
f 93/3/1 94/6/1 95/11/1 96/8/1
f 97/13/1 98/14/1 99/2/1 100/1/1
f 101/14/1 102/15/1 103/5/1 104/2/1
f 105/4/1 106/3/1 107/8/1 108/7/1
f 109/3/1 110/6/1 111/11/1 112/8/1
f 113/13/1 114/14/1 115/2/1 116/1/1
f 117/14/1 118/15/1 119/5/1 120/2/1
f 121/13/1 122/14/1 123/2/1 124/1/1
f 125/14/1 126/15/1 127/5/1 128/2/1
f 129/4/1 130/3/1 131/8/1 132/7/1
f 133/16/1 134/17/1 135/18/1 136/19/1
f 137/13/1 138/14/1 139/2/1 140/1/1
f 141/14/1 142/15/1 143/5/1 144/2/1
f 145/4/1 146/3/1 147/8/1 148/7/1
f 149/3/1 150/6/1 151/11/1 152/8/1
f 153/13/1 154/14/1 155/2/1 156/1/1
f 157/14/1 158/15/1 159/5/1 160/2/1
f 161/20/1 162/21/1 163/22/1 164/23/1
f 165/21/1 166/24/1 167/25/1 168/22/1
f 169/20/1 170/21/1 171/22/1 172/23/1
f 173/24/1 174/4/1 175/7/1 176/25/1
f 177/21/1 178/24/1 179/25/1 180/22/1
f 181/22/1 182/25/1 183/17/1 184/16/1
f 185/25/1 186/7/1 187/10/1 188/17/1
f 189/20/1 190/21/1 191/22/1 192/23/1
f 193/21/1 194/24/1 195/25/1 196/22/1
f 197/22/1 198/25/1 199/17/1 200/16/1
f 201/25/1 202/7/1 203/10/1 204/17/1
f 205/16/1 206/17/1 207/18/1 208/19/1
f 209/26/1 210/27/1 211/28/1 212/29/1

