# Tiled2Unity generated file. Do not modify by hand.
# Wavefront file for 'FiecFEPOL_mesh_0029.obj'

# Vertices (Count = 152)
v -180 -92 0
v -181 -92 0
v -181 -91 0
v -180 -91 0
v -181 -92 0
v -182 -92 0
v -182 -91 0
v -181 -91 0
v -180 -93 0
v -181 -93 0
v -181 -92 0
v -180 -92 0
v -181 -93 0
v -182 -93 0
v -182 -92 0
v -181 -92 0
v -200 -101 0
v -201 -101 0
v -201 -100 0
v -200 -100 0
v -201 -101 0
v -202 -101 0
v -202 -100 0
v -201 -100 0
v -199 -107 0
v -200 -107 0
v -200 -106 0
v -199 -106 0
v -200 -107 0
v -201 -107 0
v -201 -106 0
v -200 -106 0
v -201 -107 0
v -202 -107 0
v -202 -106 0
v -201 -106 0
v -202 -107 0
v -203 -107 0
v -203 -106 0
v -202 -106 0
v -203 -107 0
v -204 -107 0
v -204 -106 0
v -203 -106 0
v -204 -107 0
v -205 -107 0
v -205 -106 0
v -204 -106 0
v -205 -107 0
v -206 -107 0
v -206 -106 0
v -205 -106 0
v -206 -107 0
v -207 -107 0
v -207 -106 0
v -206 -106 0
v -207 -107 0
v -208 -107 0
v -208 -106 0
v -207 -106 0
v -208 -107 0
v -209 -107 0
v -209 -106 0
v -208 -106 0
v -209 -107 0
v -210 -107 0
v -210 -106 0
v -209 -106 0
v -210 -107 0
v -211 -107 0
v -211 -106 0
v -210 -106 0
v -211 -107 0
v -212 -107 0
v -212 -106 0
v -211 -106 0
v -212 -107 0
v -213 -107 0
v -213 -106 0
v -212 -106 0
v -202 -112 0
v -203 -112 0
v -203 -111 0
v -202 -111 0
v -203 -112 0
v -204 -112 0
v -204 -111 0
v -203 -111 0
v -202 -113 0
v -203 -113 0
v -203 -112 0
v -202 -112 0
v -203 -113 0
v -204 -113 0
v -204 -112 0
v -203 -112 0
v -202 -115 0
v -203 -115 0
v -203 -114 0
v -202 -114 0
v -203 -115 0
v -204 -115 0
v -204 -114 0
v -203 -114 0
v -202 -116 0
v -203 -116 0
v -203 -115 0
v -202 -115 0
v -203 -116 0
v -204 -116 0
v -204 -115 0
v -203 -115 0
v -201 -118 0
v -202 -118 0
v -202 -117 0
v -201 -117 0
v -202 -118 0
v -203 -118 0
v -203 -117 0
v -202 -117 0
v -201 -119 0
v -202 -119 0
v -202 -118 0
v -201 -118 0
v -202 -119 0
v -203 -119 0
v -203 -118 0
v -202 -118 0
v -185 -123 0
v -186 -123 0
v -186 -122 0
v -185 -122 0
v -186 -123 0
v -187 -123 0
v -187 -122 0
v -186 -122 0
v -185 -124 0
v -186 -124 0
v -186 -123 0
v -185 -123 0
v -186 -124 0
v -187 -124 0
v -187 -123 0
v -186 -123 0
v -184 -126 0
v -185 -126 0
v -185 -125 0
v -184 -125 0
v -185 -126 0
v -186 -126 0
v -186 -125 0
v -185 -125 0

# Texture cooridinates (Count = 32)
vt 0.875 0.375
vt 0.9375 0.375
vt 0.9375 0.4375
vt 0.875 0.4375
vt 1 0.375
vt 1 0.4375
vt 0.875 0.3125
vt 0.9375 0.3125
vt 1 0.3125
vt 0.75 0.3125
vt 0.8125 0.3125
vt 0.8125 0.375
vt 0.75 0.375
vt 0.75 0
vt 0.8125 0
vt 0.8125 0.0625
vt 0.75 0.0625
vt 0.875 0
vt 0.875 0.0625
vt 0.625 0.375
vt 0.6875 0.375
vt 0.6875 0.4375
vt 0.625 0.4375
vt 0.75 0.4375
vt 0.625 0.3125
vt 0.6875 0.3125
vt 0.5 0.375
vt 0.5625 0.375
vt 0.5625 0.4375
vt 0.5 0.4375
vt 0.5 0.3125
vt 0.5625 0.3125

# Normal
vn 0 0 -1

# Mesh description
g FiecFEPOL_mesh_0029

# Faces
f 1/1/1 2/2/1 3/3/1 4/4/1
f 5/2/1 6/5/1 7/6/1 8/3/1
f 9/7/1 10/8/1 11/2/1 12/1/1
f 13/8/1 14/9/1 15/5/1 16/2/1
f 17/10/1 18/11/1 19/12/1 20/13/1
f 21/11/1 22/7/1 23/1/1 24/12/1
f 25/1/1 26/2/1 27/3/1 28/4/1
f 29/2/1 30/5/1 31/6/1 32/3/1
f 33/14/1 34/15/1 35/16/1 36/17/1
f 37/15/1 38/18/1 39/19/1 40/16/1
f 41/14/1 42/15/1 43/16/1 44/17/1
f 45/15/1 46/18/1 47/19/1 48/16/1
f 49/14/1 50/15/1 51/16/1 52/17/1
f 53/15/1 54/18/1 55/19/1 56/16/1
f 57/14/1 58/15/1 59/16/1 60/17/1
f 61/15/1 62/18/1 63/19/1 64/16/1
f 65/14/1 66/15/1 67/16/1 68/17/1
f 69/15/1 70/18/1 71/19/1 72/16/1
f 73/14/1 74/15/1 75/16/1 76/17/1
f 77/15/1 78/18/1 79/19/1 80/16/1
f 81/1/1 82/2/1 83/3/1 84/4/1
f 85/2/1 86/5/1 87/6/1 88/3/1
f 89/7/1 90/8/1 91/2/1 92/1/1
f 93/8/1 94/9/1 95/5/1 96/2/1
f 97/20/1 98/21/1 99/22/1 100/23/1
f 101/21/1 102/13/1 103/24/1 104/22/1
f 105/25/1 106/26/1 107/21/1 108/20/1
f 109/26/1 110/10/1 111/13/1 112/21/1
f 113/27/1 114/28/1 115/29/1 116/30/1
f 117/28/1 118/20/1 119/23/1 120/29/1
f 121/31/1 122/32/1 123/28/1 124/27/1
f 125/32/1 126/25/1 127/20/1 128/28/1
f 129/1/1 130/2/1 131/3/1 132/4/1
f 133/2/1 134/5/1 135/6/1 136/3/1
f 137/7/1 138/8/1 139/2/1 140/1/1
f 141/8/1 142/9/1 143/5/1 144/2/1
f 145/20/1 146/21/1 147/22/1 148/23/1
f 149/21/1 150/13/1 151/24/1 152/22/1

