# Tiled2Unity generated file. Do not modify by hand.
# Wavefront file for 'FiecFEPOL_mesh_0028.obj'

# Vertices (Count = 16)
v -99 -90 0
v -100 -90 0
v -100 -89 0
v -99 -89 0
v -100 -90 0
v -101 -90 0
v -101 -89 0
v -100 -89 0
v -105 -96 0
v -106 -96 0
v -106 -95 0
v -105 -95 0
v -99 -109 0
v -100 -109 0
v -100 -108 0
v -99 -108 0

# Texture cooridinates (Count = 12)
vt 0.875 0
vt 0.9375 0
vt 0.9375 0.0625
vt 0.875 0.0625
vt 1 0
vt 1 0.0625
vt 0.4375 0.5625
vt 0.5 0.5625
vt 0.5 0.625
vt 0.4375 0.625
vt 0.375 0.5625
vt 0.375 0.625

# Normal
vn 0 0 -1

# Mesh description
g FiecFEPOL_mesh_0028

# Faces
f 1/1/1 2/2/1 3/3/1 4/4/1
f 5/2/1 6/5/1 7/6/1 8/3/1
f 9/7/1 10/8/1 11/9/1 12/10/1
f 13/11/1 14/7/1 15/10/1 16/12/1

