# Tiled2Unity generated file. Do not modify by hand.
# Wavefront file for 'FiecFEPOL_mesh_0026.obj'

# Vertices (Count = 40)
v -99 -75 0
v -100 -75 0
v -100 -74 0
v -99 -74 0
v -100 -75 0
v -101 -75 0
v -101 -74 0
v -100 -74 0
v -101 -75 0
v -102 -75 0
v -102 -74 0
v -101 -74 0
v -102 -75 0
v -103 -75 0
v -103 -74 0
v -102 -74 0
v -106 -75 0
v -107 -75 0
v -107 -74 0
v -106 -74 0
v -107 -75 0
v -108 -75 0
v -108 -74 0
v -107 -74 0
v -108 -75 0
v -109 -75 0
v -109 -74 0
v -108 -74 0
v -109 -75 0
v -110 -75 0
v -110 -74 0
v -109 -74 0
v -192 -107 0
v -193 -107 0
v -193 -106 0
v -192 -106 0
v -196 -107 0
v -197 -107 0
v -197 -106 0
v -196 -106 0

# Texture cooridinates (Count = 14)
vt 0.8125 0.625
vt 0.875 0.625
vt 0.875 0.6875
vt 0.8125 0.6875
vt 0.9375 0.625
vt 0.9375 0.6875
vt 1 0.625
vt 1 0.6875
vt 0.8125 0.875
vt 0.875 0.875
vt 0.875 0.9375
vt 0.8125 0.9375
vt 0.9375 0.875
vt 0.9375 0.9375

# Normal
vn 0 0 -1

# Mesh description
g FiecFEPOL_mesh_0026

# Faces
f 1/1/1 2/2/1 3/3/1 4/4/1
f 5/2/1 6/5/1 7/6/1 8/3/1
f 9/2/1 10/5/1 11/6/1 12/3/1
f 13/5/1 14/7/1 15/8/1 16/6/1
f 17/1/1 18/2/1 19/3/1 20/4/1
f 21/2/1 22/5/1 23/6/1 24/3/1
f 25/2/1 26/5/1 27/6/1 28/3/1
f 29/5/1 30/7/1 31/8/1 32/6/1
f 33/9/1 34/10/1 35/11/1 36/12/1
f 37/10/1 38/13/1 39/14/1 40/11/1

