# Tiled2Unity generated file. Do not modify by hand.
# Wavefront file for 'FiecFEPOL_mesh_0015.obj'

# Vertices (Count = 64)
v -104 -54 0
v -105 -54 0
v -105 -53 0
v -104 -53 0
v -107 -54 0
v -108 -54 0
v -108 -53 0
v -107 -53 0
v -104 -55 0
v -105 -55 0
v -105 -54 0
v -104 -54 0
v -107 -55 0
v -108 -55 0
v -108 -54 0
v -107 -54 0
v -104 -57 0
v -105 -57 0
v -105 -56 0
v -104 -56 0
v -107 -57 0
v -108 -57 0
v -108 -56 0
v -107 -56 0
v -104 -58 0
v -105 -58 0
v -105 -57 0
v -104 -57 0
v -107 -58 0
v -108 -58 0
v -108 -57 0
v -107 -57 0
v -104 -60 0
v -105 -60 0
v -105 -59 0
v -104 -59 0
v -107 -60 0
v -108 -60 0
v -108 -59 0
v -107 -59 0
v -104 -61 0
v -105 -61 0
v -105 -60 0
v -104 -60 0
v -107 -61 0
v -108 -61 0
v -108 -60 0
v -107 -60 0
v -109 -69 0
v -110 -69 0
v -110 -68 0
v -109 -68 0
v -110 -69 0
v -111 -69 0
v -111 -68 0
v -110 -68 0
v -109 -70 0
v -110 -70 0
v -110 -69 0
v -109 -69 0
v -110 -70 0
v -111 -70 0
v -111 -69 0
v -110 -69 0

# Texture cooridinates (Count = 15)
vt 0.5454546 0.2
vt 0.5909091 0.2
vt 0.5909091 0.24
vt 0.5454546 0.24
vt 0.5454546 0.16
vt 0.5909091 0.16
vt 0.7727273 0.2
vt 0.8181818 0.2
vt 0.8181818 0.24
vt 0.7727273 0.24
vt 0.8636364 0.2
vt 0.8636364 0.24
vt 0.7727273 0.16
vt 0.8181818 0.16
vt 0.8636364 0.16

# Normal
vn 0 0 -1

# Mesh description
g FiecFEPOL_mesh_0015

# Faces
f 1/1/1 2/2/1 3/3/1 4/4/1
f 5/1/1 6/2/1 7/3/1 8/4/1
f 9/5/1 10/6/1 11/2/1 12/1/1
f 13/5/1 14/6/1 15/2/1 16/1/1
f 17/1/1 18/2/1 19/3/1 20/4/1
f 21/1/1 22/2/1 23/3/1 24/4/1
f 25/5/1 26/6/1 27/2/1 28/1/1
f 29/5/1 30/6/1 31/2/1 32/1/1
f 33/1/1 34/2/1 35/3/1 36/4/1
f 37/1/1 38/2/1 39/3/1 40/4/1
f 41/5/1 42/6/1 43/2/1 44/1/1
f 45/5/1 46/6/1 47/2/1 48/1/1
f 49/7/1 50/8/1 51/9/1 52/10/1
f 53/8/1 54/11/1 55/12/1 56/9/1
f 57/13/1 58/14/1 59/8/1 60/7/1
f 61/14/1 62/15/1 63/11/1 64/8/1

