# Tiled2Unity generated file. Do not modify by hand.
# Wavefront file for 'FiecFEPOL_mesh_0032.obj'

# Vertices (Count = 16)
v -173 -104 0
v -174 -104 0
v -174 -103 0
v -173 -103 0
v -174 -105 0
v -175 -105 0
v -175 -104 0
v -174 -104 0
v -175 -106 0
v -176 -106 0
v -176 -105 0
v -175 -105 0
v -176 -107 0
v -177 -107 0
v -177 -106 0
v -176 -106 0

# Texture cooridinates (Count = 4)
vt 0.6111111 0.9375
vt 0.6666667 0.9375
vt 0.6666667 1
vt 0.6111111 1

# Normal
vn 0 0 -1

# Mesh description
g FiecFEPOL_mesh_0032

# Faces
f 1/1/1 2/2/1 3/3/1 4/4/1
f 5/1/1 6/2/1 7/3/1 8/4/1
f 9/1/1 10/2/1 11/3/1 12/4/1
f 13/1/1 14/2/1 15/3/1 16/4/1

