# Tiled2Unity generated file. Do not modify by hand.
# Wavefront file for 'BibliotecaNueva-1_mesh_0005.obj'

# Vertices (Count = 28)
v -31 -4 0
v -32 -4 0
v -32 -3 0
v -31 -3 0
v -33 -4 0
v -34 -4 0
v -34 -3 0
v -33 -3 0
v -35 -4 0
v -36 -4 0
v -36 -3 0
v -35 -3 0
v -30 -5 0
v -31 -5 0
v -31 -4 0
v -30 -4 0
v -36 -5 0
v -37 -5 0
v -37 -4 0
v -36 -4 0
v -30 -6 0
v -31 -6 0
v -31 -5 0
v -30 -5 0
v -36 -6 0
v -37 -6 0
v -37 -5 0
v -36 -5 0

# Texture cooridinates (Count = 8)
vt 0.9953704 0.928421
vt 0.970679 0.928421
vt 0.970679 0.8947368
vt 0.9953704 0.8947368
vt 0.970679 0.9663158
vt 0.9953704 0.9663158
vt 0.9953704 1
vt 0.970679 1

# Normal
vn 0 0 -1

# Mesh description
g BibliotecaNueva-1_mesh_0005

# Faces
f 1/1/1 2/2/1 3/3/1 4/4/1
f 5/1/1 6/2/1 7/3/1 8/4/1
f 9/1/1 10/2/1 11/3/1 12/4/1
f 13/5/1 14/6/1 15/7/1 16/8/1
f 17/7/1 18/8/1 19/5/1 20/6/1
f 21/5/1 22/6/1 23/7/1 24/8/1
f 25/7/1 26/8/1 27/5/1 28/6/1

