# Tiled2Unity generated file. Do not modify by hand.
# Wavefront file for 'BibliotecaNueva-1_mesh_0003.obj'

# Vertices (Count = 824)
v -24 -2 0
v -25 -2 0
v -25 -1 0
v -24 -1 0
v -25 -2 0
v -26 -2 0
v -26 -1 0
v -25 -1 0
v -26 -2 0
v -27 -2 0
v -27 -1 0
v -26 -1 0
v -27 -2 0
v -28 -2 0
v -28 -1 0
v -27 -1 0
v -28 -2 0
v -29 -2 0
v -29 -1 0
v -28 -1 0
v -29 -2 0
v -30 -2 0
v -30 -1 0
v -29 -1 0
v -37 -2 0
v -38 -2 0
v -38 -1 0
v -37 -1 0
v -38 -2 0
v -39 -2 0
v -39 -1 0
v -38 -1 0
v -39 -2 0
v -40 -2 0
v -40 -1 0
v -39 -1 0
v -40 -2 0
v -41 -2 0
v -41 -1 0
v -40 -1 0
v -24 -3 0
v -25 -3 0
v -25 -2 0
v -24 -2 0
v -25 -3 0
v -26 -3 0
v -26 -2 0
v -25 -2 0
v -26 -3 0
v -27 -3 0
v -27 -2 0
v -26 -2 0
v -27 -3 0
v -28 -3 0
v -28 -2 0
v -27 -2 0
v -28 -3 0
v -29 -3 0
v -29 -2 0
v -28 -2 0
v -29 -3 0
v -30 -3 0
v -30 -2 0
v -29 -2 0
v -37 -3 0
v -38 -3 0
v -38 -2 0
v -37 -2 0
v -40 -3 0
v -41 -3 0
v -41 -2 0
v -40 -2 0
v -29 -4 0
v -30 -4 0
v -30 -3 0
v -29 -3 0
v -30 -4 0
v -31 -4 0
v -31 -3 0
v -30 -3 0
v -31 -4 0
v -32 -4 0
v -32 -3 0
v -31 -3 0
v -32 -4 0
v -33 -4 0
v -33 -3 0
v -32 -3 0
v -33 -4 0
v -34 -4 0
v -34 -3 0
v -33 -3 0
v -34 -4 0
v -35 -4 0
v -35 -3 0
v -34 -3 0
v -35 -4 0
v -36 -4 0
v -36 -3 0
v -35 -3 0
v -36 -4 0
v -37 -4 0
v -37 -3 0
v -36 -3 0
v -37 -4 0
v -38 -4 0
v -38 -3 0
v -37 -3 0
v -40 -4 0
v -41 -4 0
v -41 -3 0
v -40 -3 0
v -29 -5 0
v -30 -5 0
v -30 -4 0
v -29 -4 0
v -30 -5 0
v -31 -5 0
v -31 -4 0
v -30 -4 0
v -31 -5 0
v -32 -5 0
v -32 -4 0
v -31 -4 0
v -32 -5 0
v -33 -5 0
v -33 -4 0
v -32 -4 0
v -33 -5 0
v -34 -5 0
v -34 -4 0
v -33 -4 0
v -34 -5 0
v -35 -5 0
v -35 -4 0
v -34 -4 0
v -35 -5 0
v -36 -5 0
v -36 -4 0
v -35 -4 0
v -36 -5 0
v -37 -5 0
v -37 -4 0
v -36 -4 0
v -37 -5 0
v -38 -5 0
v -38 -4 0
v -37 -4 0
v -40 -5 0
v -41 -5 0
v -41 -4 0
v -40 -4 0
v -29 -6 0
v -30 -6 0
v -30 -5 0
v -29 -5 0
v -30 -6 0
v -31 -6 0
v -31 -5 0
v -30 -5 0
v -31 -6 0
v -32 -6 0
v -32 -5 0
v -31 -5 0
v -32 -6 0
v -33 -6 0
v -33 -5 0
v -32 -5 0
v -33 -6 0
v -34 -6 0
v -34 -5 0
v -33 -5 0
v -34 -6 0
v -35 -6 0
v -35 -5 0
v -34 -5 0
v -35 -6 0
v -36 -6 0
v -36 -5 0
v -35 -5 0
v -36 -6 0
v -37 -6 0
v -37 -5 0
v -36 -5 0
v -37 -6 0
v -38 -6 0
v -38 -5 0
v -37 -5 0
v -39 -6 0
v -40 -6 0
v -40 -5 0
v -39 -5 0
v -40 -6 0
v -41 -6 0
v -41 -5 0
v -40 -5 0
v -45 -6 0
v -46 -6 0
v -46 -5 0
v -45 -5 0
v -46 -6 0
v -47 -6 0
v -47 -5 0
v -46 -5 0
v -47 -6 0
v -48 -6 0
v -48 -5 0
v -47 -5 0
v -48 -6 0
v -49 -6 0
v -49 -5 0
v -48 -5 0
v -49 -6 0
v -50 -6 0
v -50 -5 0
v -49 -5 0
v -50 -6 0
v -51 -6 0
v -51 -5 0
v -50 -5 0
v -51 -6 0
v -52 -6 0
v -52 -5 0
v -51 -5 0
v -52 -6 0
v -53 -6 0
v -53 -5 0
v -52 -5 0
v -53 -6 0
v -54 -6 0
v -54 -5 0
v -53 -5 0
v -54 -6 0
v -55 -6 0
v -55 -5 0
v -54 -5 0
v -55 -6 0
v -56 -6 0
v -56 -5 0
v -55 -5 0
v -29 -7 0
v -30 -7 0
v -30 -6 0
v -29 -6 0
v -40 -7 0
v -41 -7 0
v -41 -6 0
v -40 -6 0
v -45 -7 0
v -46 -7 0
v -46 -6 0
v -45 -6 0
v -46 -7 0
v -47 -7 0
v -47 -6 0
v -46 -6 0
v -47 -7 0
v -48 -7 0
v -48 -6 0
v -47 -6 0
v -48 -7 0
v -49 -7 0
v -49 -6 0
v -48 -6 0
v -49 -7 0
v -50 -7 0
v -50 -6 0
v -49 -6 0
v -50 -7 0
v -51 -7 0
v -51 -6 0
v -50 -6 0
v -51 -7 0
v -52 -7 0
v -52 -6 0
v -51 -6 0
v -52 -7 0
v -53 -7 0
v -53 -6 0
v -52 -6 0
v -53 -7 0
v -54 -7 0
v -54 -6 0
v -53 -6 0
v -54 -7 0
v -55 -7 0
v -55 -6 0
v -54 -6 0
v -55 -7 0
v -56 -7 0
v -56 -6 0
v -55 -6 0
v -56 -7 0
v -57 -7 0
v -57 -6 0
v -56 -6 0
v -57 -7 0
v -58 -7 0
v -58 -6 0
v -57 -6 0
v -58 -7 0
v -59 -7 0
v -59 -6 0
v -58 -6 0
v -59 -7 0
v -60 -7 0
v -60 -6 0
v -59 -6 0
v -60 -7 0
v -61 -7 0
v -61 -6 0
v -60 -6 0
v -61 -7 0
v -62 -7 0
v -62 -6 0
v -61 -6 0
v -62 -7 0
v -63 -7 0
v -63 -6 0
v -62 -6 0
v -63 -7 0
v -64 -7 0
v -64 -6 0
v -63 -6 0
v -64 -7 0
v -65 -7 0
v -65 -6 0
v -64 -6 0
v -65 -7 0
v -66 -7 0
v -66 -6 0
v -65 -6 0
v -29 -8 0
v -30 -8 0
v -30 -7 0
v -29 -7 0
v -40 -8 0
v -41 -8 0
v -41 -7 0
v -40 -7 0
v -45 -8 0
v -46 -8 0
v -46 -7 0
v -45 -7 0
v -55 -8 0
v -56 -8 0
v -56 -7 0
v -55 -7 0
v -56 -8 0
v -57 -8 0
v -57 -7 0
v -56 -7 0
v -57 -8 0
v -58 -8 0
v -58 -7 0
v -57 -7 0
v -58 -8 0
v -59 -8 0
v -59 -7 0
v -58 -7 0
v -59 -8 0
v -60 -8 0
v -60 -7 0
v -59 -7 0
v -60 -8 0
v -61 -8 0
v -61 -7 0
v -60 -7 0
v -61 -8 0
v -62 -8 0
v -62 -7 0
v -61 -7 0
v -62 -8 0
v -63 -8 0
v -63 -7 0
v -62 -7 0
v -63 -8 0
v -64 -8 0
v -64 -7 0
v -63 -7 0
v -64 -8 0
v -65 -8 0
v -65 -7 0
v -64 -7 0
v -65 -8 0
v -66 -8 0
v -66 -7 0
v -65 -7 0
v -29 -9 0
v -30 -9 0
v -30 -8 0
v -29 -8 0
v -40 -9 0
v -41 -9 0
v -41 -8 0
v -40 -8 0
v -41 -9 0
v -42 -9 0
v -42 -8 0
v -41 -8 0
v -42 -9 0
v -43 -9 0
v -43 -8 0
v -42 -8 0
v -43 -9 0
v -44 -9 0
v -44 -8 0
v -43 -8 0
v -44 -9 0
v -45 -9 0
v -45 -8 0
v -44 -8 0
v -45 -9 0
v -46 -9 0
v -46 -8 0
v -45 -8 0
v -65 -9 0
v -66 -9 0
v -66 -8 0
v -65 -8 0
v -29 -10 0
v -30 -10 0
v -30 -9 0
v -29 -9 0
v -37 -10 0
v -38 -10 0
v -38 -9 0
v -37 -9 0
v -38 -10 0
v -39 -10 0
v -39 -9 0
v -38 -9 0
v -39 -10 0
v -40 -10 0
v -40 -9 0
v -39 -9 0
v -40 -10 0
v -41 -10 0
v -41 -9 0
v -40 -9 0
v -41 -10 0
v -42 -10 0
v -42 -9 0
v -41 -9 0
v -42 -10 0
v -43 -10 0
v -43 -9 0
v -42 -9 0
v -43 -10 0
v -44 -10 0
v -44 -9 0
v -43 -9 0
v -44 -10 0
v -45 -10 0
v -45 -9 0
v -44 -9 0
v -45 -10 0
v -46 -10 0
v -46 -9 0
v -45 -9 0
v -65 -10 0
v -66 -10 0
v -66 -9 0
v -65 -9 0
v -65 -11 0
v -66 -11 0
v -66 -10 0
v -65 -10 0
v -65 -12 0
v -66 -12 0
v -66 -11 0
v -65 -11 0
v -65 -13 0
v -66 -13 0
v -66 -12 0
v -65 -12 0
v -65 -14 0
v -66 -14 0
v -66 -13 0
v -65 -13 0
v -65 -15 0
v -66 -15 0
v -66 -14 0
v -65 -14 0
v -65 -16 0
v -66 -16 0
v -66 -15 0
v -65 -15 0
v -65 -17 0
v -66 -17 0
v -66 -16 0
v -65 -16 0
v -65 -18 0
v -66 -18 0
v -66 -17 0
v -65 -17 0
v -65 -19 0
v -66 -19 0
v -66 -18 0
v -65 -18 0
v -2 -20 0
v -3 -20 0
v -3 -19 0
v -2 -19 0
v -65 -20 0
v -66 -20 0
v -66 -19 0
v -65 -19 0
v -2 -21 0
v -3 -21 0
v -3 -20 0
v -2 -20 0
v -58 -21 0
v -59 -21 0
v -59 -20 0
v -58 -20 0
v -59 -21 0
v -60 -21 0
v -60 -20 0
v -59 -20 0
v -60 -21 0
v -61 -21 0
v -61 -20 0
v -60 -20 0
v -61 -21 0
v -62 -21 0
v -62 -20 0
v -61 -20 0
v -62 -21 0
v -63 -21 0
v -63 -20 0
v -62 -20 0
v -63 -21 0
v -64 -21 0
v -64 -20 0
v -63 -20 0
v -64 -21 0
v -65 -21 0
v -65 -20 0
v -64 -20 0
v -65 -21 0
v -66 -21 0
v -66 -20 0
v -65 -20 0
v -2 -22 0
v -3 -22 0
v -3 -21 0
v -2 -21 0
v -53 -22 0
v -54 -22 0
v -54 -21 0
v -53 -21 0
v -54 -22 0
v -55 -22 0
v -55 -21 0
v -54 -21 0
v -55 -22 0
v -56 -22 0
v -56 -21 0
v -55 -21 0
v -56 -22 0
v -57 -22 0
v -57 -21 0
v -56 -21 0
v -57 -22 0
v -58 -22 0
v -58 -21 0
v -57 -21 0
v -2 -23 0
v -3 -23 0
v -3 -22 0
v -2 -22 0
v -43 -23 0
v -44 -23 0
v -44 -22 0
v -43 -22 0
v -44 -23 0
v -45 -23 0
v -45 -22 0
v -44 -22 0
v -45 -23 0
v -46 -23 0
v -46 -22 0
v -45 -22 0
v -46 -23 0
v -47 -23 0
v -47 -22 0
v -46 -22 0
v -47 -23 0
v -48 -23 0
v -48 -22 0
v -47 -22 0
v -48 -23 0
v -49 -23 0
v -49 -22 0
v -48 -22 0
v -49 -23 0
v -50 -23 0
v -50 -22 0
v -49 -22 0
v -50 -23 0
v -51 -23 0
v -51 -22 0
v -50 -22 0
v -51 -23 0
v -52 -23 0
v -52 -22 0
v -51 -22 0
v -52 -23 0
v -53 -23 0
v -53 -22 0
v -52 -22 0
v -2 -24 0
v -3 -24 0
v -3 -23 0
v -2 -23 0
v -31 -24 0
v -32 -24 0
v -32 -23 0
v -31 -23 0
v -38 -24 0
v -39 -24 0
v -39 -23 0
v -38 -23 0
v -39 -24 0
v -40 -24 0
v -40 -23 0
v -39 -23 0
v -40 -24 0
v -41 -24 0
v -41 -23 0
v -40 -23 0
v -41 -24 0
v -42 -24 0
v -42 -23 0
v -41 -23 0
v -42 -24 0
v -43 -24 0
v -43 -23 0
v -42 -23 0
v -2 -25 0
v -3 -25 0
v -3 -24 0
v -2 -24 0
v -3 -25 0
v -4 -25 0
v -4 -24 0
v -3 -24 0
v -4 -25 0
v -5 -25 0
v -5 -24 0
v -4 -24 0
v -31 -25 0
v -32 -25 0
v -32 -24 0
v -31 -24 0
v -35 -25 0
v -36 -25 0
v -36 -24 0
v -35 -24 0
v -36 -25 0
v -37 -25 0
v -37 -24 0
v -36 -24 0
v -37 -25 0
v -38 -25 0
v -38 -24 0
v -37 -24 0
v -5 -26 0
v -6 -26 0
v -6 -25 0
v -5 -25 0
v -6 -26 0
v -7 -26 0
v -7 -25 0
v -6 -25 0
v -7 -26 0
v -8 -26 0
v -8 -25 0
v -7 -25 0
v -8 -26 0
v -9 -26 0
v -9 -25 0
v -8 -25 0
v -31 -26 0
v -32 -26 0
v -32 -25 0
v -31 -25 0
v -9 -27 0
v -10 -27 0
v -10 -26 0
v -9 -26 0
v -10 -27 0
v -11 -27 0
v -11 -26 0
v -10 -26 0
v -11 -27 0
v -12 -27 0
v -12 -26 0
v -11 -26 0
v -31 -27 0
v -32 -27 0
v -32 -26 0
v -31 -26 0
v -12 -28 0
v -13 -28 0
v -13 -27 0
v -12 -27 0
v -13 -28 0
v -14 -28 0
v -14 -27 0
v -13 -27 0
v -14 -28 0
v -15 -28 0
v -15 -27 0
v -14 -27 0
v -31 -28 0
v -32 -28 0
v -32 -27 0
v -31 -27 0
v -35 -28 0
v -36 -28 0
v -36 -27 0
v -35 -27 0
v -15 -29 0
v -16 -29 0
v -16 -28 0
v -15 -28 0
v -16 -29 0
v -17 -29 0
v -17 -28 0
v -16 -28 0
v -17 -29 0
v -18 -29 0
v -18 -28 0
v -17 -28 0
v -18 -29 0
v -19 -29 0
v -19 -28 0
v -18 -28 0
v -19 -29 0
v -20 -29 0
v -20 -28 0
v -19 -28 0
v -31 -29 0
v -32 -29 0
v -32 -28 0
v -31 -28 0
v -35 -29 0
v -36 -29 0
v -36 -28 0
v -35 -28 0
v -20 -30 0
v -21 -30 0
v -21 -29 0
v -20 -29 0
v -21 -30 0
v -22 -30 0
v -22 -29 0
v -21 -29 0
v -22 -30 0
v -23 -30 0
v -23 -29 0
v -22 -29 0
v -23 -30 0
v -24 -30 0
v -24 -29 0
v -23 -29 0
v -24 -30 0
v -25 -30 0
v -25 -29 0
v -24 -29 0
v -31 -30 0
v -32 -30 0
v -32 -29 0
v -31 -29 0
v -35 -30 0
v -36 -30 0
v -36 -29 0
v -35 -29 0
v -25 -31 0
v -26 -31 0
v -26 -30 0
v -25 -30 0
v -26 -31 0
v -27 -31 0
v -27 -30 0
v -26 -30 0
v -27 -31 0
v -28 -31 0
v -28 -30 0
v -27 -30 0
v -28 -31 0
v -29 -31 0
v -29 -30 0
v -28 -30 0
v -29 -31 0
v -30 -31 0
v -30 -30 0
v -29 -30 0
v -30 -31 0
v -31 -31 0
v -31 -30 0
v -30 -30 0
v -31 -31 0
v -32 -31 0
v -32 -30 0
v -31 -30 0
v -32 -31 0
v -33 -31 0
v -33 -30 0
v -32 -30 0
v -33 -31 0
v -34 -31 0
v -34 -30 0
v -33 -30 0
v -34 -31 0
v -35 -31 0
v -35 -30 0
v -34 -30 0
v -35 -31 0
v -36 -31 0
v -36 -30 0
v -35 -30 0

# Texture cooridinates (Count = 76)
vt 0.5231481 0.8589474
vt 0.5231481 0.8926316
vt 0.4984568 0.8926316
vt 0.4984568 0.8589474
vt 0.5509259 0.8947368
vt 0.5756173 0.8947368
vt 0.5756173 0.928421
vt 0.5509259 0.928421
vt 0.5493827 0.8589474
vt 0.5493827 0.8926316
vt 0.5246913 0.8926316
vt 0.5246913 0.8589474
vt 0.4722222 0.8947368
vt 0.4969136 0.8947368
vt 0.4969136 0.928421
vt 0.4722222 0.928421
vt 0.4722222 0.9305263
vt 0.4969136 0.9305263
vt 0.4969136 0.9642105
vt 0.4722222 0.9642105
vt 0.4182099 0.6421052
vt 0.3935185 0.6421052
vt 0.3935185 0.6084211
vt 0.4182099 0.6084211
vt 0.3919753 0.6421052
vt 0.3672839 0.6421052
vt 0.3672839 0.6084211
vt 0.3919753 0.6084211
vt 0.3657407 0.6421052
vt 0.3410494 0.6421052
vt 0.3410494 0.6084211
vt 0.3657407 0.6084211
vt 0.3410494 0.6442105
vt 0.3657407 0.6442105
vt 0.3657407 0.6778947
vt 0.3410494 0.6778947
vt 0.3672839 0.6442105
vt 0.3919753 0.6442105
vt 0.3919753 0.6778947
vt 0.3672839 0.6778947
vt 0.3935185 0.6442105
vt 0.4182099 0.6442105
vt 0.4182099 0.6778947
vt 0.3935185 0.6778947
vt 0.5771605 0.8589474
vt 0.6018519 0.8589474
vt 0.6018519 0.8926316
vt 0.5771605 0.8926316
vt 0.4197531 0.9305263
vt 0.4444444 0.9305263
vt 0.4444444 0.9642105
vt 0.4197531 0.9642105
vt 0.4459876 0.8589474
vt 0.470679 0.8589474
vt 0.470679 0.8926316
vt 0.4459876 0.8926316
vt 0.470679 0.9305263
vt 0.470679 0.9642105
vt 0.4459876 0.9642105
vt 0.4459876 0.9305263
vt 0.4197531 0.8589474
vt 0.4444444 0.8589474
vt 0.4444444 0.8926316
vt 0.4197531 0.8926316
vt 0.6280864 0.8926316
vt 0.603395 0.8926316
vt 0.603395 0.8589474
vt 0.6280864 0.8589474
vt 0.4197531 0.8947368
vt 0.4444444 0.8947368
vt 0.4444444 0.928421
vt 0.4197531 0.928421
vt 0.5509259 0.8589474
vt 0.5756173 0.8589474
vt 0.5756173 0.8926316
vt 0.5509259 0.8926316

# Normal
vn 0 0 -1

# Mesh description
g BibliotecaNueva-1_mesh_0003

# Faces
f 1/1/1 2/2/1 3/3/1 4/4/1
f 5/1/1 6/2/1 7/3/1 8/4/1
f 9/1/1 10/2/1 11/3/1 12/4/1
f 13/1/1 14/2/1 15/3/1 16/4/1
f 17/1/1 18/2/1 19/3/1 20/4/1
f 21/5/1 22/6/1 23/7/1 24/8/1
f 25/9/1 26/10/1 27/11/1 28/12/1
f 29/13/1 30/14/1 31/15/1 32/16/1
f 33/13/1 34/14/1 35/15/1 36/16/1
f 37/5/1 38/6/1 39/7/1 40/8/1
f 41/17/1 42/18/1 43/19/1 44/20/1
f 45/17/1 46/18/1 47/19/1 48/20/1
f 49/17/1 50/18/1 51/19/1 52/20/1
f 53/17/1 54/18/1 55/19/1 56/20/1
f 57/17/1 58/18/1 59/19/1 60/20/1
f 61/4/1 62/1/1 63/2/1 64/3/1
f 65/4/1 66/1/1 67/2/1 68/3/1
f 69/4/1 70/1/1 71/2/1 72/3/1
f 73/4/1 74/1/1 75/2/1 76/3/1
f 77/21/1 78/22/1 79/23/1 80/24/1
f 81/25/1 82/26/1 83/27/1 84/28/1
f 85/25/1 86/26/1 87/27/1 88/28/1
f 89/25/1 90/26/1 91/27/1 92/28/1
f 93/25/1 94/26/1 95/27/1 96/28/1
f 97/25/1 98/26/1 99/27/1 100/28/1
f 101/29/1 102/30/1 103/31/1 104/32/1
f 105/4/1 106/1/1 107/2/1 108/3/1
f 109/4/1 110/1/1 111/2/1 112/3/1
f 113/4/1 114/1/1 115/2/1 116/3/1
f 117/33/1 118/34/1 119/35/1 120/36/1
f 121/37/1 122/38/1 123/39/1 124/40/1
f 125/37/1 126/38/1 127/39/1 128/40/1
f 129/37/1 130/38/1 131/39/1 132/40/1
f 133/37/1 134/38/1 135/39/1 136/40/1
f 137/37/1 138/38/1 139/39/1 140/40/1
f 141/41/1 142/42/1 143/43/1 144/44/1
f 145/12/1 146/9/1 147/10/1 148/11/1
f 149/45/1 150/46/1 151/47/1 152/48/1
f 153/4/1 154/1/1 155/2/1 156/3/1
f 157/33/1 158/34/1 159/35/1 160/36/1
f 161/37/1 162/38/1 163/39/1 164/40/1
f 165/37/1 166/38/1 167/39/1 168/40/1
f 169/37/1 170/38/1 171/39/1 172/40/1
f 173/37/1 174/38/1 175/39/1 176/40/1
f 177/37/1 178/38/1 179/39/1 180/40/1
f 181/41/1 182/42/1 183/43/1 184/44/1
f 185/49/1 186/50/1 187/51/1 188/52/1
f 189/17/1 190/18/1 191/19/1 192/20/1
f 193/4/1 194/1/1 195/2/1 196/3/1
f 197/8/1 198/5/1 199/6/1 200/7/1
f 201/15/1 202/16/1 203/13/1 204/14/1
f 205/15/1 206/16/1 207/13/1 208/14/1
f 209/15/1 210/16/1 211/13/1 212/14/1
f 213/15/1 214/16/1 215/13/1 216/14/1
f 217/15/1 218/16/1 219/13/1 220/14/1
f 221/15/1 222/16/1 223/13/1 224/14/1
f 225/15/1 226/16/1 227/13/1 228/14/1
f 229/15/1 230/16/1 231/13/1 232/14/1
f 233/15/1 234/16/1 235/13/1 236/14/1
f 237/5/1 238/6/1 239/7/1 240/8/1
f 241/4/1 242/1/1 243/2/1 244/3/1
f 245/4/1 246/1/1 247/2/1 248/3/1
f 249/14/1 250/15/1 251/16/1 252/13/1
f 253/17/1 254/18/1 255/19/1 256/20/1
f 257/17/1 258/18/1 259/19/1 260/20/1
f 261/17/1 262/18/1 263/19/1 264/20/1
f 265/17/1 266/18/1 267/19/1 268/20/1
f 269/17/1 270/18/1 271/19/1 272/20/1
f 273/17/1 274/18/1 275/19/1 276/20/1
f 277/17/1 278/18/1 279/19/1 280/20/1
f 281/17/1 282/18/1 283/19/1 284/20/1
f 285/17/1 286/18/1 287/19/1 288/20/1
f 289/7/1 290/8/1 291/5/1 292/6/1
f 293/21/1 294/22/1 295/23/1 296/24/1
f 297/25/1 298/26/1 299/27/1 300/28/1
f 301/25/1 302/26/1 303/27/1 304/28/1
f 305/25/1 306/26/1 307/27/1 308/28/1
f 309/53/1 310/54/1 311/55/1 312/56/1
f 313/25/1 314/26/1 315/27/1 316/28/1
f 317/25/1 318/26/1 319/27/1 320/28/1
f 321/25/1 322/26/1 323/27/1 324/28/1
f 325/25/1 326/26/1 327/27/1 328/28/1
f 329/53/1 330/54/1 331/55/1 332/56/1
f 333/4/1 334/1/1 335/2/1 336/3/1
f 337/4/1 338/1/1 339/2/1 340/3/1
f 341/14/1 342/15/1 343/16/1 344/13/1
f 345/57/1 346/58/1 347/59/1 348/60/1
f 349/31/1 350/32/1 351/29/1 352/30/1
f 353/27/1 354/28/1 355/25/1 356/26/1
f 357/27/1 358/28/1 359/25/1 360/26/1
f 361/27/1 362/28/1 363/25/1 364/26/1
f 365/61/1 366/62/1 367/63/1 368/64/1
f 369/27/1 370/28/1 371/25/1 372/26/1
f 373/27/1 374/28/1 375/25/1 376/26/1
f 377/27/1 378/28/1 379/25/1 380/26/1
f 381/27/1 382/28/1 383/25/1 384/26/1
f 385/61/1 386/62/1 387/63/1 388/64/1
f 389/61/1 390/62/1 391/63/1 392/64/1
f 393/65/1 394/66/1 395/67/1 396/68/1
f 397/13/1 398/14/1 399/15/1 400/16/1
f 401/13/1 402/14/1 403/15/1 404/16/1
f 405/13/1 406/14/1 407/15/1 408/16/1
f 409/13/1 410/14/1 411/15/1 412/16/1
f 413/6/1 414/7/1 415/8/1 416/5/1
f 417/26/1 418/27/1 419/28/1 420/25/1
f 421/61/1 422/62/1 423/63/1 424/64/1
f 425/57/1 426/58/1 427/59/1 428/60/1
f 429/17/1 430/18/1 431/19/1 432/20/1
f 433/17/1 434/18/1 435/19/1 436/20/1
f 437/17/1 438/18/1 439/19/1 440/20/1
f 441/17/1 442/18/1 443/19/1 444/20/1
f 445/17/1 446/18/1 447/19/1 448/20/1
f 449/17/1 450/18/1 451/19/1 452/20/1
f 453/17/1 454/18/1 455/19/1 456/20/1
f 457/52/1 458/49/1 459/50/1 460/51/1
f 461/26/1 462/27/1 463/28/1 464/25/1
f 465/53/1 466/54/1 467/55/1 468/56/1
f 469/26/1 470/27/1 471/28/1 472/25/1
f 473/26/1 474/27/1 475/28/1 476/25/1
f 477/26/1 478/27/1 479/28/1 480/25/1
f 481/26/1 482/27/1 483/28/1 484/25/1
f 485/53/1 486/54/1 487/55/1 488/56/1
f 489/26/1 490/27/1 491/28/1 492/25/1
f 493/26/1 494/27/1 495/28/1 496/25/1
f 497/69/1 498/70/1 499/71/1 500/72/1
f 501/69/1 502/70/1 503/71/1 504/72/1
f 505/6/1 506/7/1 507/8/1 508/5/1
f 509/4/1 510/1/1 511/2/1 512/3/1
f 513/17/1 514/18/1 515/19/1 516/20/1
f 517/17/1 518/18/1 519/19/1 520/20/1
f 521/17/1 522/18/1 523/19/1 524/20/1
f 525/17/1 526/18/1 527/19/1 528/20/1
f 529/17/1 530/18/1 531/19/1 532/20/1
f 533/17/1 534/18/1 535/19/1 536/20/1
f 537/17/1 538/18/1 539/19/1 540/20/1
f 541/60/1 542/57/1 543/58/1 544/59/1
f 545/4/1 546/1/1 547/2/1 548/3/1
f 549/17/1 550/18/1 551/19/1 552/20/1
f 553/17/1 554/18/1 555/19/1 556/20/1
f 557/17/1 558/18/1 559/19/1 560/20/1
f 561/17/1 562/18/1 563/19/1 564/20/1
f 565/60/1 566/57/1 567/58/1 568/59/1
f 569/4/1 570/1/1 571/2/1 572/3/1
f 573/17/1 574/18/1 575/19/1 576/20/1
f 577/17/1 578/18/1 579/19/1 580/20/1
f 581/17/1 582/18/1 583/19/1 584/20/1
f 585/17/1 586/18/1 587/19/1 588/20/1
f 589/17/1 590/18/1 591/19/1 592/20/1
f 593/17/1 594/18/1 595/19/1 596/20/1
f 597/17/1 598/18/1 599/19/1 600/20/1
f 601/17/1 602/18/1 603/19/1 604/20/1
f 605/17/1 606/18/1 607/19/1 608/20/1
f 609/60/1 610/57/1 611/58/1 612/59/1
f 613/12/1 614/9/1 615/10/1 616/11/1
f 617/69/1 618/70/1 619/71/1 620/72/1
f 621/17/1 622/18/1 623/19/1 624/20/1
f 625/17/1 626/18/1 627/19/1 628/20/1
f 629/17/1 630/18/1 631/19/1 632/20/1
f 633/17/1 634/18/1 635/19/1 636/20/1
f 637/60/1 638/57/1 639/58/1 640/59/1
f 641/49/1 642/50/1 643/51/1 644/52/1
f 645/17/1 646/18/1 647/19/1 648/20/1
f 649/17/1 650/18/1 651/19/1 652/20/1
f 653/4/1 654/1/1 655/2/1 656/3/1
f 657/57/1 658/58/1 659/59/1 660/60/1
f 661/17/1 662/18/1 663/19/1 664/20/1
f 665/60/1 666/57/1 667/58/1 668/59/1
f 669/49/1 670/50/1 671/51/1 672/52/1
f 673/17/1 674/18/1 675/19/1 676/20/1
f 677/17/1 678/18/1 679/19/1 680/20/1
f 681/17/1 682/18/1 683/19/1 684/20/1
f 685/4/1 686/1/1 687/2/1 688/3/1
f 689/49/1 690/50/1 691/51/1 692/52/1
f 693/17/1 694/18/1 695/19/1 696/20/1
f 697/17/1 698/18/1 699/19/1 700/20/1
f 701/4/1 702/1/1 703/2/1 704/3/1
f 705/49/1 706/50/1 707/51/1 708/52/1
f 709/17/1 710/18/1 711/19/1 712/20/1
f 713/17/1 714/18/1 715/19/1 716/20/1
f 717/4/1 718/1/1 719/2/1 720/3/1
f 721/69/1 722/70/1 723/71/1 724/72/1
f 725/49/1 726/50/1 727/51/1 728/52/1
f 729/17/1 730/18/1 731/19/1 732/20/1
f 733/17/1 734/18/1 735/19/1 736/20/1
f 737/17/1 738/18/1 739/19/1 740/20/1
f 741/17/1 742/18/1 743/19/1 744/20/1
f 745/4/1 746/1/1 747/2/1 748/3/1
f 749/14/1 750/15/1 751/16/1 752/13/1
f 753/49/1 754/50/1 755/51/1 756/52/1
f 757/17/1 758/18/1 759/19/1 760/20/1
f 761/17/1 762/18/1 763/19/1 764/20/1
f 765/17/1 766/18/1 767/19/1 768/20/1
f 769/17/1 770/18/1 771/19/1 772/20/1
f 773/46/1 774/47/1 775/48/1 776/45/1
f 777/73/1 778/74/1 779/75/1 780/76/1
f 781/49/1 782/50/1 783/51/1 784/52/1
f 785/17/1 786/18/1 787/19/1 788/20/1
f 789/17/1 790/18/1 791/19/1 792/20/1
f 793/17/1 794/18/1 795/19/1 796/20/1
f 797/17/1 798/18/1 799/19/1 800/20/1
f 801/17/1 802/18/1 803/19/1 804/20/1
f 805/17/1 806/18/1 807/19/1 808/20/1
f 809/17/1 810/18/1 811/19/1 812/20/1
f 813/17/1 814/18/1 815/19/1 816/20/1
f 817/17/1 818/18/1 819/19/1 820/20/1
f 821/60/1 822/57/1 823/58/1 824/59/1

