# Tiled2Unity generated file. Do not modify by hand.
# Wavefront file for 'BibliotecaNueva-1_mesh_0010.obj'

# Vertices (Count = 80)
v -30 -7 0
v -31 -7 0
v -31 -6 0
v -30 -6 0
v -55 -9 0
v -56 -9 0
v -56 -8 0
v -55 -8 0
v -64 -9 0
v -65 -9 0
v -65 -8 0
v -64 -8 0
v -51 -10 0
v -52 -10 0
v -52 -9 0
v -51 -9 0
v -60 -10 0
v -61 -10 0
v -61 -9 0
v -60 -9 0
v -45 -11 0
v -46 -11 0
v -46 -10 0
v -45 -10 0
v -34 -12 0
v -35 -12 0
v -35 -11 0
v -34 -11 0
v -37 -13 0
v -38 -13 0
v -38 -12 0
v -37 -12 0
v -26 -14 0
v -27 -14 0
v -27 -13 0
v -26 -13 0
v -45 -15 0
v -46 -15 0
v -46 -14 0
v -45 -14 0
v -52 -15 0
v -53 -15 0
v -53 -14 0
v -52 -14 0
v -47 -16 0
v -48 -16 0
v -48 -15 0
v -47 -15 0
v -54 -16 0
v -55 -16 0
v -55 -15 0
v -54 -15 0
v -14 -20 0
v -15 -20 0
v -15 -19 0
v -14 -19 0
v -34 -20 0
v -35 -20 0
v -35 -19 0
v -34 -19 0
v -25 -21 0
v -26 -21 0
v -26 -20 0
v -25 -20 0
v -9 -22 0
v -10 -22 0
v -10 -21 0
v -9 -21 0
v -20 -22 0
v -21 -22 0
v -21 -21 0
v -20 -21 0
v -22 -22 0
v -23 -22 0
v -23 -21 0
v -22 -21 0
v -30 -24 0
v -31 -24 0
v -31 -23 0
v -30 -23 0

# Texture cooridinates (Count = 38)
vt 0.3333333 0.4444444
vt 0.3703704 0.4444444
vt 0.3703704 0.5
vt 0.3333333 0.5
vt 0.2962963 0.4444444
vt 0.2962963 0.5
vt 0.8888889 0.6111111
vt 0.9259259 0.6111111
vt 0.9259259 0.6666666
vt 0.8888889 0.6666666
vt 0.8888889 0.2777778
vt 0.9259259 0.2777778
vt 0.9259259 0.3333333
vt 0.8888889 0.3333333
vt 0.8888889 0.1111111
vt 0.9259259 0.1111111
vt 0.9259259 0.1666667
vt 0.8888889 0.1666667
vt 0.8888889 0.9444444
vt 0.9259259 0.9444444
vt 0.9259259 1
vt 0.8888889 1
vt 0.8518519 0.1111111
vt 0.8518519 0.1666667
vt 0.8518519 0.2777778
vt 0.8518519 0.3333333
vt 0.962963 0.1111111
vt 0.962963 0.1666667
vt 0.962963 0.2777778
vt 0.962963 0.3333333
vt 0.9259259 0.7777778
vt 0.962963 0.7777778
vt 0.962963 0.8333333
vt 0.9259259 0.8333333
vt 0.9259259 0.4444444
vt 0.962963 0.4444444
vt 0.962963 0.5
vt 0.9259259 0.5

# Normal
vn 0 0 -1

# Mesh description
g BibliotecaNueva-1_mesh_0010

# Faces
f 1/1/1 2/2/1 3/3/1 4/4/1
f 5/5/1 6/1/1 7/4/1 8/6/1
f 9/1/1 10/2/1 11/3/1 12/4/1
f 13/7/1 14/8/1 15/9/1 16/10/1
f 17/11/1 18/12/1 19/13/1 20/14/1
f 21/5/1 22/1/1 23/4/1 24/6/1
f 25/15/1 26/16/1 27/17/1 28/18/1
f 29/19/1 30/20/1 31/21/1 32/22/1
f 33/7/1 34/8/1 35/9/1 36/10/1
f 37/7/1 38/8/1 39/9/1 40/10/1
f 41/19/1 42/20/1 43/21/1 44/22/1
f 45/23/1 46/15/1 47/18/1 48/24/1
f 49/25/1 50/11/1 51/14/1 52/26/1
f 53/16/1 54/27/1 55/28/1 56/17/1
f 57/16/1 58/27/1 59/28/1 60/17/1
f 61/12/1 62/29/1 63/30/1 64/13/1
f 65/31/1 66/32/1 67/33/1 68/34/1
f 69/12/1 70/29/1 71/30/1 72/13/1
f 73/35/1 74/36/1 75/37/1 76/38/1
f 77/5/1 78/1/1 79/4/1 80/6/1

