# Tiled2Unity generated file. Do not modify by hand.
# Wavefront file for 'BibliotecaNueva-1_mesh_0004.obj'

# Vertices (Count = 48)
v -31 -4 0
v -32 -4 0
v -32 -3 0
v -31 -3 0
v -33 -4 0
v -34 -4 0
v -34 -3 0
v -33 -3 0
v -35 -4 0
v -36 -4 0
v -36 -3 0
v -35 -3 0
v -30 -5 0
v -31 -5 0
v -31 -4 0
v -30 -4 0
v -31 -5 0
v -32 -5 0
v -32 -4 0
v -31 -4 0
v -32 -5 0
v -33 -5 0
v -33 -4 0
v -32 -4 0
v -33 -5 0
v -34 -5 0
v -34 -4 0
v -33 -4 0
v -34 -5 0
v -35 -5 0
v -35 -4 0
v -34 -4 0
v -35 -5 0
v -36 -5 0
v -36 -4 0
v -35 -4 0
v -36 -5 0
v -37 -5 0
v -37 -4 0
v -36 -4 0
v -31 -6 0
v -32 -6 0
v -32 -5 0
v -31 -5 0
v -33 -6 0
v -34 -6 0
v -34 -5 0
v -33 -5 0

# Texture cooridinates (Count = 8)
vt 0.6280864 0.2505263
vt 0.6280864 0.2842105
vt 0.603395 0.2842105
vt 0.603395 0.2505263
vt 0.603395 0.3221053
vt 0.6280864 0.3221053
vt 0.6280864 0.3557895
vt 0.603395 0.3557895

# Normal
vn 0 0 -1

# Mesh description
g BibliotecaNueva-1_mesh_0004

# Faces
f 1/1/1 2/2/1 3/3/1 4/4/1
f 5/1/1 6/2/1 7/3/1 8/4/1
f 9/1/1 10/2/1 11/3/1 12/4/1
f 13/2/1 14/3/1 15/4/1 16/1/1
f 17/5/1 18/6/1 19/7/1 20/8/1
f 21/4/1 22/1/1 23/2/1 24/3/1
f 25/5/1 26/6/1 27/7/1 28/8/1
f 29/4/1 30/1/1 31/2/1 32/3/1
f 33/5/1 34/6/1 35/7/1 36/8/1
f 37/2/1 38/3/1 39/4/1 40/1/1
f 41/1/1 42/2/1 43/3/1 44/4/1
f 45/1/1 46/2/1 47/3/1 48/4/1

