# Tiled2Unity generated file. Do not modify by hand.
# Wavefront file for 'Mapa_mesh_0005.obj'

# Vertices (Count = 292)
v -2 -1 0
v -3 -1 0
v -3 0 0
v -2 0 0
v -3 -1 0
v -4 -1 0
v -4 0 0
v -3 0 0
v -5 -1 0
v -6 -1 0
v -6 0 0
v -5 0 0
v -10 -1 0
v -11 -1 0
v -11 0 0
v -10 0 0
v -12 -1 0
v -13 -1 0
v -13 0 0
v -12 0 0
v -13 -1 0
v -14 -1 0
v -14 0 0
v -13 0 0
v -15 -1 0
v -16 -1 0
v -16 0 0
v -15 0 0
v -1 -2 0
v -2 -2 0
v -2 -1 0
v -1 -1 0
v -2 -2 0
v -3 -2 0
v -3 -1 0
v -2 -1 0
v -3 -2 0
v -4 -2 0
v -4 -1 0
v -3 -1 0
v -5 -2 0
v -6 -2 0
v -6 -1 0
v -5 -1 0
v -10 -2 0
v -11 -2 0
v -11 -1 0
v -10 -1 0
v -12 -2 0
v -13 -2 0
v -13 -1 0
v -12 -1 0
v -13 -2 0
v -14 -2 0
v -14 -1 0
v -13 -1 0
v -14 -2 0
v -15 -2 0
v -15 -1 0
v -14 -1 0
v 0 -3 0
v -1 -3 0
v -1 -2 0
v 0 -2 0
v -2 -3 0
v -3 -3 0
v -3 -2 0
v -2 -2 0
v -3 -3 0
v -4 -3 0
v -4 -2 0
v -3 -2 0
v -5 -3 0
v -6 -3 0
v -6 -2 0
v -5 -2 0
v -12 -3 0
v -13 -3 0
v -13 -2 0
v -12 -2 0
v -13 -3 0
v -14 -3 0
v -14 -2 0
v -13 -2 0
v 0 -4 0
v -1 -4 0
v -1 -3 0
v 0 -3 0
v -12 -4 0
v -13 -4 0
v -13 -3 0
v -12 -3 0
v -13 -4 0
v -14 -4 0
v -14 -3 0
v -13 -3 0
v -14 -4 0
v -15 -4 0
v -15 -3 0
v -14 -3 0
v 0 -5 0
v -1 -5 0
v -1 -4 0
v 0 -4 0
v -15 -5 0
v -16 -5 0
v -16 -4 0
v -15 -4 0
v 0 -6 0
v -1 -6 0
v -1 -5 0
v 0 -5 0
v -1 -6 0
v -2 -6 0
v -2 -5 0
v -1 -5 0
v -2 -6 0
v -3 -6 0
v -3 -5 0
v -2 -5 0
v -13 -6 0
v -14 -6 0
v -14 -5 0
v -13 -5 0
v -14 -6 0
v -15 -6 0
v -15 -5 0
v -14 -5 0
v -15 -6 0
v -16 -6 0
v -16 -5 0
v -15 -5 0
v -7 -7 0
v -8 -7 0
v -8 -6 0
v -7 -6 0
v -8 -7 0
v -9 -7 0
v -9 -6 0
v -8 -6 0
v -7 -8 0
v -8 -8 0
v -8 -7 0
v -7 -7 0
v -8 -8 0
v -9 -8 0
v -9 -7 0
v -8 -7 0
v -7 -9 0
v -8 -9 0
v -8 -8 0
v -7 -8 0
v -8 -9 0
v -9 -9 0
v -9 -8 0
v -8 -8 0
v 0 -10 0
v -1 -10 0
v -1 -9 0
v 0 -9 0
v -15 -10 0
v -16 -10 0
v -16 -9 0
v -15 -9 0
v 0 -11 0
v -1 -11 0
v -1 -10 0
v 0 -10 0
v -1 -11 0
v -2 -11 0
v -2 -10 0
v -1 -10 0
v -14 -11 0
v -15 -11 0
v -15 -10 0
v -14 -10 0
v -15 -11 0
v -16 -11 0
v -16 -10 0
v -15 -10 0
v 0 -13 0
v -1 -13 0
v -1 -12 0
v 0 -12 0
v -3 -13 0
v -4 -13 0
v -4 -12 0
v -3 -12 0
v -12 -13 0
v -13 -13 0
v -13 -12 0
v -12 -12 0
v -14 -13 0
v -15 -13 0
v -15 -12 0
v -14 -12 0
v -15 -13 0
v -16 -13 0
v -16 -12 0
v -15 -12 0
v -1 -14 0
v -2 -14 0
v -2 -13 0
v -1 -13 0
v -10 -14 0
v -11 -14 0
v -11 -13 0
v -10 -13 0
v -12 -14 0
v -13 -14 0
v -13 -13 0
v -12 -13 0
v -14 -14 0
v -15 -14 0
v -15 -13 0
v -14 -13 0
v -15 -14 0
v -16 -14 0
v -16 -13 0
v -15 -13 0
v 0 -15 0
v -1 -15 0
v -1 -14 0
v 0 -14 0
v -1 -15 0
v -2 -15 0
v -2 -14 0
v -1 -14 0
v -2 -15 0
v -3 -15 0
v -3 -14 0
v -2 -14 0
v -3 -15 0
v -4 -15 0
v -4 -14 0
v -3 -14 0
v -5 -15 0
v -6 -15 0
v -6 -14 0
v -5 -14 0
v -10 -15 0
v -11 -15 0
v -11 -14 0
v -10 -14 0
v -13 -15 0
v -14 -15 0
v -14 -14 0
v -13 -14 0
v -14 -15 0
v -15 -15 0
v -15 -14 0
v -14 -14 0
v -15 -15 0
v -16 -15 0
v -16 -14 0
v -15 -14 0
v 0 -16 0
v -1 -16 0
v -1 -15 0
v 0 -15 0
v -1 -16 0
v -2 -16 0
v -2 -15 0
v -1 -15 0
v -2 -16 0
v -3 -16 0
v -3 -15 0
v -2 -15 0
v -3 -16 0
v -4 -16 0
v -4 -15 0
v -3 -15 0
v -5 -16 0
v -6 -16 0
v -6 -15 0
v -5 -15 0
v -10 -16 0
v -11 -16 0
v -11 -15 0
v -10 -15 0
v -12 -16 0
v -13 -16 0
v -13 -15 0
v -12 -15 0
v -13 -16 0
v -14 -16 0
v -14 -15 0
v -13 -15 0
v -14 -16 0
v -15 -16 0
v -15 -15 0
v -14 -15 0

# Texture cooridinates (Count = 77)
vt 0.5 0.5625
vt 0.5625 0.5625
vt 0.5625 0.625
vt 0.5 0.625
vt 0.625 0.5625
vt 0.625 0.625
vt 0 0.8125
vt 0.0625 0.8125
vt 0.0625 0.875
vt 0 0.875
vt 0 0.4375
vt 0.0625 0.4375
vt 0.0625 0.5
vt 0 0.5
vt 0.625 0.8125
vt 0.6875 0.8125
vt 0.6875 0.875
vt 0.625 0.875
vt 0.125 0.4375
vt 0.1875 0.4375
vt 0.1875 0.5
vt 0.125 0.5
vt 0.5 0.5
vt 0.5625 0.5
vt 0.625 0.5
vt 0 0.75
vt 0.0625 0.75
vt 0 0.375
vt 0.0625 0.375
vt 0.625 0.75
vt 0.6875 0.75
vt 0.75 0.75
vt 0.75 0.8125
vt 0.3125 0.875
vt 0.375 0.875
vt 0.375 0.9375
vt 0.3125 0.9375
vt 0.6875 0.9375
vt 0.625 0.9375
vt 0.5 0.875
vt 0.5625 0.875
vt 0.5625 0.9375
vt 0.5 0.9375
vt 0.3125 0.3125
vt 0.375 0.3125
vt 0.375 0.375
vt 0.3125 0.375
vt 0.4375 0.3125
vt 0.4375 0.375
vt 0.3125 0.25
vt 0.375 0.25
vt 0.4375 0.25
vt 0.3125 0.1875
vt 0.375 0.1875
vt 0.4375 0.1875
vt 0.5625 1
vt 0.5 1
vt 0.375 0.5625
vt 0.4375 0.5625
vt 0.4375 0.625
vt 0.375 0.625
vt 0 0.3125
vt 0.0625 0.3125
vt 0.375 0.5
vt 0.4375 0.5
vt 0 0.25
vt 0.0625 0.25
vt 0.625 0.4375
vt 0.6875 0.4375
vt 0.6875 0.5
vt 0.75 0.4375
vt 0.75 0.5
vt 0 0.1875
vt 0.0625 0.1875
vt 0.625 0.375
vt 0.6875 0.375
vt 0.75 0.375

# Normal
vn 0 0 -1

# Mesh description
g Mapa_mesh_0005

# Faces
f 1/1/1 2/2/1 3/3/1 4/4/1
f 5/2/1 6/5/1 7/6/1 8/3/1
f 9/7/1 10/8/1 11/9/1 12/10/1
f 13/7/1 14/8/1 15/9/1 16/10/1
f 17/11/1 18/12/1 19/13/1 20/14/1
f 21/15/1 22/16/1 23/17/1 24/18/1
f 25/19/1 26/20/1 27/21/1 28/22/1
f 29/12/1 30/19/1 31/22/1 32/13/1
f 33/23/1 34/24/1 35/2/1 36/1/1
f 37/24/1 38/25/1 39/5/1 40/2/1
f 41/26/1 42/27/1 43/8/1 44/7/1
f 45/26/1 46/27/1 47/8/1 48/7/1
f 49/28/1 50/29/1 51/12/1 52/11/1
f 53/30/1 54/31/1 55/16/1 56/15/1
f 57/31/1 58/32/1 59/33/1 60/16/1
f 61/11/1 62/12/1 63/13/1 64/14/1
f 65/19/1 66/20/1 67/21/1 68/22/1
f 69/34/1 70/35/1 71/36/1 72/37/1
f 73/18/1 74/17/1 75/38/1 76/39/1
f 77/1/1 78/2/1 79/3/1 80/4/1
f 81/2/1 82/5/1 83/6/1 84/3/1
f 85/28/1 86/29/1 87/12/1 88/11/1
f 89/23/1 90/24/1 91/2/1 92/1/1
f 93/24/1 94/25/1 95/5/1 96/2/1
f 97/12/1 98/19/1 99/22/1 100/13/1
f 101/7/1 102/8/1 103/9/1 104/10/1
f 105/7/1 106/8/1 107/9/1 108/10/1
f 109/26/1 110/27/1 111/8/1 112/7/1
f 113/40/1 114/41/1 115/42/1 116/43/1
f 117/41/1 118/18/1 119/39/1 120/42/1
f 121/40/1 122/41/1 123/42/1 124/43/1
f 125/41/1 126/18/1 127/39/1 128/42/1
f 129/26/1 130/27/1 131/8/1 132/7/1
f 133/44/1 134/45/1 135/46/1 136/47/1
f 137/45/1 138/48/1 139/49/1 140/46/1
f 141/50/1 142/51/1 143/45/1 144/44/1
f 145/51/1 146/52/1 147/48/1 148/45/1
f 149/53/1 150/54/1 151/51/1 152/50/1
f 153/54/1 154/55/1 155/52/1 156/51/1
f 157/7/1 158/8/1 159/9/1 160/10/1
f 161/7/1 162/8/1 163/9/1 164/10/1
f 165/26/1 166/27/1 167/8/1 168/7/1
f 169/43/1 170/42/1 171/56/1 172/57/1
f 173/43/1 174/42/1 175/56/1 176/57/1
f 177/26/1 178/27/1 179/8/1 180/7/1
f 181/19/1 182/20/1 183/21/1 184/22/1
f 185/12/1 186/19/1 187/22/1 188/13/1
f 189/11/1 190/12/1 191/13/1 192/14/1
f 193/58/1 194/59/1 195/60/1 196/61/1
f 197/59/1 198/1/1 199/4/1 200/60/1
f 201/62/1 202/63/1 203/29/1 204/28/1
f 205/18/1 206/17/1 207/38/1 208/39/1
f 209/28/1 210/29/1 211/12/1 212/11/1
f 213/64/1 214/65/1 215/59/1 216/58/1
f 217/65/1 218/23/1 219/1/1 220/59/1
f 221/11/1 222/12/1 223/13/1 224/14/1
f 225/66/1 226/67/1 227/63/1 228/62/1
f 229/58/1 230/59/1 231/60/1 232/61/1
f 233/59/1 234/1/1 235/4/1 236/60/1
f 237/7/1 238/8/1 239/9/1 240/10/1
f 241/7/1 242/8/1 243/9/1 244/10/1
f 245/68/1 246/69/1 247/70/1 248/25/1
f 249/69/1 250/71/1 251/72/1 252/70/1
f 253/34/1 254/35/1 255/36/1 256/37/1
f 257/28/1 258/29/1 259/12/1 260/11/1
f 261/73/1 262/74/1 263/67/1 264/66/1
f 265/64/1 266/65/1 267/59/1 268/58/1
f 269/65/1 270/23/1 271/1/1 272/59/1
f 273/26/1 274/27/1 275/8/1 276/7/1
f 277/26/1 278/27/1 279/8/1 280/7/1
f 281/19/1 282/20/1 283/21/1 284/22/1
f 285/75/1 286/76/1 287/69/1 288/68/1
f 289/76/1 290/77/1 291/71/1 292/69/1

