# Tiled2Unity generated file. Do not modify by hand.
# Wavefront file for 'Mapa_mesh_0004.obj'

# Vertices (Count = 144)
v -4 -1 0
v -5 -1 0
v -5 0 0
v -4 0 0
v -11 -1 0
v -12 -1 0
v -12 0 0
v -11 0 0
v -4 -2 0
v -5 -2 0
v -5 -1 0
v -4 -1 0
v -11 -2 0
v -12 -2 0
v -12 -1 0
v -11 -1 0
v -4 -3 0
v -5 -3 0
v -5 -2 0
v -4 -2 0
v -11 -3 0
v -12 -3 0
v -12 -2 0
v -11 -2 0
v -4 -4 0
v -5 -4 0
v -5 -3 0
v -4 -3 0
v -11 -4 0
v -12 -4 0
v -12 -3 0
v -11 -3 0
v 0 -5 0
v -1 -5 0
v -1 -4 0
v 0 -4 0
v -1 -5 0
v -2 -5 0
v -2 -4 0
v -1 -4 0
v -2 -5 0
v -3 -5 0
v -3 -4 0
v -2 -4 0
v -3 -5 0
v -4 -5 0
v -4 -4 0
v -3 -4 0
v -4 -5 0
v -5 -5 0
v -5 -4 0
v -4 -4 0
v -11 -5 0
v -12 -5 0
v -12 -4 0
v -11 -4 0
v -12 -5 0
v -13 -5 0
v -13 -4 0
v -12 -4 0
v -13 -5 0
v -14 -5 0
v -14 -4 0
v -13 -4 0
v -14 -5 0
v -15 -5 0
v -15 -4 0
v -14 -4 0
v -15 -5 0
v -16 -5 0
v -16 -4 0
v -15 -4 0
v 0 -12 0
v -1 -12 0
v -1 -11 0
v 0 -11 0
v -1 -12 0
v -2 -12 0
v -2 -11 0
v -1 -11 0
v -2 -12 0
v -3 -12 0
v -3 -11 0
v -2 -11 0
v -3 -12 0
v -4 -12 0
v -4 -11 0
v -3 -11 0
v -4 -12 0
v -5 -12 0
v -5 -11 0
v -4 -11 0
v -11 -12 0
v -12 -12 0
v -12 -11 0
v -11 -11 0
v -12 -12 0
v -13 -12 0
v -13 -11 0
v -12 -11 0
v -13 -12 0
v -14 -12 0
v -14 -11 0
v -13 -11 0
v -14 -12 0
v -15 -12 0
v -15 -11 0
v -14 -11 0
v -15 -12 0
v -16 -12 0
v -16 -11 0
v -15 -11 0
v -4 -13 0
v -5 -13 0
v -5 -12 0
v -4 -12 0
v -11 -13 0
v -12 -13 0
v -12 -12 0
v -11 -12 0
v -4 -14 0
v -5 -14 0
v -5 -13 0
v -4 -13 0
v -11 -14 0
v -12 -14 0
v -12 -13 0
v -11 -13 0
v -4 -15 0
v -5 -15 0
v -5 -14 0
v -4 -14 0
v -11 -15 0
v -12 -15 0
v -12 -14 0
v -11 -14 0
v -4 -16 0
v -5 -16 0
v -5 -15 0
v -4 -15 0
v -11 -16 0
v -12 -16 0
v -12 -15 0
v -11 -15 0

# Texture cooridinates (Count = 16)
vt 0.8125 0.5625
vt 0.875 0.5625
vt 0.875 0.625
vt 0.8125 0.625
vt 0.6875 0.5625
vt 0.75 0.5625
vt 0.75 0.625
vt 0.6875 0.625
vt 0.75 0.5
vt 0.8125 0.5
vt 0.875 0.5
vt 0.6875 0.5
vt 0.8125 0.6875
vt 0.75 0.6875
vt 0.875 0.6875
vt 0.6875 0.6875

# Normal
vn 0 0 -1

# Mesh description
g Mapa_mesh_0004

# Faces
f 1/1/1 2/2/1 3/3/1 4/4/1
f 5/5/1 6/6/1 7/7/1 8/8/1
f 9/1/1 10/2/1 11/3/1 12/4/1
f 13/5/1 14/6/1 15/7/1 16/8/1
f 17/1/1 18/2/1 19/3/1 20/4/1
f 21/5/1 22/6/1 23/7/1 24/8/1
f 25/1/1 26/2/1 27/3/1 28/4/1
f 29/5/1 30/6/1 31/7/1 32/8/1
f 33/9/1 34/10/1 35/1/1 36/6/1
f 37/9/1 38/10/1 39/1/1 40/6/1
f 41/9/1 42/10/1 43/1/1 44/6/1
f 45/9/1 46/10/1 47/1/1 48/6/1
f 49/10/1 50/11/1 51/2/1 52/1/1
f 53/12/1 54/9/1 55/6/1 56/5/1
f 57/9/1 58/10/1 59/1/1 60/6/1
f 61/9/1 62/10/1 63/1/1 64/6/1
f 65/9/1 66/10/1 67/1/1 68/6/1
f 69/9/1 70/10/1 71/1/1 72/6/1
f 73/7/1 74/4/1 75/13/1 76/14/1
f 77/7/1 78/4/1 79/13/1 80/14/1
f 81/7/1 82/4/1 83/13/1 84/14/1
f 85/7/1 86/4/1 87/13/1 88/14/1
f 89/4/1 90/3/1 91/15/1 92/13/1
f 93/8/1 94/7/1 95/14/1 96/16/1
f 97/7/1 98/4/1 99/13/1 100/14/1
f 101/7/1 102/4/1 103/13/1 104/14/1
f 105/7/1 106/4/1 107/13/1 108/14/1
f 109/7/1 110/4/1 111/13/1 112/14/1
f 113/1/1 114/2/1 115/3/1 116/4/1
f 117/5/1 118/6/1 119/7/1 120/8/1
f 121/1/1 122/2/1 123/3/1 124/4/1
f 125/5/1 126/6/1 127/7/1 128/8/1
f 129/1/1 130/2/1 131/3/1 132/4/1
f 133/5/1 134/6/1 135/7/1 136/8/1
f 137/1/1 138/2/1 139/3/1 140/4/1
f 141/5/1 142/6/1 143/7/1 144/8/1

