# Tiled2Unity generated file. Do not modify by hand.
# Wavefront file for 'BibliotecaNueva01_mesh_0006.obj'

# Vertices (Count = 36)
v -8 -13 0
v -9 -13 0
v -9 -12 0
v -8 -12 0
v -9 -13 0
v -10 -13 0
v -10 -12 0
v -9 -12 0
v -10 -13 0
v -11 -13 0
v -11 -12 0
v -10 -12 0
v -14 -13 0
v -15 -13 0
v -15 -12 0
v -14 -12 0
v -15 -13 0
v -16 -13 0
v -16 -12 0
v -15 -12 0
v -16 -13 0
v -17 -13 0
v -17 -12 0
v -16 -12 0
v -20 -13 0
v -21 -13 0
v -21 -12 0
v -20 -12 0
v -21 -13 0
v -22 -13 0
v -22 -12 0
v -21 -12 0
v -22 -13 0
v -23 -13 0
v -23 -12 0
v -22 -12 0

# Texture cooridinates (Count = 12)
vt 0 0.390164
vt 0.0349345 0.390164
vt 0.0349345 0.442623
vt 0 0.442623
vt 0.0371179 0.390164
vt 0.0720524 0.390164
vt 0.0720524 0.442623
vt 0.0371179 0.442623
vt 0.0742358 0.390164
vt 0.1091703 0.390164
vt 0.1091703 0.442623
vt 0.0742358 0.442623

# Normal
vn 0 0 -1

# Mesh description
g BibliotecaNueva01_mesh_0006

# Faces
f 1/1/1 2/2/1 3/3/1 4/4/1
f 5/5/1 6/6/1 7/7/1 8/8/1
f 9/9/1 10/10/1 11/11/1 12/12/1
f 13/1/1 14/2/1 15/3/1 16/4/1
f 17/5/1 18/6/1 19/7/1 20/8/1
f 21/9/1 22/10/1 23/11/1 24/12/1
f 25/1/1 26/2/1 27/3/1 28/4/1
f 29/5/1 30/6/1 31/7/1 32/8/1
f 33/9/1 34/10/1 35/11/1 36/12/1

