# Tiled2Unity generated file. Do not modify by hand.
# Wavefront file for 'Primer-Piso_mesh_0040.obj'

# Vertices (Count = 8)
v -7 -20 0
v -8 -20 0
v -8 -19 0
v -7 -19 0
v -8 -20 0
v -9 -20 0
v -9 -19 0
v -8 -19 0

# Texture cooridinates (Count = 8)
vt 0.75 0.375
vt 0.8333333 0.375
vt 0.8333333 0.5
vt 0.75 0.5
vt 0.8333333 0.125
vt 0.9166667 0.125
vt 0.9166667 0.25
vt 0.8333333 0.25

# Normal
vn 0 0 -1

# Mesh description
g Primer-Piso_mesh_0040

# Faces
f 1/1/1 2/2/1 3/3/1 4/4/1
f 5/5/1 6/6/1 7/7/1 8/8/1

