# Tiled2Unity generated file. Do not modify by hand.
# Wavefront file for 'Primer-Piso_mesh_0019.obj'

# Vertices (Count = 12)
v -17 -11 0
v -18 -11 0
v -18 -10 0
v -17 -10 0
v -17 -12 0
v -18 -12 0
v -18 -11 0
v -17 -11 0
v -17 -13 0
v -18 -13 0
v -18 -12 0
v -17 -12 0

# Texture cooridinates (Count = 6)
vt 0.8636364 0.72
vt 0.9090909 0.72
vt 0.9090909 0.76
vt 0.8636364 0.76
vt 0.8181818 0.72
vt 0.8181818 0.76

# Normal
vn 0 0 -1

# Mesh description
g Primer-Piso_mesh_0019

# Faces
f 1/1/1 2/2/1 3/3/1 4/4/1
f 5/1/1 6/2/1 7/3/1 8/4/1
f 9/5/1 10/1/1 11/4/1 12/6/1

