# Tiled2Unity generated file. Do not modify by hand.
# Wavefront file for 'Primer-Piso_mesh_0006.obj'

# Vertices (Count = 24)
v -9 -6 0
v -10 -6 0
v -10 -5 0
v -9 -5 0
v -10 -6 0
v -11 -6 0
v -11 -5 0
v -10 -5 0
v -9 -7 0
v -10 -7 0
v -10 -6 0
v -9 -6 0
v -10 -7 0
v -11 -7 0
v -11 -6 0
v -10 -6 0
v -7 -8 0
v -8 -8 0
v -8 -7 0
v -7 -7 0
v -8 -8 0
v -9 -8 0
v -9 -7 0
v -8 -7 0

# Texture cooridinates (Count = 4)
vt 0.5625 0
vt 0.5625 0.0625
vt 0.5 0.0625
vt 0.5 0

# Normal
vn 0 0 -1

# Mesh description
g Primer-Piso_mesh_0006

# Faces
f 1/1/1 2/2/1 3/3/1 4/4/1
f 5/3/1 6/4/1 7/1/1 8/2/1
f 9/1/1 10/2/1 11/3/1 12/4/1
f 13/3/1 14/4/1 15/1/1 16/2/1
f 17/4/1 18/1/1 19/2/1 20/3/1
f 21/4/1 22/1/1 23/2/1 24/3/1

