# Tiled2Unity generated file. Do not modify by hand.
# Wavefront file for 'Primer-Piso_mesh_0025.obj'

# Vertices (Count = 12)
v 0 -6 0
v -1 -6 0
v -1 -5 0
v 0 -5 0
v -1 -6 0
v -2 -6 0
v -2 -5 0
v -1 -5 0
v -3 -28 0
v -4 -28 0
v -4 -27 0
v -3 -27 0

# Texture cooridinates (Count = 6)
vt 0.875 0.4375
vt 0.875 0.375
vt 0.9375 0.375
vt 0.9375 0.4375
vt 0.875 0.3125
vt 0.9375 0.3125

# Normal
vn 0 0 -1

# Mesh description
g Primer-Piso_mesh_0025

# Faces
f 1/1/1 2/2/1 3/3/1 4/4/1
f 5/2/1 6/5/1 7/6/1 8/3/1
f 9/5/1 10/6/1 11/3/1 12/2/1

