# Tiled2Unity generated file. Do not modify by hand.
# Wavefront file for 'Primer-Piso_mesh_0020.obj'

# Vertices (Count = 12)
v -9 -26 0
v -10 -26 0
v -10 -25 0
v -9 -25 0
v -9 -27 0
v -10 -27 0
v -10 -26 0
v -9 -26 0
v -9 -28 0
v -10 -28 0
v -10 -27 0
v -9 -27 0

# Texture cooridinates (Count = 8)
vt 0.125 0.9375
vt 0.1875 0.9375
vt 0.1875 1
vt 0.125 1
vt 0.125 0.875
vt 0.1875 0.875
vt 0.125 0.8125
vt 0.1875 0.8125

# Normal
vn 0 0 -1

# Mesh description
g Primer-Piso_mesh_0020

# Faces
f 1/1/1 2/2/1 3/3/1 4/4/1
f 5/5/1 6/6/1 7/2/1 8/1/1
f 9/7/1 10/8/1 11/6/1 12/5/1

