# Tiled2Unity generated file. Do not modify by hand.
# Wavefront file for 'Primer-Piso_mesh_0039.obj'

# Vertices (Count = 12)
v -3 -19 0
v -4 -19 0
v -4 -18 0
v -3 -18 0
v -4 -19 0
v -5 -19 0
v -5 -18 0
v -4 -18 0
v -5 -19 0
v -6 -19 0
v -6 -18 0
v -5 -18 0

# Texture cooridinates (Count = 4)
vt 0.28125 0.125
vt 0.3125 0.125
vt 0.3125 0.1875
vt 0.28125 0.1875

# Normal
vn 0 0 -1

# Mesh description
g Primer-Piso_mesh_0039

# Faces
f 1/1/1 2/2/1 3/3/1 4/4/1
f 5/1/1 6/2/1 7/3/1 8/4/1
f 9/1/1 10/2/1 11/3/1 12/4/1

