# Tiled2Unity generated file. Do not modify by hand.
# Wavefront file for 'Primer-Piso_mesh_0023.obj'

# Vertices (Count = 12)
v -9 -5 0
v -10 -5 0
v -10 -4 0
v -9 -4 0
v -6 -18 0
v -7 -18 0
v -7 -17 0
v -6 -17 0
v -6 -19 0
v -7 -19 0
v -7 -18 0
v -6 -18 0

# Texture cooridinates (Count = 12)
vt 0.3888889 0.0625
vt 0.3888889 0.125
vt 0.3333333 0.125
vt 0.3333333 0.0625
vt 0.4444444 0.4375
vt 0.5 0.4375
vt 0.5 0.5
vt 0.4444444 0.5
vt 0.4444444 0.3125
vt 0.5 0.3125
vt 0.5 0.375
vt 0.4444444 0.375

# Normal
vn 0 0 -1

# Mesh description
g Primer-Piso_mesh_0023

# Faces
f 1/1/1 2/2/1 3/3/1 4/4/1
f 5/5/1 6/6/1 7/7/1 8/8/1
f 9/9/1 10/10/1 11/11/1 12/12/1

