# Tiled2Unity generated file. Do not modify by hand.
# Wavefront file for 'Primer-Piso_mesh_0021.obj'

# Vertices (Count = 248)
v -1 -1 0
v -2 -1 0
v -2 0 0
v -1 0 0
v -11 -1 0
v -12 -1 0
v -12 0 0
v -11 0 0
v -12 -1 0
v -13 -1 0
v -13 0 0
v -12 0 0
v -13 -1 0
v -14 -1 0
v -14 0 0
v -13 0 0
v -14 -1 0
v -15 -1 0
v -15 0 0
v -14 0 0
v -15 -1 0
v -16 -1 0
v -16 0 0
v -15 0 0
v -16 -1 0
v -17 -1 0
v -17 0 0
v -16 0 0
v -17 -1 0
v -18 -1 0
v -18 0 0
v -17 0 0
v -18 -1 0
v -19 -1 0
v -19 0 0
v -18 0 0
v -10 -2 0
v -11 -2 0
v -11 -1 0
v -10 -1 0
v -18 -2 0
v -19 -2 0
v -19 -1 0
v -18 -1 0
v -18 -3 0
v -19 -3 0
v -19 -2 0
v -18 -2 0
v -18 -4 0
v -19 -4 0
v -19 -3 0
v -18 -3 0
v -10 -5 0
v -11 -5 0
v -11 -4 0
v -10 -4 0
v -17 -7 0
v -18 -7 0
v -18 -6 0
v -17 -6 0
v -18 -7 0
v -19 -7 0
v -19 -6 0
v -18 -6 0
v -18 -8 0
v -19 -8 0
v -19 -7 0
v -18 -7 0
v -18 -10 0
v -19 -10 0
v -19 -9 0
v -18 -9 0
v -18 -11 0
v -19 -11 0
v -19 -10 0
v -18 -10 0
v -18 -12 0
v -19 -12 0
v -19 -11 0
v -18 -11 0
v -18 -13 0
v -19 -13 0
v -19 -12 0
v -18 -12 0
v -18 -14 0
v -19 -14 0
v -19 -13 0
v -18 -13 0
v -18 -15 0
v -19 -15 0
v -19 -14 0
v -18 -14 0
v -18 -17 0
v -19 -17 0
v -19 -16 0
v -18 -16 0
v -18 -18 0
v -19 -18 0
v -19 -17 0
v -18 -17 0
v -18 -19 0
v -19 -19 0
v -19 -18 0
v -18 -18 0
v -3 -20 0
v -4 -20 0
v -4 -19 0
v -3 -19 0
v -9 -20 0
v -10 -20 0
v -10 -19 0
v -9 -19 0
v -18 -20 0
v -19 -20 0
v -19 -19 0
v -18 -19 0
v -9 -21 0
v -10 -21 0
v -10 -20 0
v -9 -20 0
v -9 -22 0
v -10 -22 0
v -10 -21 0
v -9 -21 0
v -18 -22 0
v -19 -22 0
v -19 -21 0
v -18 -21 0
v -3 -23 0
v -4 -23 0
v -4 -22 0
v -3 -22 0
v -4 -23 0
v -5 -23 0
v -5 -22 0
v -4 -22 0
v -5 -23 0
v -6 -23 0
v -6 -22 0
v -5 -22 0
v -6 -23 0
v -7 -23 0
v -7 -22 0
v -6 -22 0
v -7 -23 0
v -8 -23 0
v -8 -22 0
v -7 -22 0
v -8 -23 0
v -9 -23 0
v -9 -22 0
v -8 -22 0
v -9 -23 0
v -10 -23 0
v -10 -22 0
v -9 -22 0
v -18 -23 0
v -19 -23 0
v -19 -22 0
v -18 -22 0
v -18 -24 0
v -19 -24 0
v -19 -23 0
v -18 -23 0
v -18 -25 0
v -19 -25 0
v -19 -24 0
v -18 -24 0
v -9 -26 0
v -10 -26 0
v -10 -25 0
v -9 -25 0
v -18 -26 0
v -19 -26 0
v -19 -25 0
v -18 -25 0
v -9 -27 0
v -10 -27 0
v -10 -26 0
v -9 -26 0
v -18 -27 0
v -19 -27 0
v -19 -26 0
v -18 -26 0
v -9 -28 0
v -10 -28 0
v -10 -27 0
v -9 -27 0
v -18 -28 0
v -19 -28 0
v -19 -27 0
v -18 -27 0
v -9 -29 0
v -10 -29 0
v -10 -28 0
v -9 -28 0
v -2 -30 0
v -3 -30 0
v -3 -29 0
v -2 -29 0
v -3 -30 0
v -4 -30 0
v -4 -29 0
v -3 -29 0
v -4 -30 0
v -5 -30 0
v -5 -29 0
v -4 -29 0
v -5 -30 0
v -6 -30 0
v -6 -29 0
v -5 -29 0
v -6 -30 0
v -7 -30 0
v -7 -29 0
v -6 -29 0
v -7 -30 0
v -8 -30 0
v -8 -29 0
v -7 -29 0
v -8 -30 0
v -9 -30 0
v -9 -29 0
v -8 -29 0
v -9 -30 0
v -10 -30 0
v -10 -29 0
v -9 -29 0
v -12 -30 0
v -13 -30 0
v -13 -29 0
v -12 -29 0
v -13 -30 0
v -14 -30 0
v -14 -29 0
v -13 -29 0
v -16 -30 0
v -17 -30 0
v -17 -29 0
v -16 -29 0
v -17 -30 0
v -18 -30 0
v -18 -29 0
v -17 -29 0
v -18 -30 0
v -19 -30 0
v -19 -29 0
v -18 -29 0

# Texture cooridinates (Count = 16)
vt 0.75 0.625
vt 0.8125 0.625
vt 0.8125 0.6875
vt 0.75 0.6875
vt 0.875 0.625
vt 0.875 0.6875
vt 0.8125 0.5625
vt 0.875 0.5625
vt 0.8125 0.5
vt 0.875 0.5
vt 0.6875 0.625
vt 0.6875 0.6875
vt 0.75 0.5
vt 0.75 0.5625
vt 0.6875 0.5
vt 0.6875 0.5625

# Normal
vn 0 0 -1

# Mesh description
g Primer-Piso_mesh_0021

# Faces
f 1/1/1 2/2/1 3/3/1 4/4/1
f 5/1/1 6/2/1 7/3/1 8/4/1
f 9/1/1 10/2/1 11/3/1 12/4/1
f 13/1/1 14/2/1 15/3/1 16/4/1
f 17/1/1 18/2/1 19/3/1 20/4/1
f 21/1/1 22/2/1 23/3/1 24/4/1
f 25/1/1 26/2/1 27/3/1 28/4/1
f 29/1/1 30/2/1 31/3/1 32/4/1
f 33/2/1 34/5/1 35/6/1 36/3/1
f 37/7/1 38/8/1 39/5/1 40/2/1
f 41/7/1 42/8/1 43/5/1 44/2/1
f 45/7/1 46/8/1 47/5/1 48/2/1
f 49/7/1 50/8/1 51/5/1 52/2/1
f 53/9/1 54/10/1 55/8/1 56/7/1
f 57/2/1 58/7/1 59/8/1 60/5/1
f 61/7/1 62/8/1 63/5/1 64/2/1
f 65/7/1 66/8/1 67/5/1 68/2/1
f 69/7/1 70/8/1 71/5/1 72/2/1
f 73/7/1 74/8/1 75/5/1 76/2/1
f 77/7/1 78/8/1 79/5/1 80/2/1
f 81/7/1 82/8/1 83/5/1 84/2/1
f 85/7/1 86/8/1 87/5/1 88/2/1
f 89/7/1 90/8/1 91/5/1 92/2/1
f 93/7/1 94/8/1 95/5/1 96/2/1
f 97/7/1 98/8/1 99/5/1 100/2/1
f 101/7/1 102/8/1 103/5/1 104/2/1
f 105/11/1 106/1/1 107/4/1 108/12/1
f 109/2/1 110/5/1 111/6/1 112/3/1
f 113/7/1 114/8/1 115/5/1 116/2/1
f 117/7/1 118/8/1 119/5/1 120/2/1
f 121/7/1 122/8/1 123/5/1 124/2/1
f 125/7/1 126/8/1 127/5/1 128/2/1
f 129/13/1 130/9/1 131/7/1 132/14/1
f 133/15/1 134/13/1 135/14/1 136/16/1
f 137/13/1 138/9/1 139/7/1 140/14/1
f 141/13/1 142/9/1 143/7/1 144/14/1
f 145/13/1 146/9/1 147/7/1 148/14/1
f 149/13/1 150/9/1 151/7/1 152/14/1
f 153/9/1 154/10/1 155/8/1 156/7/1
f 157/7/1 158/8/1 159/5/1 160/2/1
f 161/7/1 162/8/1 163/5/1 164/2/1
f 165/7/1 166/8/1 167/5/1 168/2/1
f 169/7/1 170/8/1 171/5/1 172/2/1
f 173/7/1 174/8/1 175/5/1 176/2/1
f 177/7/1 178/8/1 179/5/1 180/2/1
f 181/7/1 182/8/1 183/5/1 184/2/1
f 185/7/1 186/8/1 187/5/1 188/2/1
f 189/7/1 190/8/1 191/5/1 192/2/1
f 193/7/1 194/8/1 195/5/1 196/2/1
f 197/13/1 198/9/1 199/7/1 200/14/1
f 201/13/1 202/9/1 203/7/1 204/14/1
f 205/13/1 206/9/1 207/7/1 208/14/1
f 209/13/1 210/9/1 211/7/1 212/14/1
f 213/13/1 214/9/1 215/7/1 216/14/1
f 217/13/1 218/9/1 219/7/1 220/14/1
f 221/13/1 222/9/1 223/7/1 224/14/1
f 225/9/1 226/10/1 227/8/1 228/7/1
f 229/13/1 230/9/1 231/7/1 232/14/1
f 233/13/1 234/9/1 235/7/1 236/14/1
f 237/13/1 238/9/1 239/7/1 240/14/1
f 241/13/1 242/9/1 243/7/1 244/14/1
f 245/9/1 246/10/1 247/8/1 248/7/1

