# Tiled2Unity generated file. Do not modify by hand.
# Wavefront file for 'Primer-Piso_mesh_0035.obj'

# Vertices (Count = 32)
v -4 -1 0
v -5 -1 0
v -5 0 0
v -4 0 0
v -5 -1 0
v -6 -1 0
v -6 0 0
v -5 0 0
v -6 -1 0
v -7 -1 0
v -7 0 0
v -6 0 0
v -7 -1 0
v -8 -1 0
v -8 0 0
v -7 0 0
v -10 -8 0
v -11 -8 0
v -11 -7 0
v -10 -7 0
v -11 -8 0
v -12 -8 0
v -12 -7 0
v -11 -7 0
v -1 -22 0
v -2 -22 0
v -2 -21 0
v -1 -21 0
v -2 -22 0
v -3 -22 0
v -3 -21 0
v -2 -21 0

# Texture cooridinates (Count = 18)
vt 0.5 0.375
vt 0.5416667 0.375
vt 0.5416667 0.4166667
vt 0.5 0.4166667
vt 0.5833333 0.375
vt 0.5833333 0.4166667
vt 0.625 0.375
vt 0.625 0.4166667
vt 0.375 0.6666666
vt 0.3333333 0.6666666
vt 0.3333333 0.7083334
vt 0.375 0.7083334
vt 0.2916667 0.6666666
vt 0.2916667 0.7083334
vt 0.5 0.7083334
vt 0.5416667 0.7083334
vt 0.5416667 0.75
vt 0.5 0.75

# Normal
vn 0 0 -1

# Mesh description
g Primer-Piso_mesh_0035

# Faces
f 1/1/1 2/2/1 3/3/1 4/4/1
f 5/2/1 6/5/1 7/6/1 8/3/1
f 9/2/1 10/5/1 11/6/1 12/3/1
f 13/5/1 14/7/1 15/8/1 16/6/1
f 17/9/1 18/10/1 19/11/1 20/12/1
f 21/10/1 22/13/1 23/14/1 24/11/1
f 25/15/1 26/16/1 27/17/1 28/18/1
f 29/16/1 30/15/1 31/18/1 32/17/1

