# Tiled2Unity generated file. Do not modify by hand.
# Wavefront file for 'Primer-Piso_mesh_0004.obj'

# Vertices (Count = 24)
v -9 -3 0
v -10 -3 0
v -10 -2 0
v -9 -2 0
v -9 -4 0
v -10 -4 0
v -10 -3 0
v -9 -3 0
v -9 -5 0
v -10 -5 0
v -10 -4 0
v -9 -4 0
v -9 -6 0
v -10 -6 0
v -10 -5 0
v -9 -5 0
v -9 -7 0
v -10 -7 0
v -10 -6 0
v -9 -6 0
v -9 -8 0
v -10 -8 0
v -10 -7 0
v -9 -7 0

# Texture cooridinates (Count = 8)
vt 0.28125 0.125
vt 0.3125 0.125
vt 0.3125 0.1875
vt 0.28125 0.1875
vt 0.0625 0.125
vt 0.09375 0.125
vt 0.09375 0.1875
vt 0.0625 0.1875

# Normal
vn 0 0 -1

# Mesh description
g Primer-Piso_mesh_0004

# Faces
f 1/1/1 2/2/1 3/3/1 4/4/1
f 5/1/1 6/2/1 7/3/1 8/4/1
f 9/5/1 10/6/1 11/7/1 12/8/1
f 13/5/1 14/6/1 15/7/1 16/8/1
f 17/1/1 18/2/1 19/3/1 20/4/1
f 21/1/1 22/2/1 23/3/1 24/4/1

