# Tiled2Unity generated file. Do not modify by hand.
# Wavefront file for 'Primer-Piso_mesh_0018.obj'

# Vertices (Count = 12)
v -10 -9 0
v -11 -9 0
v -11 -8 0
v -10 -8 0
v -11 -9 0
v -12 -9 0
v -12 -8 0
v -11 -8 0
v -2 -30 0
v -3 -30 0
v -3 -29 0
v -2 -29 0

# Texture cooridinates (Count = 6)
vt 0.375 0.625
vt 0.3333333 0.625
vt 0.3333333 0.6666666
vt 0.375 0.6666666
vt 0.2916667 0.625
vt 0.2916667 0.6666666

# Normal
vn 0 0 -1

# Mesh description
g Primer-Piso_mesh_0018

# Faces
f 1/1/1 2/2/1 3/3/1 4/4/1
f 5/2/1 6/5/1 7/6/1 8/3/1
f 9/1/1 10/2/1 11/3/1 12/4/1

