# Tiled2Unity generated file. Do not modify by hand.
# Wavefront file for 'Primer-Piso_mesh_0031.obj'

# Vertices (Count = 116)
v -11 -1 0
v -12 -1 0
v -12 0 0
v -11 0 0
v -12 -1 0
v -13 -1 0
v -13 0 0
v -12 0 0
v -13 -1 0
v -14 -1 0
v -14 0 0
v -13 0 0
v -14 -1 0
v -15 -1 0
v -15 0 0
v -14 0 0
v -15 -1 0
v -16 -1 0
v -16 0 0
v -15 0 0
v -16 -1 0
v -17 -1 0
v -17 0 0
v -16 0 0
v -17 -1 0
v -18 -1 0
v -18 0 0
v -17 0 0
v -2 -2 0
v -3 -2 0
v -3 -1 0
v -2 -1 0
v -3 -2 0
v -4 -2 0
v -4 -1 0
v -3 -1 0
v -4 -2 0
v -5 -2 0
v -5 -1 0
v -4 -1 0
v -5 -2 0
v -6 -2 0
v -6 -1 0
v -5 -1 0
v -6 -2 0
v -7 -2 0
v -7 -1 0
v -6 -1 0
v -11 -2 0
v -12 -2 0
v -12 -1 0
v -11 -1 0
v -12 -2 0
v -13 -2 0
v -13 -1 0
v -12 -1 0
v -13 -2 0
v -14 -2 0
v -14 -1 0
v -13 -1 0
v -14 -2 0
v -15 -2 0
v -15 -1 0
v -14 -1 0
v -15 -2 0
v -16 -2 0
v -16 -1 0
v -15 -1 0
v -16 -2 0
v -17 -2 0
v -17 -1 0
v -16 -1 0
v -2 -3 0
v -3 -3 0
v -3 -2 0
v -2 -2 0
v -3 -3 0
v -4 -3 0
v -4 -2 0
v -3 -2 0
v -4 -3 0
v -5 -3 0
v -5 -2 0
v -4 -2 0
v -5 -3 0
v -6 -3 0
v -6 -2 0
v -5 -2 0
v -6 -3 0
v -7 -3 0
v -7 -2 0
v -6 -2 0
v -7 -3 0
v -8 -3 0
v -8 -2 0
v -7 -2 0
v -9 -3 0
v -10 -3 0
v -10 -2 0
v -9 -2 0
v 0 -4 0
v -1 -4 0
v -1 -3 0
v 0 -3 0
v -1 -4 0
v -2 -4 0
v -2 -3 0
v -1 -3 0
v 0 -5 0
v -1 -5 0
v -1 -4 0
v 0 -4 0
v -1 -5 0
v -2 -5 0
v -2 -4 0
v -1 -4 0

# Texture cooridinates (Count = 26)
vt 0.25 0.125
vt 0.3125 0.125
vt 0.3125 0.1875
vt 0.25 0.1875
vt 0.0625 0.125
vt 0.125 0.125
vt 0.125 0.1875
vt 0.0625 0.1875
vt 0.3125 0.25
vt 0.25 0.25
vt 0.1875 0.1875
vt 0.1875 0.25
vt 0.125 0.25
vt 0 0
vt 0.0625 0
vt 0.0625 0.0625
vt 0 0.0625
vt 0.25 0.0625
vt 0.3125 0.0625
vt 0.125 0.0625
vt 0.375 0.0625
vt 0.375 0
vt 0.3125 0
vt 0.1875 0.125
vt 0 0.1875
vt 0 0.125

# Normal
vn 0 0 -1

# Mesh description
g Primer-Piso_mesh_0031

# Faces
f 1/1/1 2/2/1 3/3/1 4/4/1
f 5/5/1 6/6/1 7/7/1 8/8/1
f 9/5/1 10/6/1 11/7/1 12/8/1
f 13/5/1 14/6/1 15/7/1 16/8/1
f 17/5/1 18/6/1 19/7/1 20/8/1
f 21/5/1 22/6/1 23/7/1 24/8/1
f 25/5/1 26/6/1 27/7/1 28/8/1
f 29/4/1 30/3/1 31/9/1 32/10/1
f 33/7/1 34/11/1 35/12/1 36/13/1
f 37/11/1 38/4/1 39/10/1 40/12/1
f 41/5/1 42/6/1 43/7/1 44/8/1
f 45/14/1 46/15/1 47/16/1 48/17/1
f 49/18/1 50/19/1 51/2/1 52/1/1
f 53/16/1 54/20/1 55/6/1 56/5/1
f 57/16/1 58/20/1 59/6/1 60/5/1
f 61/16/1 62/20/1 63/6/1 64/5/1
f 65/16/1 66/20/1 67/6/1 68/5/1
f 69/16/1 70/20/1 71/6/1 72/5/1
f 73/18/1 74/19/1 75/2/1 76/1/1
f 77/18/1 78/19/1 79/2/1 80/1/1
f 81/18/1 82/19/1 83/2/1 84/1/1
f 85/16/1 86/20/1 87/6/1 88/5/1
f 89/16/1 90/20/1 91/6/1 92/5/1
f 93/16/1 94/20/1 95/6/1 96/5/1
f 97/21/1 98/22/1 99/23/1 100/19/1
f 101/11/1 102/24/1 103/1/1 104/4/1
f 105/5/1 106/8/1 107/25/1 108/26/1
f 109/11/1 110/24/1 111/1/1 112/4/1
f 113/24/1 114/11/1 115/7/1 116/6/1

