# Tiled2Unity generated file. Do not modify by hand.
# Wavefront file for 'Primer-Piso_mesh_0038.obj'

# Vertices (Count = 20)
v -12 -8 0
v -13 -8 0
v -13 -7 0
v -12 -7 0
v -13 -8 0
v -14 -8 0
v -14 -7 0
v -13 -7 0
v -14 -8 0
v -15 -8 0
v -15 -7 0
v -14 -7 0
v -15 -8 0
v -16 -8 0
v -16 -7 0
v -15 -7 0
v -9 -11 0
v -10 -11 0
v -10 -10 0
v -9 -10 0

# Texture cooridinates (Count = 10)
vt 0.05555556 0.8125
vt 0.1111111 0.8125
vt 0.1111111 0.875
vt 0.05555556 0.875
vt 0.1666667 0.8125
vt 0.1666667 0.875
vt 0.3333333 0.8125
vt 0.3888889 0.8125
vt 0.3888889 0.875
vt 0.3333333 0.875

# Normal
vn 0 0 -1

# Mesh description
g Primer-Piso_mesh_0038

# Faces
f 1/1/1 2/2/1 3/3/1 4/4/1
f 5/2/1 6/5/1 7/6/1 8/3/1
f 9/1/1 10/2/1 11/3/1 12/4/1
f 13/2/1 14/5/1 15/6/1 16/3/1
f 17/7/1 18/8/1 19/9/1 20/10/1

